<svg width="20" height="20" viewBox="0 0 20 20" fill="none" xmlns="http://www.w3.org/2000/svg">
<rect x="0.75" y="0.75" width="18.5" height="18.5" rx="3.25" stroke="white" stroke-width="1.5"/>
<g clip-path="url(#clip0_116_256)">
<path d="M13.9915 11.1685C9.70096 11.1685 8.7146 10.1821 8.7146 5.8916C8.7146 5.81209 8.68302 5.73583 8.62679 5.67961C8.57057 5.62338 8.49431 5.5918 8.4148 5.5918C8.33529 5.5918 8.25903 5.62338 8.2028 5.67961C8.14658 5.73583 8.11499 5.81209 8.11499 5.8916C8.11499 10.1821 7.12866 11.1685 2.83814 11.1685C2.79867 11.1683 2.75955 11.1759 2.72303 11.1909C2.68652 11.2059 2.65332 11.228 2.62535 11.2558C2.59738 11.2837 2.57519 11.3168 2.56005 11.3532C2.5449 11.3897 2.53711 11.4288 2.53711 11.4683C2.53711 11.5077 2.5449 11.5468 2.56005 11.5833C2.57519 11.6197 2.59738 11.6528 2.62535 11.6807C2.65332 11.7085 2.68652 11.7306 2.72303 11.7456C2.75955 11.7606 2.79867 11.7682 2.83814 11.7681C7.12866 11.7681 8.11499 12.7549 8.11499 17.0454C8.11499 17.1249 8.14658 17.2012 8.2028 17.2574C8.25903 17.3136 8.33529 17.3452 8.4148 17.3452C8.49431 17.3452 8.57057 17.3136 8.62679 17.2574C8.68302 17.2012 8.7146 17.1249 8.7146 17.0454C8.7146 12.7549 9.70093 11.7681 13.9915 11.7681C14.0309 11.7682 14.0701 11.7606 14.1066 11.7456C14.1431 11.7306 14.1763 11.7085 14.2042 11.6807C14.2322 11.6528 14.2544 11.6197 14.2696 11.5833C14.2847 11.5468 14.2925 11.5077 14.2925 11.4683C14.2925 11.4288 14.2847 11.3897 14.2696 11.3532C14.2544 11.3168 14.2322 11.2837 14.2042 11.2558C14.1763 11.228 14.1431 11.2059 14.1066 11.1909C14.0701 11.1759 14.0309 11.1683 13.9915 11.1685Z" fill="white"/>
<path d="M14.2383 9.04101C14.1588 9.041 14.0825 9.0094 14.0263 8.95318C13.9701 8.89696 13.9385 8.82072 13.9385 8.74121C13.9385 6.55957 13.4971 6.11816 11.3154 6.11816C11.2359 6.11816 11.1597 6.08658 11.1034 6.03035C11.0472 5.97413 11.0156 5.89787 11.0156 5.81836C11.0156 5.73885 11.0472 5.66259 11.1034 5.60636C11.1597 5.55014 11.2359 5.51855 11.3154 5.51855C13.4971 5.51855 13.9385 5.07715 13.9385 2.89551C13.9385 2.81599 13.9701 2.73974 14.0263 2.68351C14.0825 2.62729 14.1588 2.5957 14.2383 2.5957C14.3178 2.5957 14.3941 2.62729 14.4503 2.68351C14.5065 2.73974 14.5381 2.81599 14.5381 2.89551C14.5381 5.07715 14.9795 5.51855 17.1611 5.51855C17.2406 5.51855 17.3169 5.55014 17.3731 5.60636C17.4293 5.66259 17.4609 5.73885 17.4609 5.81836C17.4609 5.89787 17.4293 5.97413 17.3731 6.03035C17.3169 6.08658 17.2406 6.11816 17.1611 6.11816C14.9795 6.11816 14.5381 6.55957 14.5381 8.74121C14.5381 8.82072 14.5065 8.89696 14.4503 8.95319C14.394 9.00941 14.3178 9.041 14.2383 9.04101ZM13.3086 5.81836C13.728 5.99504 14.0616 6.32869 14.2383 6.74805C14.415 6.32869 14.7486 5.99504 15.168 5.81836C14.7486 5.64168 14.415 5.30803 14.2383 4.88867C14.0616 5.30803 13.728 5.64167 13.3086 5.81836Z" fill="white"/>
</g>
<defs>
<clipPath id="clip0_116_256">
<rect width="16" height="16" fill="white" transform="translate(2 2)"/>
</clipPath>
</defs>
</svg>
