<svg width="20" height="20" viewBox="0 0 20 20" fill="none" xmlns="http://www.w3.org/2000/svg">
<g clip-path="url(#clip0_63_5982)">
<path d="M10 6.6665V9.99984L11.6667 11.6665" stroke="#D4D4D4" stroke-width="2" stroke-linecap="round" stroke-linejoin="round"/>
<path d="M2.5415 9.16672C2.72825 7.33344 3.58339 5.63307 4.94378 4.39003C6.30417 3.14699 8.07458 2.44829 9.91724 2.42725C11.7599 2.4062 13.5458 3.06428 14.9342 4.27592C16.3227 5.48756 17.2164 7.16796 17.445 8.9965C17.6735 10.825 17.2209 12.6737 16.1735 14.1899C15.126 15.706 13.557 16.7834 11.7659 17.2166C9.97477 17.6498 8.08685 17.4084 6.46233 16.5384C4.83782 15.6685 3.59044 14.231 2.95817 12.5001M2.5415 16.6667V12.5001H6.70817" stroke="#D4D4D4" stroke-width="2" stroke-linecap="round" stroke-linejoin="round"/>
</g>
<defs>
<clipPath id="clip0_63_5982">
<rect width="20" height="20" fill="white"/>
</clipPath>
</defs>
</svg>
