<svg width="21" height="28" viewBox="0 0 21 28" fill="none" xmlns="http://www.w3.org/2000/svg">
<g clip-path="url(#clip0_1_1986)">
<path d="M13.5 18C13.5 20.4289 11.9602 22 10.5 22C9.03984 22 7.5 20.4289 7.5 18C7.5 15.5711 9.03984 14 10.5 14C11.9602 14 13.5 15.5711 13.5 18Z" stroke="#312E81" stroke-width="2"/>
<path d="M15.126 12.4775C15.6461 12.6634 16.2184 12.3926 16.4043 11.8725C16.5903 11.3525 16.3195 10.7802 15.7994 10.5942L15.126 12.4775ZM4.15394 11.0209C3.62954 11.1942 3.34489 11.7597 3.51815 12.2841C3.69142 12.8085 4.25699 13.0932 4.78139 12.9199L4.15394 11.0209ZM9.60594 26.8601L9.3001 27.8122H9.3001L9.60594 26.8601ZM1.50059 13.5935L0.501178 13.6277L1.50059 13.5935ZM2.3422 12.5508L2.54191 13.5307L2.3422 12.5508ZM9.38373 9.33741L9.93551 10.1714L9.38373 9.33741ZM11.3941 26.8601L11.6999 27.8122H11.6999L11.3941 26.8601ZM19.4994 13.5935L18.5 13.5594V13.5594L19.4994 13.5935ZM18.6578 12.5508L18.8575 11.571H18.8575L18.6578 12.5508ZM11.6163 9.33741L11.0645 10.1714H11.0645L11.6163 9.33741ZM4.6639 1.54859C7.8383 6.38683 9.66221 10.5238 15.126 12.4775L15.7994 10.5942C11.1343 8.9262 9.72453 5.61587 6.3361 0.451445L4.6639 1.54859ZM14.6805 0.42694C10.9154 5.81125 9.31056 9.31711 4.15394 11.0209L4.78139 12.9199C10.7349 10.9529 12.7713 6.64727 16.3195 1.57306L14.6805 0.42694ZM9.91179 25.908C4.93383 24.3089 2.69992 19.4112 2.50001 13.5594L0.501178 13.6277C0.712997 19.8283 3.13232 25.8309 9.3001 27.8122L9.91179 25.908ZM2.54191 13.5307C5.37591 12.9531 7.60261 11.7149 9.93551 10.1714L8.83194 8.50343C6.57623 9.99586 4.60332 11.0694 2.14249 11.571L2.54191 13.5307ZM11.6999 27.8122C17.8677 25.8309 20.287 19.8283 20.4988 13.6277L18.5 13.5594C18.3001 19.4112 16.0662 24.3089 11.0882 25.908L11.6999 27.8122ZM18.8575 11.571C16.3967 11.0694 14.4238 9.99586 12.1681 8.50343L11.0645 10.1714C13.3974 11.7149 15.6241 12.9531 18.4581 13.5307L18.8575 11.571ZM20.4988 13.6277C20.5342 12.5929 19.7896 11.761 18.8575 11.571L18.4581 13.5307C18.4746 13.534 18.4882 13.5432 18.496 13.5527C18.4977 13.5547 18.4988 13.5563 18.4994 13.5574C18.4997 13.558 18.4999 13.5584 18.5 13.5586C18.5001 13.5589 18.5002 13.559 18.5002 13.559C18.5002 13.559 18.5002 13.559 18.5001 13.559C18.5001 13.5589 18.5001 13.5588 18.5001 13.5588C18.5001 13.5586 18.5 13.5584 18.5 13.5583C18.4999 13.5579 18.5 13.5581 18.5 13.5594L20.4988 13.6277ZM2.50001 13.5594C2.49997 13.5581 2.50006 13.5579 2.5 13.5583C2.49998 13.5584 2.49994 13.5586 2.4999 13.5588C2.49988 13.5588 2.49986 13.5589 2.49985 13.559C2.49984 13.559 2.49983 13.559 2.49983 13.559C2.49983 13.559 2.49987 13.5589 2.49999 13.5586C2.50011 13.5584 2.50031 13.558 2.50061 13.5574C2.50123 13.5563 2.50229 13.5547 2.50395 13.5527C2.51177 13.5432 2.52541 13.534 2.54191 13.5307L2.14249 11.571C1.21037 11.761 0.46583 12.5929 0.501178 13.6277L2.50001 13.5594ZM9.3001 27.8122C10.0797 28.0626 10.9203 28.0626 11.6999 27.8122L11.0882 25.908C10.7064 26.0307 10.2936 26.0307 9.91179 25.908L9.3001 27.8122ZM9.93551 10.1714C10.2809 9.94289 10.7191 9.94289 11.0645 10.1714L12.1681 8.50343C11.1536 7.83221 9.84644 7.83221 8.83194 8.50343L9.93551 10.1714Z" fill="#312E81"/>
</g>
<defs>
<clipPath id="clip0_1_1986">
<rect width="20" height="28" fill="white" transform="translate(0.5)"/>
</clipPath>
</defs>
</svg>
