<svg width="20" height="28" viewBox="0 0 20 28" fill="none" xmlns="http://www.w3.org/2000/svg">
<path d="M13 18C13 20.4289 11.4602 22 10 22C8.53984 22 7 20.4289 7 18C7 15.5711 8.53984 14 10 14C11.4602 14 13 15.5711 13 18Z" stroke="#312E81" stroke-width="2"/>
<path d="M14.626 12.4775C15.1461 12.6634 15.7184 12.3926 15.9043 11.8725C16.0903 11.3525 15.8195 10.7802 15.2994 10.5942L14.626 12.4775ZM3.65394 11.0209C3.12954 11.1942 2.84489 11.7597 3.01815 12.2841C3.19142 12.8085 3.75699 13.0932 4.28139 12.9199L3.65394 11.0209ZM9.10594 26.8601L8.8001 27.8122H8.8001L9.10594 26.8601ZM1.00059 13.5935L0.00117761 13.6277L1.00059 13.5935ZM1.8422 12.5508L2.04191 13.5307L1.8422 12.5508ZM8.88373 9.33741L9.43551 10.1714L8.88373 9.33741ZM10.8941 26.8601L11.1999 27.8122H11.1999L10.8941 26.8601ZM18.9994 13.5935L18 13.5594V13.5594L18.9994 13.5935ZM18.1578 12.5508L18.3575 11.571H18.3575L18.1578 12.5508ZM11.1163 9.33741L10.5645 10.1714H10.5645L11.1163 9.33741ZM4.1639 1.54859C7.3383 6.38683 9.16221 10.5238 14.626 12.4775L15.2994 10.5942C10.6343 8.9262 9.22453 5.61587 5.8361 0.451445L4.1639 1.54859ZM14.1805 0.42694C10.4154 5.81125 8.81056 9.31711 3.65394 11.0209L4.28139 12.9199C10.2349 10.9529 12.2713 6.64727 15.8195 1.57306L14.1805 0.42694ZM9.41179 25.908C4.43383 24.3089 2.19992 19.4112 2.00001 13.5594L0.00117761 13.6277C0.212997 19.8283 2.63232 25.8309 8.8001 27.8122L9.41179 25.908ZM2.04191 13.5307C4.87591 12.9531 7.10261 11.7149 9.43551 10.1714L8.33194 8.50343C6.07623 9.99586 4.10332 11.0694 1.64249 11.571L2.04191 13.5307ZM11.1999 27.8122C17.3677 25.8309 19.787 19.8283 19.9988 13.6277L18 13.5594C17.8001 19.4112 15.5662 24.3089 10.5882 25.908L11.1999 27.8122ZM18.3575 11.571C15.8967 11.0694 13.9238 9.99586 11.6681 8.50343L10.5645 10.1714C12.8974 11.7149 15.1241 12.9531 17.9581 13.5307L18.3575 11.571ZM19.9988 13.6277C20.0342 12.5929 19.2896 11.761 18.3575 11.571L17.9581 13.5307C17.9746 13.534 17.9882 13.5432 17.996 13.5527C17.9977 13.5547 17.9988 13.5563 17.9994 13.5574C17.9997 13.558 17.9999 13.5584 18 13.5586C18.0001 13.5589 18.0002 13.559 18.0002 13.559C18.0002 13.559 18.0002 13.559 18.0001 13.559C18.0001 13.5589 18.0001 13.5588 18.0001 13.5588C18.0001 13.5586 18 13.5584 18 13.5583C17.9999 13.5579 18 13.5581 18 13.5594L19.9988 13.6277ZM2.00001 13.5594C1.99997 13.5581 2.00006 13.5579 2 13.5583C1.99998 13.5584 1.99994 13.5586 1.9999 13.5588C1.99988 13.5588 1.99986 13.5589 1.99985 13.559C1.99984 13.559 1.99983 13.559 1.99983 13.559C1.99983 13.559 1.99987 13.5589 1.99999 13.5586C2.00011 13.5584 2.00031 13.558 2.00061 13.5574C2.00123 13.5563 2.00229 13.5547 2.00395 13.5527C2.01177 13.5432 2.02541 13.534 2.04191 13.5307L1.64249 11.571C0.710369 11.761 -0.0341696 12.5929 0.00117761 13.6277L2.00001 13.5594ZM8.8001 27.8122C9.57965 28.0626 10.4203 28.0626 11.1999 27.8122L10.5882 25.908C10.2064 26.0307 9.79356 26.0307 9.41179 25.908L8.8001 27.8122ZM9.43551 10.1714C9.78089 9.94289 10.2191 9.94289 10.5645 10.1714L11.6681 8.50343C10.6536 7.83221 9.34644 7.83221 8.33194 8.50343L9.43551 10.1714Z" fill="#312E81"/>
</svg>
