<svg width="12" height="12" viewBox="0 0 12 12" fill="none" xmlns="http://www.w3.org/2000/svg">
<g clip-path="url(#clip0_295_1714)">
<path d="M8 4V2.6C8 2.03995 8 1.75992 7.89101 1.54601C7.79513 1.35785 7.64215 1.20487 7.45399 1.10899C7.24008 1 6.96005 1 6.4 1H2.6C2.03995 1 1.75992 1 1.54601 1.10899C1.35785 1.20487 1.20487 1.35785 1.10899 1.54601C1 1.75992 1 2.03995 1 2.6V6.4C1 6.96005 1 7.24008 1.10899 7.45399C1.20487 7.64215 1.35785 7.79513 1.54601 7.89101C1.75992 8 2.03995 8 2.6 8H4M5.6 11H9.4C9.96005 11 10.2401 11 10.454 10.891C10.6422 10.7951 10.7951 10.6422 10.891 10.454C11 10.2401 11 9.96005 11 9.4V5.6C11 5.03995 11 4.75992 10.891 4.54601C10.7951 4.35785 10.6422 4.20487 10.454 4.10899C10.2401 4 9.96005 4 9.4 4H5.6C5.03995 4 4.75992 4 4.54601 4.10899C4.35785 4.20487 4.20487 4.35785 4.10899 4.54601C4 4.75992 4 5.03995 4 5.6V9.4C4 9.96005 4 10.2401 4.10899 10.454C4.20487 10.6422 4.35785 10.7951 4.54601 10.891C4.75992 11 5.03995 11 5.6 11Z" stroke="#667085" stroke-linecap="round" stroke-linejoin="round"/>
</g>
<defs>
<clipPath id="clip0_295_1714">
<rect width="12" height="12" fill="white"/>
</clipPath>
</defs>
</svg>
