<svg width="40" height="40" viewBox="0 0 40 40" fill="none" xmlns="http://www.w3.org/2000/svg">
<g clip-path="url(#clip0_1_1877)">
<path d="M27.4125 13.3063C27.519 13.3076 27.6255 13.3089 27.7352 13.3102C27.9975 13.3136 28.2599 13.3186 28.5222 13.3241C28.5222 13.4178 28.5222 13.5116 28.5222 13.6082C28.6629 13.6082 28.8035 13.6082 28.9484 13.6082C28.9484 13.7019 28.9484 13.7957 28.9484 13.8923C29.2296 14.0329 29.2296 14.0329 29.5166 14.1764C29.5166 14.2701 29.5166 14.3639 29.5166 14.4604C29.6103 14.4604 29.7041 14.4604 29.8007 14.4604C29.8007 14.6479 29.8007 14.8354 29.8007 15.0286C29.8944 15.0286 29.9882 15.0286 30.0847 15.0286C30.0847 15.6849 30.0847 16.3411 30.0847 17.0173C29.991 17.0173 29.8972 17.0173 29.8007 17.0173C29.8007 17.2048 29.8007 17.3923 29.8007 17.5854C29.7069 17.5854 29.6132 17.5854 29.5166 17.5854C29.5166 17.6792 29.5166 17.7729 29.5166 17.8695C29.4228 17.8695 29.3291 17.8695 29.2325 17.8695C29.2325 17.9633 29.2325 18.057 29.2325 18.1536C29.1387 18.1536 29.045 18.1536 28.9484 18.1536C28.9484 18.2474 28.9484 18.3411 28.9484 18.4377C28.8546 18.4377 28.7609 18.4377 28.6643 18.4377C28.6116 18.5597 28.6116 18.5597 28.5578 18.6841C28.3528 19.0556 28.1128 19.311 27.812 19.6096C27.7124 19.7099 27.6128 19.8103 27.5102 19.9137C27.2438 20.1423 27.2438 20.1423 26.9597 20.1423C26.9597 20.236 26.9597 20.3298 26.9597 20.4264C26.866 20.4264 26.7722 20.4264 26.6757 20.4264C26.6757 20.567 26.6757 20.7076 26.6757 20.8525C26.9569 20.9931 27.2382 21.1337 27.5279 21.2786C27.5279 21.3724 27.5279 21.4661 27.5279 21.5627C27.6217 21.5627 27.7154 21.5627 27.812 21.5627C27.812 21.7033 27.812 21.844 27.812 21.9889C27.9058 21.9889 27.9995 21.9889 28.0961 21.9889C28.0961 22.1764 28.0961 22.3639 28.0961 22.557C28.1899 22.557 28.2836 22.557 28.3802 22.557C28.3802 23.0258 28.3802 23.4945 28.3802 23.9775C28.5208 24.0244 28.6614 24.0712 28.8063 24.1195C28.8063 24.2133 28.8063 24.307 28.8063 24.4036C28.947 24.4036 29.0876 24.4036 29.2325 24.4036C29.2325 24.4974 29.2325 24.5911 29.2325 24.6877C29.42 24.7815 29.6075 24.8752 29.8007 24.9718C29.8007 25.0656 29.8007 25.1593 29.8007 25.2559C29.8944 25.2559 29.9882 25.2559 30.0847 25.2559C30.264 25.7265 30.3775 26.0373 30.3156 26.5432C30.3209 26.97 30.3209 26.97 30.6207 27.1619C30.8292 27.2865 31.0412 27.4053 31.2566 27.5175C31.3386 27.5681 31.4207 27.6186 31.5052 27.6707C31.5052 27.7644 31.5052 27.8582 31.5052 27.9548C31.5989 27.9548 31.6927 27.9548 31.7893 27.9548C31.7893 28.0954 31.7893 28.236 31.7893 28.3809C31.883 28.3809 31.9768 28.3809 32.0734 28.3809C32.257 28.9661 32.3948 29.4701 32.3575 30.0854C32.2637 30.0854 32.17 30.0854 32.0734 30.0854C32.0734 30.3667 32.0734 30.6479 32.0734 30.9377C31.9796 30.9377 31.8859 30.9377 31.7893 30.9377C31.7893 31.0783 31.7893 31.219 31.7893 31.3639C31.6955 31.3639 31.6018 31.3639 31.5052 31.3639C31.4642 31.4488 31.4232 31.5338 31.3809 31.6213C31.2211 31.932 31.2211 31.932 30.937 32.3582C30.8433 32.3582 30.7495 32.3582 30.6529 32.3582C30.6529 32.4519 30.6529 32.5457 30.6529 32.6423C30.5592 32.6423 30.4654 32.6423 30.3688 32.6423C30.3688 32.736 30.3688 32.8298 30.3688 32.9264C30.2751 32.9264 30.1813 32.9264 30.0847 32.9264C30.0847 33.0201 30.0847 33.1139 30.0847 33.2104C29.991 33.2104 29.8972 33.2104 29.8007 33.2104C29.7069 33.4448 29.6132 33.6792 29.5166 33.9207C29.4228 33.9207 29.3291 33.9207 29.2325 33.9207C29.2325 34.0144 29.2325 34.1082 29.2325 34.2048C29.1387 34.2048 29.045 34.2048 28.9484 34.2048C28.9112 34.2879 28.874 34.371 28.8357 34.4567C28.4793 35.1141 27.9213 35.6443 27.2527 35.9715C27.156 35.9978 27.0594 36.0242 26.9597 36.0514C26.9597 36.1451 26.9597 36.2389 26.9597 36.3354C26.5336 36.6195 26.5336 36.6195 26.1075 36.6195C26.1075 36.7133 26.1075 36.807 26.1075 36.9036C25.9668 36.9036 25.8262 36.9036 25.6813 36.9036C25.6813 36.9974 25.6813 37.0911 25.6813 37.1877C25.4938 37.1877 25.3063 37.1877 25.1132 37.1877C25.1132 37.2815 25.1132 37.3752 25.1132 37.4718C24.9257 37.4718 24.7382 37.4718 24.545 37.4718C24.545 37.5656 24.545 37.6593 24.545 37.7559C23.5616 38.1157 22.6158 38.204 21.5748 38.2009C21.4191 38.2011 21.4191 38.2011 21.2603 38.2013C21.0425 38.2014 20.8246 38.2012 20.6068 38.2006C20.2752 38.1998 19.9436 38.2006 19.6119 38.2015C19.3992 38.2014 19.1864 38.2012 18.9736 38.2009C18.8264 38.2013 18.8264 38.2013 18.6762 38.2018C18.1085 38.1991 17.5736 38.1489 17.0166 38.04C17.0166 37.9462 17.0166 37.8525 17.0166 37.7559C16.7353 37.7559 16.4541 37.7559 16.1643 37.7559C16.1643 37.6621 16.1643 37.5684 16.1643 37.4718C15.9768 37.4718 15.7893 37.4718 15.5961 37.4718C15.5961 37.3781 15.5961 37.2843 15.5961 37.1877C15.5082 37.1672 15.4203 37.1467 15.3298 37.1256C15.0279 37.0457 15.0279 37.0457 14.7438 36.9036C14.7438 36.8099 14.7438 36.7161 14.7438 36.6195C14.6559 36.599 14.5681 36.5785 14.4775 36.5574C14.1757 36.4775 14.1757 36.4775 13.8916 36.3354C13.8916 36.2417 13.8916 36.1479 13.8916 36.0514C13.7978 36.0514 13.7041 36.0514 13.6075 36.0514C13.6075 35.9576 13.6075 35.8639 13.6075 35.7673C13.5137 35.7673 13.42 35.7673 13.3234 35.7673C13.3234 35.6735 13.3234 35.5798 13.3234 35.4832C13.2296 35.4832 13.1359 35.4832 13.0393 35.4832C13.0393 35.3894 13.0393 35.2957 13.0393 35.1991C12.9455 35.1991 12.8518 35.1991 12.7552 35.1991C12.6614 34.9647 12.5677 34.7303 12.4711 34.4889C12.3774 34.4889 12.2836 34.4889 12.187 34.4889C12.187 34.3482 12.187 34.2076 12.187 34.0627C12.0933 34.0627 11.9995 34.0627 11.9029 34.0627C11.9029 33.9221 11.9029 33.7815 11.9029 33.6366C11.8092 33.6366 11.7154 33.6366 11.6188 33.6366C11.6188 33.4491 11.6188 33.2616 11.6188 33.0684C11.5251 33.0684 11.4313 33.0684 11.3347 33.0684C11.3347 32.8809 11.3347 32.6934 11.3347 32.5002C11.241 32.5002 11.1472 32.5002 11.0507 32.5002C11.0507 32.219 11.0507 31.9377 11.0507 31.6479C10.9569 31.6479 10.8632 31.6479 10.7666 31.6479C10.7666 31.3198 10.7666 30.9917 10.7666 30.6536C10.6728 30.6536 10.5791 30.6536 10.4825 30.6536C10.4696 30.4611 10.4696 30.4611 10.4564 30.2647C10.4385 30.0134 10.4385 30.0134 10.4203 29.757C10.403 29.5073 10.403 29.5073 10.3854 29.2526C10.3565 28.8034 10.3565 28.8034 10.1984 28.3809C10.1856 28.1664 10.1797 27.9515 10.1784 27.7367C10.1812 25.8977 10.1812 25.8977 9.49647 24.225C9.34611 23.9775 9.34611 23.9775 9.34611 23.5514C9.25236 23.5514 9.15861 23.5514 9.06202 23.5514C9.06202 23.4107 9.06202 23.2701 9.06202 23.1252C8.96827 23.1252 8.87452 23.1252 8.77792 23.1252C8.77792 22.9846 8.77792 22.844 8.77792 22.6991C8.68417 22.6991 8.59042 22.6991 8.49383 22.6991C8.02111 21.8064 7.8615 21.1527 7.92565 20.1423C8.0194 20.1423 8.11315 20.1423 8.20974 20.1423C8.20974 19.9548 8.20974 19.7673 8.20974 19.5741C8.30349 19.5741 8.39724 19.5741 8.49383 19.5741C8.49383 19.4335 8.49383 19.2928 8.49383 19.1479C8.58758 19.1479 8.68133 19.1479 8.77792 19.1479C8.8248 19.0073 8.87167 18.8667 8.91997 18.7218C9.34611 18.4377 9.34611 18.4377 9.77224 18.4377C9.77224 18.344 9.77224 18.2502 9.77224 18.1536C10.3816 18.1536 10.991 18.1536 11.6188 18.1536C11.6188 18.2474 11.6188 18.3411 11.6188 18.4377C11.7067 18.4582 11.7946 18.4787 11.8852 18.4999C12.187 18.5798 12.187 18.5798 12.4711 18.7218C12.4711 18.8156 12.4711 18.9093 12.4711 19.0059C12.5649 19.0059 12.6586 19.0059 12.7552 19.0059C12.7552 19.0997 12.7552 19.1934 12.7552 19.29C12.8489 19.29 12.9427 19.29 13.0393 19.29C13.0393 19.3837 13.0393 19.4775 13.0393 19.5741C13.133 19.5741 13.2268 19.5741 13.3234 19.5741C13.3234 19.6678 13.3234 19.7616 13.3234 19.8582C13.4171 19.8582 13.5109 19.8582 13.6075 19.8582C13.8916 20.2843 13.8916 20.2843 13.8916 20.7104C13.9853 20.7104 14.0791 20.7104 14.1757 20.7104C14.4597 21.1366 14.4597 21.1366 14.4597 21.5627C14.5535 21.5627 14.6472 21.5627 14.7438 21.5627C14.8376 21.844 14.9313 22.1252 15.0279 22.415C15.4967 22.415 15.9654 22.415 16.4484 22.415C16.4484 22.3212 16.4484 22.2275 16.4484 22.1309C16.7296 22.0372 17.0109 21.9434 17.3007 21.8468C17.3007 21.7531 17.3007 21.6593 17.3007 21.5627C17.4413 21.5627 17.5819 21.5627 17.7268 21.5627C17.7268 21.469 17.7268 21.3752 17.7268 21.2786C17.9612 21.1849 18.1955 21.0911 18.437 20.9945C18.437 20.9008 18.437 20.807 18.437 20.7104C18.5308 20.7104 18.6245 20.7104 18.7211 20.7104C18.7211 20.6167 18.7211 20.5229 18.7211 20.4264C18.8149 20.4264 18.9086 20.4264 19.0052 20.4264C19.0052 20.3326 19.0052 20.2389 19.0052 20.1423C19.1458 20.1423 19.2864 20.1423 19.4313 20.1423C19.4313 20.0485 19.4313 19.9548 19.4313 19.8582C19.6657 19.8582 19.9001 19.8582 20.1416 19.8582C20.1416 19.6707 20.1416 19.4832 20.1416 19.29C20.2353 19.29 20.3291 19.29 20.4257 19.29C20.5194 19.1025 20.6132 18.915 20.7097 18.7218C20.8035 18.7218 20.8972 18.7218 20.9938 18.7218C20.9938 18.6281 20.9938 18.5343 20.9938 18.4377C21.0876 18.4377 21.1813 18.4377 21.2779 18.4377C21.2779 18.344 21.2779 18.2502 21.2779 18.1536C21.3717 18.1536 21.4654 18.1536 21.562 18.1536C21.562 18.0599 21.562 17.9661 21.562 17.8695C21.6558 17.8695 21.7495 17.8695 21.8461 17.8695C21.8461 17.7758 21.8461 17.682 21.8461 17.5854C21.9399 17.5854 22.0336 17.5854 22.1302 17.5854C22.1302 17.4917 22.1302 17.3979 22.1302 17.3014C22.2239 17.3014 22.3177 17.3014 22.4143 17.3014C22.4143 17.2076 22.4143 17.1139 22.4143 17.0173C22.508 17.0173 22.6018 17.0173 22.6984 17.0173C22.6984 16.9235 22.6984 16.8298 22.6984 16.7332C22.7921 16.7332 22.8859 16.7332 22.9825 16.7332C22.9825 16.6394 22.9825 16.5457 22.9825 16.4491C23.0762 16.4491 23.17 16.4491 23.2666 16.4491C23.2666 16.3553 23.2666 16.2616 23.2666 16.165C23.3603 16.165 23.4541 16.165 23.5507 16.165C23.5507 16.0712 23.5507 15.9775 23.5507 15.8809C23.6444 15.8809 23.7382 15.8809 23.8347 15.8809C23.8347 15.7871 23.8347 15.6934 23.8347 15.5968C23.9285 15.5968 24.0222 15.5968 24.1188 15.5968C24.1512 15.5181 24.1837 15.4393 24.217 15.3582C24.4558 14.9349 24.7582 14.6411 25.1043 14.3006C25.2286 14.1772 25.3529 14.0538 25.481 13.9267C26.1274 13.3253 26.5652 13.2871 27.4125 13.3063ZM26.2495 15.3127C26.2026 15.4533 26.1558 15.594 26.1075 15.7389C26.0137 15.7389 25.92 15.7389 25.8234 15.7389C25.8234 15.8326 25.8234 15.9264 25.8234 16.0229C25.7296 16.0229 25.6359 16.0229 25.5393 16.0229C25.5393 16.1167 25.5393 16.2104 25.5393 16.307C25.4455 16.307 25.3518 16.307 25.2552 16.307C25.0324 16.5273 25.0324 16.5273 24.8024 16.8131C24.3166 17.3848 23.8019 17.9128 23.2666 18.4377C23.1494 18.5578 23.0322 18.678 22.9114 18.8017C21.8087 19.8769 21.8087 19.8769 21.2779 20.1423C21.2779 20.236 21.2779 20.3298 21.2779 20.4264C21.1842 20.4264 21.0904 20.4264 20.9938 20.4264C20.9938 20.5201 20.9938 20.6139 20.9938 20.7104C20.9001 20.7104 20.8063 20.7104 20.7097 20.7104C20.7097 20.8042 20.7097 20.8979 20.7097 20.9945C20.616 20.9945 20.5222 20.9945 20.4257 20.9945C20.4257 21.0883 20.4257 21.182 20.4257 21.2786C20.3319 21.2786 20.2382 21.2786 20.1416 21.2786C20.1416 21.3724 20.1416 21.4661 20.1416 21.5627C20.0478 21.5627 19.9541 21.5627 19.8575 21.5627C19.8575 21.6565 19.8575 21.7502 19.8575 21.8468C19.7813 21.882 19.7051 21.9171 19.6266 21.9533C19.2066 22.1744 18.8209 22.4199 18.437 22.6991C18.437 22.7928 18.437 22.8866 18.437 22.9832C18.3315 23.0213 18.2261 23.0593 18.1174 23.0986C17.7271 23.2487 17.7271 23.2487 17.4338 23.4892C17.1477 23.7015 16.9377 23.7734 16.5904 23.8354C16.5904 23.9292 16.5904 24.0229 16.5904 24.1195C16.4498 24.1195 16.3092 24.1195 16.1643 24.1195C16.1643 24.7758 16.1643 25.432 16.1643 26.1082C16.0705 26.1082 15.9768 26.1082 15.8802 26.1082C15.8802 26.3425 15.8802 26.5769 15.8802 26.8184C15.7864 26.8184 15.6927 26.8184 15.5961 26.8184C15.5961 26.959 15.5961 27.0996 15.5961 27.2445C15.5024 27.2445 15.4086 27.2445 15.312 27.2445C15.312 27.3383 15.312 27.432 15.312 27.5286C15.0308 27.5286 14.7495 27.5286 14.4597 27.5286C14.4597 27.4349 14.4597 27.3411 14.4597 27.2445C14.366 27.2445 14.2722 27.2445 14.1757 27.2445C14.1757 26.8695 14.1757 26.4945 14.1757 26.1082C14.2694 26.1082 14.3632 26.1082 14.4597 26.1082C14.5606 25.3227 14.6448 24.6167 14.4597 23.8354C14.366 23.8354 14.2722 23.8354 14.1757 23.8354C14.0819 23.6011 13.9882 23.3667 13.8916 23.1252C13.7978 23.1252 13.7041 23.1252 13.6075 23.1252C13.6075 22.9846 13.6075 22.844 13.6075 22.6991C13.5137 22.6991 13.42 22.6991 13.3234 22.6991C13.3234 22.5585 13.3234 22.4178 13.3234 22.2729C13.2296 22.2729 13.1359 22.2729 13.0393 22.2729C13.0393 22.1323 13.0393 21.9917 13.0393 21.8468C12.9455 21.8468 12.8518 21.8468 12.7552 21.8468C12.7347 21.7589 12.7142 21.671 12.6931 21.5805C12.6229 21.274 12.6229 21.274 12.4711 20.9945C12.3774 20.9945 12.2836 20.9945 12.187 20.9945C12.1519 20.9066 12.1167 20.8188 12.0805 20.7282C11.8736 20.3765 11.7072 20.2912 11.3347 20.1423C11.3347 20.0485 11.3347 19.9548 11.3347 19.8582C11.104 19.8467 10.8732 19.8384 10.6423 19.8315C10.5137 19.8266 10.3852 19.8217 10.2528 19.8166C10.1411 19.8303 10.0294 19.844 9.91429 19.8582C9.62178 20.2969 9.59624 20.3851 9.61244 20.8791C9.6183 21.0578 9.62416 21.2365 9.6302 21.4207C9.72395 21.4207 9.8177 21.4207 9.91429 21.4207C9.9348 21.5056 9.9553 21.5906 9.97643 21.6781C10.0403 21.9266 10.1173 22.1716 10.1984 22.415C10.2921 22.415 10.3859 22.415 10.4825 22.415C10.5762 22.6962 10.67 22.9775 10.7666 23.2673C10.8603 23.2673 10.9541 23.2673 11.0507 23.2673C11.0507 23.4548 11.0507 23.6423 11.0507 23.8354C11.1444 23.8354 11.2382 23.8354 11.3347 23.8354C11.3523 23.9351 11.3699 24.0347 11.388 24.1373C11.4632 24.542 11.4632 24.542 11.6199 24.8897C11.825 25.629 11.8165 26.3562 11.8319 27.1202C11.8638 28.671 11.9988 30.1637 12.4711 31.6479C12.5649 31.6479 12.6586 31.6479 12.7552 31.6479C12.7552 31.8823 12.7552 32.1167 12.7552 32.3582C12.8489 32.3582 12.9427 32.3582 13.0393 32.3582C13.0393 32.5457 13.0393 32.7332 13.0393 32.9264C13.133 32.9264 13.2268 32.9264 13.3234 32.9264C13.4171 33.1139 13.5109 33.3014 13.6075 33.4945C13.7012 33.4945 13.795 33.4945 13.8916 33.4945C13.8916 33.5883 13.8916 33.682 13.8916 33.7786C14.0791 33.7786 14.2666 33.7786 14.4597 33.7786C14.4597 33.8724 14.4597 33.9661 14.4597 34.0627C14.741 34.0627 15.0222 34.0627 15.312 34.0627C15.312 34.1565 15.312 34.2502 15.312 34.3468C15.5933 34.3468 15.8745 34.3468 16.1643 34.3468C16.1643 34.2531 16.1643 34.1593 16.1643 34.0627C16.4455 34.0627 16.7268 34.0627 17.0166 34.0627C17.0166 33.969 17.0166 33.8752 17.0166 33.7786C17.1572 33.7786 17.2978 33.7786 17.4427 33.7786C17.4427 33.6849 17.4427 33.5911 17.4427 33.4945C17.5789 33.4374 17.5789 33.4374 17.7179 33.3791C18.0579 33.2265 18.0579 33.2265 18.1529 32.7843C18.2467 32.7843 18.3404 32.7843 18.437 32.7843C18.5308 32.5499 18.6245 32.3156 18.7211 32.0741C19.0961 32.0741 19.4711 32.0741 19.8575 32.0741C19.8575 32.1678 19.8575 32.2616 19.8575 32.3582C19.9512 32.3582 20.045 32.3582 20.1416 32.3582C20.1416 32.6394 20.1416 32.9207 20.1416 33.2104C20.0478 33.2104 19.9541 33.2104 19.8575 33.2104C19.8575 33.3042 19.8575 33.3979 19.8575 33.4945C19.7637 33.4945 19.67 33.4945 19.5734 33.4945C19.5206 33.6615 19.5206 33.6615 19.4668 33.8319C19.2644 34.2569 19.1504 34.3279 18.7211 34.4889C18.6274 34.5357 18.5336 34.5826 18.437 34.6309C18.437 34.7246 18.437 34.8184 18.437 34.915C18.3433 34.915 18.2495 34.915 18.1529 34.915C18.1529 35.0087 18.1529 35.1025 18.1529 35.1991C17.7741 35.2938 17.3953 35.3885 17.0166 35.4832C17.0166 35.5769 17.0166 35.6707 17.0166 35.7673C16.7353 35.7673 16.4541 35.7673 16.1643 35.7673C16.3049 35.9079 16.3049 35.9079 16.4484 36.0514C16.6359 36.0514 16.8234 36.0514 17.0166 36.0514C17.0166 36.1451 17.0166 36.2389 17.0166 36.3354C17.6874 36.5496 18.315 36.6674 19.0168 36.7266C19.2893 36.7616 19.2893 36.7616 19.5734 36.9036C19.8159 36.9136 20.0587 36.9156 20.3014 36.9125C20.4306 36.9112 20.5599 36.9099 20.6931 36.9086C20.7923 36.907 20.8916 36.9053 20.9938 36.9036C20.9938 36.8099 20.9938 36.7161 20.9938 36.6195C21.5563 36.6195 22.1188 36.6195 22.6984 36.6195C22.6984 36.5258 22.6984 36.432 22.6984 36.3354C22.8824 36.3481 22.8824 36.3481 23.0701 36.361C23.622 36.3317 23.9358 36.1863 24.4207 35.9271C24.5646 35.8513 24.7085 35.7755 24.8568 35.6973C24.9883 35.6267 25.1197 35.556 25.2552 35.4832C25.4442 35.3877 25.6334 35.2927 25.8234 35.1991C25.8234 35.1053 25.8234 35.0116 25.8234 34.915C25.986 34.8535 25.986 34.8535 26.1519 34.7907C26.555 34.6362 26.555 34.6362 26.9597 34.3468C26.9597 34.2531 26.9597 34.1593 26.9597 34.0627C27.0535 34.0627 27.1472 34.0627 27.2438 34.0627C27.2438 33.969 27.2438 33.8752 27.2438 33.7786C27.3376 33.7786 27.4313 33.7786 27.5279 33.7786C27.5279 33.6849 27.5279 33.5911 27.5279 33.4945C27.6217 33.4945 27.7154 33.4945 27.812 33.4945C27.9058 33.307 27.9995 33.1195 28.0961 32.9264C27.9086 32.9264 27.7211 32.9264 27.5279 32.9264C27.5279 32.8326 27.5279 32.7389 27.5279 32.6423C27.4342 32.6423 27.3404 32.6423 27.2438 32.6423C27.2438 32.5485 27.2438 32.4548 27.2438 32.3582C27.1501 32.3582 27.0563 32.3582 26.9597 32.3582C26.9597 32.2644 26.9597 32.1707 26.9597 32.0741C26.866 32.0741 26.7722 32.0741 26.6757 32.0741C26.6757 31.9335 26.6757 31.7928 26.6757 31.6479C26.5819 31.6479 26.4882 31.6479 26.3916 31.6479C26.3916 31.2261 26.3916 30.8042 26.3916 30.3695C26.0634 30.3695 25.7353 30.3695 25.3972 30.3695C25.3972 30.2758 25.3972 30.182 25.3972 30.0854C25.2566 30.0854 25.116 30.0854 24.9711 30.0854C24.9711 29.9917 24.9711 29.8979 24.9711 29.8014C24.7107 29.4936 24.7107 29.4936 24.4029 29.2332C24.3092 29.2332 24.2154 29.2332 24.1188 29.2332C23.9782 28.2488 23.9782 28.2488 23.8347 27.2445C23.1861 26.9341 23.1861 26.9341 22.6984 26.9604C22.6984 26.8667 22.6984 26.7729 22.6984 26.6764C22.6046 26.6764 22.5109 26.6764 22.4143 26.6764C22.4143 26.5826 22.4143 26.4889 22.4143 26.3923C22.3205 26.3923 22.2268 26.3923 22.1302 26.3923C21.9896 25.9001 21.9896 25.9001 21.8461 25.3979C21.7524 25.3979 21.6586 25.3979 21.562 25.3979C21.562 24.8823 21.562 24.3667 21.562 23.8354C21.6558 23.8354 21.7495 23.8354 21.8461 23.8354C21.8461 23.6479 21.8461 23.4604 21.8461 23.2673C21.9399 23.2673 22.0336 23.2673 22.1302 23.2673C22.1302 23.1266 22.1302 22.986 22.1302 22.8411C22.2239 22.8411 22.3177 22.8411 22.4143 22.8411C22.6286 22.6243 22.6286 22.6243 22.8404 22.3528C23.2377 21.8613 23.2377 21.8613 23.5507 21.7048C23.5507 21.611 23.5507 21.5173 23.5507 21.4207C23.6444 21.4207 23.7382 21.4207 23.8347 21.4207C23.8347 21.3269 23.8347 21.2332 23.8347 21.1366C23.9285 21.1366 24.0222 21.1366 24.1188 21.1366C24.1188 21.0428 24.1188 20.9491 24.1188 20.8525C24.2126 20.8525 24.3063 20.8525 24.4029 20.8525C24.4029 20.7587 24.4029 20.665 24.4029 20.5684C24.4967 20.5684 24.5904 20.5684 24.687 20.5684C24.687 20.4747 24.687 20.3809 24.687 20.2843C24.7808 20.2843 24.8745 20.2843 24.9711 20.2843C24.9711 20.1906 24.9711 20.0968 24.9711 20.0002C25.0649 20.0002 25.1586 20.0002 25.2552 20.0002C25.2552 19.9065 25.2552 19.8127 25.2552 19.7161C25.3489 19.7161 25.4427 19.7161 25.5393 19.7161C25.5393 19.6224 25.5393 19.5286 25.5393 19.432C25.633 19.432 25.7268 19.432 25.8234 19.432C25.8234 19.3383 25.8234 19.2445 25.8234 19.1479C25.9171 19.1479 26.0109 19.1479 26.1075 19.1479C26.1075 19.0542 26.1075 18.9604 26.1075 18.8639C26.1888 18.8287 26.2701 18.7935 26.3538 18.7573C26.7254 18.5523 26.9807 18.3124 27.2793 18.0116C27.3797 17.912 27.48 17.8124 27.5834 17.7097C27.8429 17.466 27.8429 17.466 27.812 17.1593C27.9058 17.1593 27.9995 17.1593 28.0961 17.1593C28.0961 17.0656 28.0961 16.9718 28.0961 16.8752C28.1899 16.8752 28.2836 16.8752 28.3802 16.8752C28.3802 16.6408 28.3802 16.4065 28.3802 16.165C28.4739 16.1181 28.5677 16.0712 28.6643 16.0229C28.3909 15.3755 28.1772 15.0367 27.5279 14.7445C26.9522 14.7445 26.701 14.9692 26.2495 15.3127ZM24.687 22.415C24.687 22.5087 24.687 22.6025 24.687 22.6991C24.5933 22.6991 24.4995 22.6991 24.4029 22.6991C24.4029 22.7928 24.4029 22.8866 24.4029 22.9832C24.3092 22.9832 24.2154 22.9832 24.1188 22.9832C23.6635 23.35 23.3041 23.7402 23.2111 24.3282C23.2131 24.6416 23.2285 24.9449 23.2666 25.2559C23.3603 25.2559 23.4541 25.2559 23.5507 25.2559C23.5507 25.3496 23.5507 25.4434 23.5507 25.54C23.6444 25.54 23.7382 25.54 23.8347 25.54C23.8347 25.6337 23.8347 25.7275 23.8347 25.8241C24.5824 25.8953 24.9582 25.7263 25.5393 25.2559C25.5393 25.1621 25.5393 25.0684 25.5393 24.9718C25.633 24.9718 25.7268 24.9718 25.8234 24.9718C25.8234 24.8781 25.8234 24.7843 25.8234 24.6877C25.9113 24.6467 25.9992 24.6057 26.0897 24.5634C26.4105 24.4125 26.4105 24.4125 26.6757 24.1195C26.7101 23.7729 26.7101 23.7729 26.6934 23.3916C26.6908 23.2623 26.6883 23.133 26.6856 22.9998C26.6823 22.9006 26.679 22.8013 26.6757 22.6991C26.5819 22.6991 26.4882 22.6991 26.3916 22.6991C26.3916 22.6053 26.3916 22.5116 26.3916 22.415C26.2041 22.415 26.0166 22.415 25.8234 22.415C25.8234 22.3212 25.8234 22.2275 25.8234 22.1309C25.3683 22.1309 25.0998 22.2365 24.687 22.415ZM26.9597 25.8241C26.9597 25.9178 26.9597 26.0116 26.9597 26.1082C26.7254 26.2019 26.491 26.2957 26.2495 26.3923C26.2495 26.486 26.2495 26.5798 26.2495 26.6764C26.1089 26.6764 25.9683 26.6764 25.8234 26.6764C25.8234 26.7701 25.8234 26.8639 25.8234 26.9604C25.7296 26.9604 25.6359 26.9604 25.5393 26.9604C25.3955 27.5789 25.3508 27.967 25.6813 28.5229C25.9958 28.8158 25.9958 28.8158 26.3916 28.9491C26.9949 28.7824 27.3376 28.4793 27.7676 28.0347C27.8766 27.9235 27.9855 27.8124 28.0978 27.6979C28.6005 27.1438 28.6971 26.846 28.6643 26.1082C28.4768 26.0144 28.2893 25.9207 28.0961 25.8241C28.0961 25.7303 28.0961 25.6366 28.0961 25.54C27.561 25.54 27.3984 25.5734 26.9597 25.8241ZM29.0632 28.6456C28.9521 28.7604 28.8409 28.8752 28.7264 28.9935C28.6149 29.1072 28.5034 29.2209 28.3885 29.338C27.8803 29.8964 27.7789 30.1927 27.812 30.9377C27.9058 30.9377 27.9995 30.9377 28.0961 30.9377C28.1899 31.1252 28.2836 31.3127 28.3802 31.5059C28.7552 31.5059 29.1302 31.5059 29.5166 31.5059C29.5166 31.4121 29.5166 31.3184 29.5166 31.2218C29.6103 31.2218 29.7041 31.2218 29.8007 31.2218C29.8007 31.1281 29.8007 31.0343 29.8007 30.9377C29.8944 30.9377 29.9882 30.9377 30.0847 30.9377C30.0847 30.844 30.0847 30.7502 30.0847 30.6536C30.1785 30.6536 30.2722 30.6536 30.3688 30.6536C30.6667 30.1696 30.7116 29.7968 30.6529 29.2332C30.4859 28.8918 30.4859 28.8918 30.2268 28.665C30.0862 28.665 29.9455 28.665 29.8007 28.665C29.8007 28.5712 29.8007 28.4775 29.8007 28.3809C29.3605 28.3349 29.3605 28.3349 29.0632 28.6456Z" fill="#171717"/>
<path d="M15.0293 1.81824C15.498 1.81824 15.9668 1.81824 16.4498 1.81824C16.7064 2.38281 16.7935 2.91059 16.8759 3.52278C16.9228 3.56966 16.9696 3.61653 17.0179 3.66483C17.0653 3.99627 17.1126 4.32771 17.16 4.65915C17.2069 4.70602 17.2537 4.7529 17.302 4.80119C17.3494 5.13263 17.3967 5.46407 17.4441 5.79551C17.4909 5.84238 17.5378 5.88926 17.5861 5.93756C17.6335 6.26899 17.6808 6.60043 17.7282 6.93187C17.7985 7.00219 17.7985 7.00219 17.8702 7.07392C17.9176 7.40536 17.9649 7.7368 18.0123 8.06824C18.0826 8.13855 18.0826 8.13855 18.1543 8.21028C18.1646 8.49716 18.1662 8.78438 18.1632 9.07143C18.1619 9.22835 18.1606 9.38528 18.1593 9.54695C18.1576 9.66835 18.156 9.78975 18.1543 9.91483C17.6855 9.91483 17.2168 9.91483 16.7338 9.91483C16.7338 9.68045 16.7338 9.44608 16.7338 9.2046C16.6401 9.2046 16.5463 9.2046 16.4498 9.2046C16.4174 8.9133 16.385 8.62199 16.3527 8.33069C16.3334 8.06662 16.3334 8.06662 16.1657 7.92619C16.1598 7.5948 16.1596 7.26326 16.1657 6.93187C16.0719 6.93187 15.9782 6.93187 15.8816 6.93187C15.8816 6.55687 15.8816 6.18187 15.8816 5.79551C15.7878 5.79551 15.6941 5.79551 15.5975 5.79551C15.577 5.63438 15.5565 5.47324 15.5353 5.30723C15.5106 4.8285 15.5106 4.8285 15.3134 4.65915C15.2933 4.2798 15.3074 3.90285 15.3134 3.52278C15.2196 3.52278 15.1259 3.52278 15.0293 3.52278C15.0293 2.96028 15.0293 2.39778 15.0293 1.81824Z" fill="#171717"/>
<path d="M8.92028 9.06262C9.15465 9.06262 9.38903 9.06262 9.6305 9.06262C9.6305 9.15637 9.6305 9.25012 9.6305 9.34671C9.72425 9.34671 9.818 9.34671 9.9146 9.34671C9.9146 9.44046 9.9146 9.53421 9.9146 9.6308C10.0083 9.6308 10.1021 9.6308 10.1987 9.6308C10.1987 9.72455 10.1987 9.8183 10.1987 9.91489C10.2924 9.91489 10.3862 9.91489 10.4828 9.91489C10.4828 10.0086 10.4828 10.1024 10.4828 10.199C10.5765 10.199 10.6703 10.199 10.7669 10.199C10.7669 10.2927 10.7669 10.3865 10.7669 10.4831C10.8606 10.4831 10.9544 10.4831 11.051 10.4831C11.051 10.5768 11.051 10.6706 11.051 10.7672C11.1447 10.7672 11.2385 10.7672 11.335 10.7672C11.335 10.8609 11.335 10.9547 11.335 11.0513C11.4288 11.0513 11.5225 11.0513 11.6191 11.0513C11.6191 11.145 11.6191 11.2388 11.6191 11.3353C11.7129 11.3353 11.8066 11.3353 11.9032 11.3353C11.9032 11.4291 11.9032 11.5228 11.9032 11.6194C11.997 11.6194 12.0907 11.6194 12.1873 11.6194C12.1873 11.7132 12.1873 11.8069 12.1873 11.9035C12.2811 11.9035 12.3748 11.9035 12.4714 11.9035C12.4714 11.9973 12.4714 12.091 12.4714 12.1876C12.5652 12.1876 12.6589 12.1876 12.7555 12.1876C12.7555 12.2814 12.7555 12.3751 12.7555 12.4717C12.8493 12.4717 12.943 12.4717 13.0396 12.4717C13.0396 12.5655 13.0396 12.6592 13.0396 12.7558C13.1333 12.7558 13.2271 12.7558 13.3237 12.7558C13.3237 12.8496 13.3237 12.9433 13.3237 13.0399C13.4174 13.0399 13.5112 13.0399 13.6078 13.0399C13.6078 13.1336 13.6078 13.2274 13.6078 13.324C13.7015 13.324 13.7953 13.324 13.8919 13.324C13.8919 13.4177 13.8919 13.5115 13.8919 13.6081C13.9856 13.6081 14.0794 13.6081 14.176 13.6081C14.176 13.7018 14.176 13.7956 14.176 13.8922C14.2697 13.8922 14.3635 13.8922 14.46 13.8922C14.46 13.9859 14.46 14.0797 14.46 14.1763C14.5538 14.1763 14.6475 14.1763 14.7441 14.1763C14.7441 14.27 14.7441 14.3638 14.7441 14.4603C14.8379 14.4603 14.9316 14.4603 15.0282 14.4603C15.0282 14.8353 15.0282 15.2103 15.0282 15.5967C14.8407 15.5967 14.6532 15.5967 14.46 15.5967C14.46 15.6905 14.46 15.7842 14.46 15.8808C14.3663 15.8808 14.2725 15.8808 14.176 15.8808C14.176 15.7871 14.176 15.6933 14.176 15.5967C13.9885 15.5967 13.801 15.5967 13.6078 15.5967C13.4038 15.4177 13.4038 15.4177 13.1977 15.1523C12.7216 14.5757 12.2152 14.044 11.6874 13.5154C11.6038 13.4317 11.5202 13.3479 11.4341 13.2616C11.2614 13.0889 11.0885 12.9163 10.9155 12.7438C10.6491 12.4782 10.3835 12.2119 10.118 11.9454C9.94867 11.7762 9.77935 11.6071 9.60997 11.438C9.53067 11.3584 9.45136 11.2788 9.36965 11.1968C8.96981 10.7898 8.96981 10.7898 8.49414 10.4831C8.49414 10.1081 8.49414 9.73308 8.49414 9.34671C8.63477 9.34671 8.77539 9.34671 8.92028 9.34671C8.92028 9.25296 8.92028 9.15921 8.92028 9.06262Z" fill="#171717"/>
<path d="M24.5629 4.49939C24.6977 4.50525 24.8324 4.51111 24.9713 4.51715C24.9713 4.6109 24.9713 4.70465 24.9713 4.80124C25.065 4.80124 25.1588 4.80124 25.2554 4.80124C25.2554 7.42624 25.2554 10.0512 25.2554 12.7558C25.1616 12.7558 25.0679 12.7558 24.9713 12.7558C24.9713 12.8495 24.9713 12.9433 24.9713 13.0399C24.6399 13.0459 24.3084 13.0457 23.977 13.0399C23.6716 12.7345 23.7944 12.042 23.785 11.6178C23.7817 11.4871 23.7784 11.3564 23.775 11.2218C23.7682 10.9435 23.7618 10.6651 23.7557 10.3868C23.7463 9.96743 23.7352 9.54818 23.724 9.12891C23.6445 5.90369 23.6445 5.90369 23.8349 4.80124C24.119 4.51715 24.119 4.51715 24.5629 4.49939Z" fill="#171717"/>
<path d="M19.0053 12.1876C19.1928 12.1876 19.3803 12.1876 19.5735 12.1876C19.6438 12.3488 19.7141 12.5099 19.7866 12.6759C19.9748 13.0142 20.0607 13.1548 20.4324 13.2796C20.7811 13.3242 20.7811 13.3242 21.2781 13.324C21.2781 13.5115 21.2781 13.699 21.2781 13.8922C21.1843 13.8922 21.0906 13.8922 20.994 13.8922C20.994 13.9859 20.994 14.0797 20.994 14.1763C20.8533 14.27 20.7127 14.3638 20.5678 14.4603C20.6147 14.9291 20.6616 15.3978 20.7099 15.8808C20.4286 15.8808 20.1474 15.8808 19.8576 15.8808C19.8576 15.7871 19.8576 15.6933 19.8576 15.5967C19.717 15.5967 19.5763 15.5967 19.4315 15.5967C19.4315 15.503 19.4315 15.4092 19.4315 15.3126C19.3377 15.3126 19.244 15.3126 19.1474 15.3126C19.1474 15.4064 19.1474 15.5001 19.1474 15.5967C19.0067 15.5967 18.8661 15.5967 18.7212 15.5967C18.7212 15.6905 18.7212 15.7842 18.7212 15.8808C18.44 15.8808 18.1587 15.8808 17.869 15.8808C17.869 15.5996 17.869 15.3183 17.869 15.0285C17.9627 15.0285 18.0565 15.0285 18.1531 15.0285C18.1531 14.841 18.1531 14.6535 18.1531 14.4603C18.0593 14.4603 17.9656 14.4603 17.869 14.4603C17.869 14.3666 17.869 14.2728 17.869 14.1763C17.7752 14.1763 17.6815 14.1763 17.5849 14.1763C17.5849 14.0825 17.5849 13.9888 17.5849 13.8922C17.4911 13.8922 17.3974 13.8922 17.3008 13.8922C17.3008 13.7047 17.3008 13.5172 17.3008 13.324C17.6758 13.2771 18.0508 13.2302 18.4371 13.1819C18.5309 12.9476 18.6246 12.7132 18.7212 12.4717C18.815 12.4717 18.9087 12.4717 19.0053 12.4717C19.0053 12.378 19.0053 12.2842 19.0053 12.1876Z" fill="#171717"/>
<path d="M12.4102 5.36047C12.5815 5.36487 12.5815 5.36487 12.7564 5.36935C12.8033 5.55685 12.8501 5.74435 12.8984 5.93753C13.0039 5.88773 13.1094 5.83792 13.218 5.78661C13.6087 5.65344 13.6087 5.65344 14.1768 5.79549C14.0831 6.26424 13.9893 6.73299 13.8928 7.21594C13.9865 7.21594 14.0803 7.21594 14.1768 7.21594C14.1768 7.45032 14.1768 7.68469 14.1768 7.92617C13.9088 7.91299 13.9088 7.91299 13.6353 7.89954C13.1584 7.8926 13.1584 7.8926 12.7564 8.13924C12.7095 8.20955 12.6626 8.27986 12.6143 8.35231C12.4737 8.30543 12.3331 8.25856 12.1882 8.21026C12.1413 7.92901 12.0945 7.64776 12.0462 7.35799C11.8118 7.35799 11.5774 7.35799 11.3359 7.35799C11.3359 7.07674 11.3359 6.79549 11.3359 6.50572C11.5234 6.50572 11.7109 6.50572 11.9041 6.50572C11.9012 6.34458 11.8983 6.18345 11.8952 6.01743C11.9066 5.37276 11.9066 5.37276 12.4102 5.36047Z" fill="#171717"/>
<path d="M20.0004 4.6593C20.1322 4.68274 20.264 4.70618 20.3999 4.73032C20.9759 4.82069 21.4239 4.78148 21.989 4.6593C22.0885 5.10722 22.131 5.47283 22.131 5.93771C22.2248 5.98459 22.3185 6.03146 22.4151 6.07976C22.4151 6.31413 22.4151 6.54851 22.4151 6.78998C22.2569 6.82514 22.0987 6.8603 21.9357 6.89652C21.4143 7.01868 21.4143 7.01868 21.2166 7.37592C21.1903 7.46381 21.1639 7.5517 21.1367 7.64226C20.8526 7.64226 20.8526 7.64226 20.6218 7.45582C20.4265 7.21612 20.4265 7.21612 20.4265 6.78998C20.1452 6.78998 19.864 6.78998 19.5742 6.78998C19.5742 6.50873 19.5742 6.22748 19.5742 5.93771C19.668 5.93771 19.7617 5.93771 19.8583 5.93771C19.8583 5.84396 19.8583 5.75021 19.8583 5.65362C19.9521 5.65362 20.0458 5.65362 20.1424 5.65362C20.1424 5.51299 20.1424 5.37237 20.1424 5.22748C20.0487 5.22748 19.9549 5.22748 19.8583 5.22748C19.9052 5.03998 19.9521 4.85248 20.0004 4.6593Z" fill="#171717"/>
<path d="M13.0391 5.36951C13.1328 5.46326 13.2266 5.55701 13.3232 5.6536C13.2294 5.6536 13.1357 5.6536 13.0391 5.6536C13.0391 5.55985 13.0391 5.4661 13.0391 5.36951Z" fill="#171717"/>
<path d="M27.8125 35.7672C28.0966 35.9093 28.0966 35.9093 28.0966 35.9093L27.8125 35.7672Z" fill="#171717"/>
<path d="M28.9492 34.6307C29.2333 34.7728 29.2333 34.7728 29.2333 34.7728L28.9492 34.6307Z" fill="#171717"/>
<path d="M29.2324 34.3468C29.5165 34.4888 29.5165 34.4888 29.5165 34.4888L29.2324 34.3468Z" fill="#171717"/>
<path d="M19.2891 34.3468C19.5732 34.4888 19.5732 34.4888 19.5732 34.4888L19.2891 34.3468Z" fill="#171717"/>
<path d="M29.5176 34.0626C29.8017 34.2047 29.8017 34.2047 29.8017 34.2047L29.5176 34.0626Z" fill="#171717"/>
<path d="M15.5957 33.9205C15.8798 34.0626 15.8798 34.0626 15.8798 34.0626L15.5957 33.9205Z" fill="#171717"/>
<path d="M17.0176 33.3524C17.3017 33.4945 17.3017 33.4945 17.3017 33.4945L17.0176 33.3524Z" fill="#171717"/>
<path d="M17.8691 32.5001C18.1532 32.6422 18.1532 32.6422 18.1532 32.6422L17.8691 32.5001Z" fill="#171717"/>
<path d="M31.5059 31.7899C31.79 31.932 31.79 31.932 31.79 31.932L31.5059 31.7899Z" fill="#171717"/>
<path d="M31.7891 31.5057C32.0732 31.6478 32.0732 31.6478 32.0732 31.6478L31.7891 31.5057Z" fill="#171717"/>
<path d="M27.8125 27.1024C28.0966 27.2445 28.0966 27.2445 28.0966 27.2445L27.8125 27.1024Z" fill="#171717"/>
<path d="M26.3926 26.6761C26.6767 26.8182 26.6767 26.8182 26.6767 26.8182L26.3926 26.6761Z" fill="#171717"/>
<path d="M24.1191 25.3978C24.4032 25.5399 24.4032 25.5399 24.4032 25.5399L24.1191 25.3978Z" fill="#171717"/>
<path d="M21.8457 22.557C22.1298 22.6991 22.1298 22.6991 22.1298 22.6991L21.8457 22.557Z" fill="#171717"/>
<path d="M19.2891 22.4149C19.5732 22.557 19.5732 22.557 19.5732 22.557L19.2891 22.4149Z" fill="#171717"/>
<path d="M22.1309 22.2728C22.415 22.4149 22.415 22.4149 22.415 22.4149L22.1309 22.2728Z" fill="#171717"/>
<path d="M22.4141 21.9886C22.6982 22.1307 22.6982 22.1307 22.6982 22.1307L22.4141 21.9886Z" fill="#171717"/>
<path d="M22.6992 21.7047C22.9833 21.8468 22.9833 21.8468 22.9833 21.8468L22.6992 21.7047Z" fill="#171717"/>
<path d="M22.9824 21.4205C23.2665 21.5626 23.2665 21.5626 23.2665 21.5626L22.9824 21.4205Z" fill="#171717"/>
<path d="M23.2676 21.1366C23.5517 21.2786 23.5517 21.2786 23.5517 21.2786L23.2676 21.1366Z" fill="#171717"/>
<path d="M17.3008 21.1366C17.5849 21.2786 17.5849 21.2786 17.5849 21.2786L17.3008 21.1366Z" fill="#171717"/>
<path d="M23.5508 20.8524C23.8349 20.9945 23.8349 20.9945 23.8349 20.9945L23.5508 20.8524Z" fill="#171717"/>
<path d="M23.8359 20.5682C24.12 20.7103 24.12 20.7103 24.12 20.7103L23.8359 20.5682Z" fill="#171717"/>
<path d="M24.1191 20.2842C24.4032 20.4262 24.4032 20.4262 24.4032 20.4262L24.1191 20.2842Z" fill="#171717"/>
<path d="M24.4043 20.0001C24.6884 20.1422 24.6884 20.1422 24.6884 20.1422L24.4043 20.0001Z" fill="#171717"/>
<path d="M22.1309 19.858C22.415 20.0001 22.415 20.0001 22.415 20.0001L22.1309 19.858Z" fill="#171717"/>
<path d="M24.6875 19.7161C24.9716 19.8581 24.9716 19.8581 24.9716 19.8581L24.6875 19.7161Z" fill="#171717"/>
<path d="M22.4141 19.5741C22.6982 19.7161 22.6982 19.7161 22.6982 19.7161L22.4141 19.5741Z" fill="#171717"/>
<path d="M24.9707 19.432C25.2548 19.5741 25.2548 19.5741 25.2548 19.5741L24.9707 19.432Z" fill="#171717"/>
<path d="M22.6992 19.2899C22.9833 19.432 22.9833 19.432 22.9833 19.432L22.6992 19.2899Z" fill="#171717"/>
<path d="M25.2559 19.1478C25.54 19.2899 25.54 19.2899 25.54 19.2899L25.2559 19.1478Z" fill="#171717"/>
<path d="M22.9824 19.0057C23.2665 19.1478 23.2665 19.1478 23.2665 19.1478L22.9824 19.0057Z" fill="#171717"/>
<path d="M25.5391 18.8636C25.8232 19.0057 25.8232 19.0057 25.8232 19.0057L25.5391 18.8636Z" fill="#171717"/>
<path d="M8.21094 18.8636C8.49503 19.0057 8.49503 19.0057 8.49503 19.0057L8.21094 18.8636Z" fill="#171717"/>
<path d="M23.2676 18.7218C23.5517 18.8638 23.5517 18.8638 23.5517 18.8638L23.2676 18.7218Z" fill="#171717"/>
<path d="M25.8242 18.5797C26.1083 18.7218 26.1083 18.7218 26.1083 18.7218L25.8242 18.5797Z" fill="#171717"/>
<path d="M8.49414 18.5797C8.77823 18.7218 8.77823 18.7218 8.77823 18.7218L8.49414 18.5797Z" fill="#171717"/>
<path d="M26.1074 18.2955C26.3915 18.4376 26.3915 18.4376 26.3915 18.4376L26.1074 18.2955Z" fill="#171717"/>
<path d="M23.8359 18.1534C24.12 18.2955 24.12 18.2955 24.12 18.2955L23.8359 18.1534Z" fill="#171717"/>
<path d="M26.3926 18.0116C26.6767 18.1536 26.6767 18.1536 26.6767 18.1536L26.3926 18.0116Z" fill="#171717"/>
<path d="M24.1191 17.8694C24.4032 18.0114 24.4032 18.0114 24.4032 18.0114L24.1191 17.8694Z" fill="#171717"/>
<path d="M26.6758 17.7274C26.9599 17.8695 26.9599 17.8695 26.9599 17.8695L26.6758 17.7274Z" fill="#171717"/>
<path d="M24.4043 17.5853C24.6884 17.7274 24.6884 17.7274 24.6884 17.7274L24.4043 17.5853Z" fill="#171717"/>
<path d="M26.9609 17.4432C27.245 17.5853 27.245 17.5853 27.245 17.5853L26.9609 17.4432Z" fill="#171717"/>
<path d="M24.6875 17.3013C24.9716 17.4433 24.9716 17.4433 24.9716 17.4433L24.6875 17.3013Z" fill="#171717"/>
<path d="M27.2441 17.1592C27.5282 17.3012 27.5282 17.3012 27.5282 17.3012L27.2441 17.1592Z" fill="#171717"/>
<path d="M24.9707 17.0172C25.2548 17.1593 25.2548 17.1593 25.2548 17.1593L24.9707 17.0172Z" fill="#171717"/>
<path d="M27.5293 16.8751C27.8134 17.0172 27.8134 17.0172 27.8134 17.0172L27.5293 16.8751Z" fill="#171717"/>
<path d="M25.2559 16.733C25.54 16.8751 25.54 16.8751 25.54 16.8751L25.2559 16.733Z" fill="#171717"/>
<path d="M27.8125 16.5911C28.0966 16.7331 28.0966 16.7331 28.0966 16.7331L27.8125 16.5911Z" fill="#171717"/>
<path d="M25.5391 16.4491C25.8232 16.5911 25.8232 16.5911 25.8232 16.5911L25.5391 16.4491Z" fill="#171717"/>
<path d="M25.8242 16.1649C26.1083 16.307 26.1083 16.307 26.1083 16.307L25.8242 16.1649Z" fill="#171717"/>
<path d="M26.1074 15.8807C26.3915 16.0228 26.3915 16.0228 26.3915 16.0228L26.1074 15.8807Z" fill="#171717"/>
<path d="M15.0293 15.5968C15.3134 15.7388 15.3134 15.7388 15.3134 15.7388L15.0293 15.5968Z" fill="#171717"/>
<path d="M24.9707 13.7501C25.2548 13.8922 25.2548 13.8922 25.2548 13.8922L24.9707 13.7501Z" fill="#171717"/>
<path d="M17.0176 13.182C17.3017 13.3241 17.3017 13.3241 17.3017 13.3241L17.0176 13.182Z" fill="#171717"/>
<path d="M8.21094 9.20471C8.49503 9.34676 8.49503 9.34676 8.49503 9.34676L8.21094 9.20471Z" fill="#171717"/>
<path d="M22.4141 6.78992C22.6982 6.93196 22.6982 6.93196 22.6982 6.93196L22.4141 6.78992Z" fill="#171717"/>
<path d="M11.0508 6.36365C11.3349 6.50569 11.3349 6.50569 11.3349 6.50569L11.0508 6.36365Z" fill="#171717"/>
</g>
<defs>
<clipPath id="clip0_1_1877">
<rect width="36.3636" height="36.3636" fill="white" transform="translate(1.81836 1.81824)"/>
</clipPath>
</defs>
</svg>
