<svg width="20" height="20" viewBox="0 0 20 20" fill="none" xmlns="http://www.w3.org/2000/svg">
<mask id="path-1-inside-1_451_1985" fill="white">
<path d="M14.1667 5.00033H18.3334V6.66699H16.6667V17.5003C16.6667 17.7213 16.579 17.9333 16.4227 18.0896C16.2664 18.2459 16.0544 18.3337 15.8334 18.3337H4.16675C3.94573 18.3337 3.73377 18.2459 3.57749 18.0896C3.42121 17.9333 3.33341 17.7213 3.33341 17.5003V6.66699H1.66675V5.00033H5.83342V2.50033C5.83342 2.27931 5.92121 2.06735 6.07749 1.91107C6.23377 1.75479 6.44573 1.66699 6.66675 1.66699H13.3334C13.5544 1.66699 13.7664 1.75479 13.9227 1.91107C14.079 2.06735 14.1667 2.27931 14.1667 2.50033V5.00033ZM15.0001 6.66699H5.00008V16.667H15.0001V6.66699ZM7.50008 9.16699H9.16675V14.167H7.50008V9.16699ZM10.8334 9.16699H12.5001V14.167H10.8334V9.16699ZM7.50008 3.33366V5.00033H12.5001V3.33366H7.50008Z"/>
</mask>
<path d="M14.1667 5.00033H18.3334V6.66699H16.6667V17.5003C16.6667 17.7213 16.579 17.9333 16.4227 18.0896C16.2664 18.2459 16.0544 18.3337 15.8334 18.3337H4.16675C3.94573 18.3337 3.73377 18.2459 3.57749 18.0896C3.42121 17.9333 3.33341 17.7213 3.33341 17.5003V6.66699H1.66675V5.00033H5.83342V2.50033C5.83342 2.27931 5.92121 2.06735 6.07749 1.91107C6.23377 1.75479 6.44573 1.66699 6.66675 1.66699H13.3334C13.5544 1.66699 13.7664 1.75479 13.9227 1.91107C14.079 2.06735 14.1667 2.27931 14.1667 2.50033V5.00033ZM15.0001 6.66699H5.00008V16.667H15.0001V6.66699ZM7.50008 9.16699H9.16675V14.167H7.50008V9.16699ZM10.8334 9.16699H12.5001V14.167H10.8334V9.16699ZM7.50008 3.33366V5.00033H12.5001V3.33366H7.50008Z" fill="#52525B"/>
<path d="M14.1667 5.00033H12.5001V6.66699H14.1667V5.00033ZM18.3334 5.00033H20.0001V3.33366H18.3334V5.00033ZM18.3334 6.66699V8.33366H20.0001V6.66699H18.3334ZM16.6667 6.66699V5.00033H15.0001V6.66699H16.6667ZM3.33341 6.66699H5.00008V5.00033H3.33341V6.66699ZM1.66675 6.66699H8.14199e-05V8.33366H1.66675V6.66699ZM1.66675 5.00033V3.33366H8.14199e-05V5.00033H1.66675ZM5.83342 5.00033V6.66699H7.50008V5.00033H5.83342ZM6.66675 1.66699V0.000325561V1.66699ZM13.3334 1.66699V0.000325561V1.66699ZM15.0001 6.66699H16.6667V5.00033H15.0001V6.66699ZM5.00008 6.66699V5.00033H3.33341V6.66699H5.00008ZM5.00008 16.667H3.33341V18.3337H5.00008V16.667ZM15.0001 16.667V18.3337H16.6667V16.667H15.0001ZM7.50008 9.16699V7.50033H5.83342V9.16699H7.50008ZM9.16675 9.16699H10.8334V7.50033H9.16675V9.16699ZM9.16675 14.167V15.8337H10.8334V14.167H9.16675ZM7.50008 14.167H5.83342V15.8337H7.50008V14.167ZM10.8334 9.16699V7.50033H9.16675V9.16699H10.8334ZM12.5001 9.16699H14.1667V7.50033H12.5001V9.16699ZM12.5001 14.167V15.8337H14.1667V14.167H12.5001ZM10.8334 14.167H9.16675V15.8337H10.8334V14.167ZM7.50008 3.33366V1.66699H5.83342V3.33366H7.50008ZM7.50008 5.00033H5.83342V6.66699H7.50008V5.00033ZM12.5001 5.00033V6.66699H14.1667V5.00033H12.5001ZM12.5001 3.33366H14.1667V1.66699H12.5001V3.33366ZM14.1667 6.66699H18.3334V3.33366H14.1667V6.66699ZM16.6667 5.00033V6.66699H20.0001V5.00033H16.6667ZM18.3334 5.00033H16.6667V8.33366H18.3334V5.00033ZM15.0001 6.66699V17.5003H18.3334V6.66699H15.0001ZM15.0001 17.5003C15.0001 17.2793 15.0879 17.0674 15.2442 16.9111L17.6012 19.2681C18.07 18.7992 18.3334 18.1634 18.3334 17.5003H15.0001ZM15.2442 16.9111C15.4004 16.7548 15.6124 16.667 15.8334 16.667V20.0003C16.4965 20.0003 17.1323 19.7369 17.6012 19.2681L15.2442 16.9111ZM15.8334 16.667H4.16675V20.0003H15.8334V16.667ZM4.16675 16.667C4.38776 16.667 4.59972 16.7548 4.756 16.9111L2.39898 19.2681C2.86782 19.7369 3.50371 20.0003 4.16675 20.0003V16.667ZM4.756 16.9111C4.91228 17.0674 5.00008 17.2793 5.00008 17.5003H1.66675C1.66675 18.1634 1.93014 18.7993 2.39898 19.2681L4.756 16.9111ZM5.00008 17.5003V6.66699H1.66675V17.5003H5.00008ZM3.33341 5.00033H1.66675V8.33366H3.33341V5.00033ZM3.33341 6.66699V5.00033H8.14199e-05V6.66699H3.33341ZM1.66675 6.66699H5.83342V3.33366H1.66675V6.66699ZM7.50008 5.00033V2.50033H4.16675V5.00033H7.50008ZM7.50008 2.50033C7.50008 2.72134 7.41228 2.9333 7.256 3.08958L4.89898 0.732559C4.43014 1.2014 4.16675 1.83728 4.16675 2.50033H7.50008ZM7.256 3.08958C7.09972 3.24586 6.88776 3.33366 6.66675 3.33366L6.66675 0.000325561C6.00371 0.000325561 5.36782 0.263718 4.89898 0.732559L7.256 3.08958ZM6.66675 3.33366H13.3334V0.000325561H6.66675V3.33366ZM13.3334 3.33366C13.1124 3.33366 12.9004 3.24586 12.7442 3.08958L15.1012 0.732559C14.6323 0.263717 13.9965 0.000325561 13.3334 0.000325561V3.33366ZM12.7442 3.08958C12.5879 2.9333 12.5001 2.72134 12.5001 2.50033H15.8334C15.8334 1.83729 15.57 1.2014 15.1012 0.732559L12.7442 3.08958ZM12.5001 2.50033V5.00033H15.8334V2.50033H12.5001ZM15.0001 5.00033H5.00008V8.33366H15.0001V5.00033ZM3.33341 6.66699V16.667H6.66675V6.66699H3.33341ZM5.00008 18.3337H15.0001V15.0003H5.00008V18.3337ZM16.6667 16.667V6.66699H13.3334V16.667H16.6667ZM7.50008 10.8337H9.16675V7.50033H7.50008V10.8337ZM7.50008 9.16699V14.167H10.8334V9.16699H7.50008ZM9.16675 12.5003H7.50008V15.8337H9.16675V12.5003ZM9.16675 14.167V9.16699H5.83342V14.167H9.16675ZM10.8334 10.8337H12.5001V7.50033H10.8334V10.8337ZM10.8334 9.16699V14.167H14.1667V9.16699H10.8334ZM12.5001 12.5003H10.8334V15.8337H12.5001V12.5003ZM12.5001 14.167V9.16699H9.16675V14.167H12.5001ZM5.83342 3.33366V5.00033H9.16675V3.33366H5.83342ZM7.50008 6.66699H12.5001V3.33366H7.50008V6.66699ZM14.1667 5.00033V3.33366H10.8334V5.00033H14.1667ZM12.5001 1.66699H7.50008V5.00033H12.5001V1.66699Z" fill="#667085" mask="url(#path-1-inside-1_451_1985)"/>
</svg>
