<svg width="16" height="16" viewBox="0 0 16 16" fill="none" xmlns="http://www.w3.org/2000/svg">
<path d="M7.86164 9.82798L6.16797 8.13712C5.62282 7.59287 5.62282 6.71048 6.16797 6.16623C6.65516 5.67985 6.71403 4.91134 6.30658 4.35665L4.9159 2.46343C4.50421 1.90296 3.68898 1.84072 3.19671 2.33217C2.44724 3.08039 1.94543 4.07059 2.00475 5.12706C2.29456 10.2884 6.33224 13.7386 10.8984 13.9953C11.9455 14.0542 12.9207 13.5486 13.6623 12.8082C14.1619 12.3094 14.0986 11.4834 13.5289 11.0663L11.6484 9.68959C11.0928 9.28282 10.323 9.34159 9.83581 9.82798C9.29066 10.3722 8.4068 10.3722 7.86164 9.82798Z" stroke="#808897" stroke-linecap="round" stroke-linejoin="round"/>
</svg>
