<svg width="24" height="24" viewBox="0 0 24 24" fill="none" xmlns="http://www.w3.org/2000/svg">
<path fill-rule="evenodd" clip-rule="evenodd" d="M8.10357 6.78525C8.41112 5.75187 9.36915 5 10.5002 5C11.3489 5 12.0992 5.42198 12.5526 6.0721C12.8686 6.52507 13.492 6.63615 13.9449 6.32019C14.3979 6.00422 14.509 5.38088 14.193 4.9279C13.3815 3.76453 12.0302 3 10.5002 3C8.46018 3 6.73966 4.35664 6.18666 6.21475C6.02912 6.74409 6.33053 7.30091 6.85986 7.45845C7.3892 7.61599 7.94603 7.31459 8.10357 6.78525ZM4.55483 6.83203C5.01435 6.52566 5.1385 5.90479 4.83213 5.44527C4.52577 4.98575 3.90489 4.8616 3.44537 5.16797C2.32539 5.91468 1.82974 7.33257 2.05356 8.5916C2.21894 9.52193 2.76637 10.3535 3.67569 10.8573C3.2453 11.6416 3.00012 12.5426 3.00012 13.5C3.00012 15.6386 4.22023 17.4901 6.00012 18.4V20C6.00012 20.5523 6.44784 21 7.00012 21H10.5001C11.0524 21 11.5001 20.5523 11.5001 20V19H12.0001V20C12.0001 20.5523 12.4478 21 13.0001 21H16.5001C17.0524 21 17.5001 20.5523 17.5001 20V18.6248C18.554 18.2133 19.4484 17.4871 20.0692 16.5624C21.1418 16.526 22.0001 15.6451 22.0001 14.5636V12.4364C22.0001 11.355 21.1418 10.474 20.0692 10.4376C19.6559 9.82198 19.1217 9.29473 18.5001 8.8896V6.5C18.5001 5.94772 18.0524 5.5 17.5001 5.5C15.6516 5.5 14.444 6.65013 13.4754 8H8.50012C7.17163 8 5.95197 8.47201 5.00179 9.25585C4.34178 9.06126 4.09266 8.63519 4.02269 8.24155C3.92063 7.66743 4.17493 7.08532 4.55483 6.83203ZM14.8322 9.5547C15.4454 8.63493 15.9642 8.06112 16.5001 7.76081V9.46776C16.5001 9.84741 16.7151 10.1943 17.0551 10.3633C17.7224 10.6949 18.2698 11.2341 18.6118 11.8956C18.7835 12.2278 19.1262 12.4364 19.5001 12.4364H20.0001V14.5636H19.5001C19.1262 14.5636 18.7835 14.7722 18.6118 15.1044C18.144 16.0093 17.2935 16.683 16.2788 16.9133C15.8234 17.0166 15.5001 17.4215 15.5001 17.8885V19H14.0001V18.5C14.0001 17.6716 13.3285 17 12.5001 17H11.0001C10.1717 17 9.50012 17.6716 9.50012 18.5V19H8.00012V17.7439C8.00012 17.3201 7.73296 16.9423 7.33337 16.8011C5.97263 16.3201 5.00012 15.0224 5.00012 13.5C5.00012 12.539 5.38614 11.67 6.01393 11.0365C6.6493 10.3953 7.52762 10 8.50012 10H14.0001C14.3345 10 14.6467 9.8329 14.8322 9.5547ZM16.0002 13C16.5525 13 17.0002 12.5523 17.0002 12C17.0002 11.4477 16.5525 11 16.0002 11C15.4479 11 15.0002 11.4477 15.0002 12C15.0002 12.5523 15.4479 13 16.0002 13Z" fill="#808897"/>
</svg>
