<svg width="1104" height="245" viewBox="0 0 1104 245" fill="none" xmlns="http://www.w3.org/2000/svg">
<path d="M24.4502 22.8564C23.8441 22.8564 23.2812 22.7471 22.7617 22.5283C22.2422 22.3096 21.8206 21.9951 21.4971 21.585C21.1781 21.1748 21.0072 20.6826 20.9844 20.1084V20.1016L22.1738 20.0947V20.1084C22.2194 20.4229 22.3265 20.7077 22.4951 20.9629C22.6637 21.2181 22.9076 21.4209 23.2266 21.5713C23.5501 21.7171 23.9626 21.79 24.4639 21.79C24.9788 21.79 25.3913 21.7217 25.7012 21.585C26.0156 21.4437 26.2435 21.2568 26.3848 21.0244C26.526 20.7874 26.5967 20.5277 26.5967 20.2451V20.2314C26.5967 19.8577 26.4782 19.5479 26.2412 19.3018C26.0088 19.0511 25.5531 18.8438 24.874 18.6797L23.8555 18.4336C23.2904 18.2969 22.8118 18.1191 22.4199 17.9004C22.0326 17.6771 21.7386 17.4036 21.5381 17.0801C21.3376 16.7565 21.2373 16.3714 21.2373 15.9248V15.9111C21.2373 15.3779 21.3763 14.9154 21.6543 14.5234C21.9368 14.127 22.3197 13.8216 22.8027 13.6074C23.2858 13.3887 23.835 13.2793 24.4502 13.2793C25.0381 13.2793 25.5713 13.391 26.0498 13.6143C26.5329 13.8376 26.9225 14.152 27.2188 14.5576C27.515 14.9587 27.6722 15.4303 27.6904 15.9727V15.9795L26.501 15.9863V15.9727C26.4691 15.6263 26.3597 15.3324 26.1729 15.0908C25.9906 14.8493 25.7513 14.6647 25.4551 14.5371C25.1589 14.4095 24.8239 14.3457 24.4502 14.3457C24.0081 14.3457 23.6367 14.4186 23.3359 14.5645C23.0352 14.7057 22.8073 14.8903 22.6523 15.1182C22.502 15.3415 22.4268 15.5785 22.4268 15.8291V15.8428C22.4268 16.0615 22.4769 16.2643 22.5771 16.4512C22.682 16.638 22.8506 16.8044 23.083 16.9502C23.3154 17.096 23.6299 17.2168 24.0264 17.3125L25.0449 17.5586C25.9245 17.7682 26.6012 18.0713 27.0752 18.4678C27.5492 18.8643 27.7861 19.4202 27.7861 20.1357V20.1494C27.7861 20.7373 27.6312 21.234 27.3213 21.6396C27.0114 22.0407 26.6035 22.3438 26.0977 22.5488C25.5918 22.7539 25.0426 22.8564 24.4502 22.8564ZM24.0127 23.9912V12.1445H24.833V23.9912H24.0127ZM29.6389 23V22.1523L32.9749 18.543C33.3942 18.0872 33.7223 17.7113 33.9593 17.415C34.1962 17.1143 34.3626 16.8431 34.4583 16.6016C34.554 16.36 34.6018 16.0957 34.6018 15.8086V15.7949C34.6018 15.4486 34.5266 15.1387 34.3763 14.8652C34.2259 14.5918 34.0117 14.3753 33.7337 14.2158C33.4557 14.0563 33.123 13.9766 32.7356 13.9766C32.3437 13.9766 31.9996 14.0586 31.7034 14.2227C31.4072 14.3822 31.177 14.6077 31.013 14.8994C30.8489 15.1865 30.7669 15.5238 30.7669 15.9111L30.76 15.9248L29.5843 15.918L29.5706 15.9111C29.5751 15.3278 29.7164 14.8105 29.9944 14.3594C30.2724 13.9036 30.6552 13.5482 31.1429 13.293C31.6305 13.0332 32.1888 12.9033 32.8177 12.9033C33.3919 12.9033 33.9091 13.0241 34.3694 13.2656C34.8297 13.5026 35.192 13.8285 35.4563 14.2432C35.7252 14.6579 35.8596 15.1318 35.8596 15.665V15.6787C35.8596 16.0524 35.7936 16.4124 35.6614 16.7588C35.5338 17.1051 35.3059 17.4902 34.9778 17.9141C34.6497 18.3333 34.1871 18.8506 33.5901 19.4658L31.0403 22.0977L31.3479 21.5303V22.0977L31.0471 21.8926H36.0237V23H29.6389ZM41.0484 23.2324C40.4377 23.2324 39.8931 23.1117 39.4146 22.8701C38.9361 22.6286 38.551 22.3005 38.2593 21.8857C37.9722 21.4665 37.8036 20.9948 37.7535 20.4707L37.7466 20.3955H38.9293L38.9361 20.4502C38.9771 20.7646 39.091 21.0518 39.2779 21.3115C39.4693 21.5667 39.7177 21.7695 40.023 21.9199C40.3329 22.0703 40.6793 22.1455 41.0621 22.1455C41.4996 22.1455 41.8847 22.0498 42.2173 21.8584C42.55 21.6624 42.8098 21.3936 42.9966 21.0518C43.1835 20.71 43.2769 20.318 43.2769 19.876V19.8623C43.2769 19.4248 43.1812 19.0374 42.9898 18.7002C42.803 18.3584 42.5455 18.0918 42.2173 17.9004C41.8892 17.709 41.511 17.6133 41.0826 17.6133C40.7545 17.6133 40.4514 17.6634 40.1734 17.7637C39.9 17.8639 39.6561 18.0143 39.442 18.2148C39.3554 18.2969 39.2733 18.3857 39.1959 18.4814C39.1229 18.5771 39.0546 18.6842 38.9908 18.8027H37.9244L38.4439 13.1357H43.9332V14.2363H39.4146L39.0796 17.5723H39.189C39.3349 17.349 39.5149 17.1621 39.7291 17.0117C39.9433 16.8613 40.1825 16.7474 40.4468 16.6699C40.7157 16.5879 40.9983 16.5469 41.2945 16.5469C41.9143 16.5469 42.4634 16.6904 42.942 16.9775C43.4205 17.2601 43.7964 17.6497 44.0699 18.1465C44.3433 18.6387 44.48 19.2038 44.48 19.8418V19.8555C44.48 20.5163 44.3319 21.1019 44.0357 21.6123C43.744 22.1182 43.3407 22.5146 42.8257 22.8018C42.3108 23.0889 41.7183 23.2324 41.0484 23.2324ZM47.4334 19.7051L47.3651 17.9277H47.6795L51.9998 13.1357H53.5448L49.4637 17.5449L48.8895 18.0986L47.4334 19.7051ZM46.3397 23V13.1357H47.5702V23H46.3397ZM52.3143 23L48.6297 18.085L49.4774 17.2305L53.9071 23H52.3143Z" fill="#666D80"/>
<path d="M24.4502 75.8564C23.8441 75.8564 23.2812 75.7471 22.7617 75.5283C22.2422 75.3096 21.8206 74.9951 21.4971 74.585C21.1781 74.1748 21.0072 73.6826 20.9844 73.1084V73.1016L22.1738 73.0947V73.1084C22.2194 73.4229 22.3265 73.7077 22.4951 73.9629C22.6637 74.2181 22.9076 74.4209 23.2266 74.5713C23.5501 74.7171 23.9626 74.79 24.4639 74.79C24.9788 74.79 25.3913 74.7217 25.7012 74.585C26.0156 74.4437 26.2435 74.2568 26.3848 74.0244C26.526 73.7874 26.5967 73.5277 26.5967 73.2451V73.2314C26.5967 72.8577 26.4782 72.5479 26.2412 72.3018C26.0088 72.0511 25.5531 71.8438 24.874 71.6797L23.8555 71.4336C23.2904 71.2969 22.8118 71.1191 22.4199 70.9004C22.0326 70.6771 21.7386 70.4036 21.5381 70.0801C21.3376 69.7565 21.2373 69.3714 21.2373 68.9248V68.9111C21.2373 68.3779 21.3763 67.9154 21.6543 67.5234C21.9368 67.127 22.3197 66.8216 22.8027 66.6074C23.2858 66.3887 23.835 66.2793 24.4502 66.2793C25.0381 66.2793 25.5713 66.391 26.0498 66.6143C26.5329 66.8376 26.9225 67.152 27.2188 67.5576C27.515 67.9587 27.6722 68.4303 27.6904 68.9727V68.9795L26.501 68.9863V68.9727C26.4691 68.6263 26.3597 68.3324 26.1729 68.0908C25.9906 67.8493 25.7513 67.6647 25.4551 67.5371C25.1589 67.4095 24.8239 67.3457 24.4502 67.3457C24.0081 67.3457 23.6367 67.4186 23.3359 67.5645C23.0352 67.7057 22.8073 67.8903 22.6523 68.1182C22.502 68.3415 22.4268 68.5785 22.4268 68.8291V68.8428C22.4268 69.0615 22.4769 69.2643 22.5771 69.4512C22.682 69.638 22.8506 69.8044 23.083 69.9502C23.3154 70.096 23.6299 70.2168 24.0264 70.3125L25.0449 70.5586C25.9245 70.7682 26.6012 71.0713 27.0752 71.4678C27.5492 71.8643 27.7861 72.4202 27.7861 73.1357V73.1494C27.7861 73.7373 27.6312 74.234 27.3213 74.6396C27.0114 75.0407 26.6035 75.3438 26.0977 75.5488C25.5918 75.7539 25.0426 75.8564 24.4502 75.8564ZM24.0127 76.9912V65.1445H24.833V76.9912H24.0127ZM29.6389 76V75.1523L32.9749 71.543C33.3942 71.0872 33.7223 70.7113 33.9593 70.415C34.1962 70.1143 34.3626 69.8431 34.4583 69.6016C34.554 69.36 34.6018 69.0957 34.6018 68.8086V68.7949C34.6018 68.4486 34.5266 68.1387 34.3763 67.8652C34.2259 67.5918 34.0117 67.3753 33.7337 67.2158C33.4557 67.0563 33.123 66.9766 32.7356 66.9766C32.3437 66.9766 31.9996 67.0586 31.7034 67.2227C31.4072 67.3822 31.177 67.6077 31.013 67.8994C30.8489 68.1865 30.7669 68.5238 30.7669 68.9111L30.76 68.9248L29.5843 68.918L29.5706 68.9111C29.5751 68.3278 29.7164 67.8105 29.9944 67.3594C30.2724 66.9036 30.6552 66.5482 31.1429 66.293C31.6305 66.0332 32.1888 65.9033 32.8177 65.9033C33.3919 65.9033 33.9091 66.0241 34.3694 66.2656C34.8297 66.5026 35.192 66.8285 35.4563 67.2432C35.7252 67.6579 35.8596 68.1318 35.8596 68.665V68.6787C35.8596 69.0524 35.7936 69.4124 35.6614 69.7588C35.5338 70.1051 35.3059 70.4902 34.9778 70.9141C34.6497 71.3333 34.1871 71.8506 33.5901 72.4658L31.0403 75.0977L31.3479 74.5303V75.0977L31.0471 74.8926H36.0237V76H29.6389ZM41.1099 76.2324C40.3808 76.2324 39.7564 76.0228 39.2369 75.6035C38.7219 75.1842 38.3254 74.5895 38.0474 73.8193C37.7694 73.0446 37.6304 72.1286 37.6304 71.0713V71.0576C37.6304 70.0003 37.7694 69.0866 38.0474 68.3164C38.3254 67.5462 38.7219 66.9515 39.2369 66.5322C39.7564 66.113 40.3808 65.9033 41.1099 65.9033C41.8391 65.9033 42.4634 66.113 42.983 66.5322C43.5025 66.9515 43.9013 67.5462 44.1793 68.3164C44.4618 69.0866 44.6031 70.0003 44.6031 71.0576V71.0713C44.6031 72.1286 44.4618 73.0446 44.1793 73.8193C43.9013 74.5895 43.5025 75.1842 42.983 75.6035C42.4634 76.0228 41.8391 76.2324 41.1099 76.2324ZM41.1099 75.1592C41.5839 75.1592 41.9872 74.9928 42.3199 74.6602C42.6571 74.3275 42.9146 73.8558 43.0923 73.2451C43.2746 72.6344 43.3658 71.9098 43.3658 71.0713V71.0576C43.3658 70.2191 43.2746 69.4967 43.0923 68.8906C42.9146 68.2799 42.6571 67.8105 42.3199 67.4824C41.9872 67.1497 41.5839 66.9834 41.1099 66.9834C40.6405 66.9834 40.2372 67.1497 39.9 67.4824C39.5673 67.8105 39.3121 68.2799 39.1343 68.8906C38.9566 69.4967 38.8677 70.2191 38.8677 71.0576V71.0713C38.8677 71.9098 38.9566 72.6344 39.1343 73.2451C39.3121 73.8558 39.5673 74.3275 39.9 74.6602C40.2372 74.9928 40.6405 75.1592 41.1099 75.1592ZM47.5975 72.7051L47.5291 70.9277H47.8436L52.1639 66.1357H53.7088L49.6278 70.5449L49.0536 71.0986L47.5975 72.7051ZM46.5037 76V66.1357H47.7342V76H46.5037ZM52.4784 76L48.7938 71.085L49.6414 70.2305L54.0711 76H52.4784Z" fill="#666D80"/>
<path d="M24.4502 128.856C23.8441 128.856 23.2812 128.747 22.7617 128.528C22.2422 128.31 21.8206 127.995 21.4971 127.585C21.1781 127.175 21.0072 126.683 20.9844 126.108V126.102L22.1738 126.095V126.108C22.2194 126.423 22.3265 126.708 22.4951 126.963C22.6637 127.218 22.9076 127.421 23.2266 127.571C23.5501 127.717 23.9626 127.79 24.4639 127.79C24.9788 127.79 25.3913 127.722 25.7012 127.585C26.0156 127.444 26.2435 127.257 26.3848 127.024C26.526 126.787 26.5967 126.528 26.5967 126.245V126.231C26.5967 125.858 26.4782 125.548 26.2412 125.302C26.0088 125.051 25.5531 124.844 24.874 124.68L23.8555 124.434C23.2904 124.297 22.8118 124.119 22.4199 123.9C22.0326 123.677 21.7386 123.404 21.5381 123.08C21.3376 122.757 21.2373 122.371 21.2373 121.925V121.911C21.2373 121.378 21.3763 120.915 21.6543 120.523C21.9368 120.127 22.3197 119.822 22.8027 119.607C23.2858 119.389 23.835 119.279 24.4502 119.279C25.0381 119.279 25.5713 119.391 26.0498 119.614C26.5329 119.838 26.9225 120.152 27.2188 120.558C27.515 120.959 27.6722 121.43 27.6904 121.973V121.979L26.501 121.986V121.973C26.4691 121.626 26.3597 121.332 26.1729 121.091C25.9906 120.849 25.7513 120.665 25.4551 120.537C25.1589 120.41 24.8239 120.346 24.4502 120.346C24.0081 120.346 23.6367 120.419 23.3359 120.564C23.0352 120.706 22.8073 120.89 22.6523 121.118C22.502 121.341 22.4268 121.578 22.4268 121.829V121.843C22.4268 122.062 22.4769 122.264 22.5771 122.451C22.682 122.638 22.8506 122.804 23.083 122.95C23.3154 123.096 23.6299 123.217 24.0264 123.312L25.0449 123.559C25.9245 123.768 26.6012 124.071 27.0752 124.468C27.5492 124.864 27.7861 125.42 27.7861 126.136V126.149C27.7861 126.737 27.6312 127.234 27.3213 127.64C27.0114 128.041 26.6035 128.344 26.0977 128.549C25.5918 128.754 25.0426 128.856 24.4502 128.856ZM24.0127 129.991V118.145H24.833V129.991H24.0127ZM32.052 129V120.503H31.9427L29.4339 122.321V121.022L32.0589 119.136H33.2825V129H32.052ZM39.0933 129.232C38.4826 129.232 37.938 129.112 37.4595 128.87C36.981 128.629 36.5959 128.3 36.3043 127.886C36.0171 127.466 35.8485 126.995 35.7984 126.471L35.7916 126.396H36.9742L36.981 126.45C37.022 126.765 37.136 127.052 37.3228 127.312C37.5142 127.567 37.7626 127.77 38.0679 127.92C38.3778 128.07 38.7242 128.146 39.107 128.146C39.5445 128.146 39.9296 128.05 40.2623 127.858C40.5949 127.662 40.8547 127.394 41.0416 127.052C41.2284 126.71 41.3218 126.318 41.3218 125.876V125.862C41.3218 125.425 41.2261 125.037 41.0347 124.7C40.8479 124.358 40.5904 124.092 40.2623 123.9C39.9341 123.709 39.5559 123.613 39.1275 123.613C38.7994 123.613 38.4963 123.663 38.2183 123.764C37.9449 123.864 37.7011 124.014 37.4869 124.215C37.4003 124.297 37.3183 124.386 37.2408 124.481C37.1679 124.577 37.0995 124.684 37.0357 124.803H35.9693L36.4888 119.136H41.9781V120.236H37.4595L37.1246 123.572H37.2339C37.3798 123.349 37.5598 123.162 37.774 123.012C37.9882 122.861 38.2274 122.747 38.4918 122.67C38.7606 122.588 39.0432 122.547 39.3394 122.547C39.9592 122.547 40.5084 122.69 40.9869 122.978C41.4654 123.26 41.8414 123.65 42.1148 124.146C42.3882 124.639 42.525 125.204 42.525 125.842V125.855C42.525 126.516 42.3768 127.102 42.0806 127.612C41.789 128.118 41.3856 128.515 40.8707 128.802C40.3557 129.089 39.7632 129.232 39.0933 129.232ZM45.4784 125.705L45.41 123.928H45.7245L50.0448 119.136H51.5897L47.5086 123.545L46.9344 124.099L45.4784 125.705ZM44.3846 129V119.136H45.6151V129H44.3846ZM50.3592 129L46.6746 124.085L47.5223 123.23L51.952 129H50.3592Z" fill="#666D80"/>
<path d="M24.4502 181.856C23.8441 181.856 23.2812 181.747 22.7617 181.528C22.2422 181.31 21.8206 180.995 21.4971 180.585C21.1781 180.175 21.0072 179.683 20.9844 179.108V179.102L22.1738 179.095V179.108C22.2194 179.423 22.3265 179.708 22.4951 179.963C22.6637 180.218 22.9076 180.421 23.2266 180.571C23.5501 180.717 23.9626 180.79 24.4639 180.79C24.9788 180.79 25.3913 180.722 25.7012 180.585C26.0156 180.444 26.2435 180.257 26.3848 180.024C26.526 179.787 26.5967 179.528 26.5967 179.245V179.231C26.5967 178.858 26.4782 178.548 26.2412 178.302C26.0088 178.051 25.5531 177.844 24.874 177.68L23.8555 177.434C23.2904 177.297 22.8118 177.119 22.4199 176.9C22.0326 176.677 21.7386 176.404 21.5381 176.08C21.3376 175.757 21.2373 175.371 21.2373 174.925V174.911C21.2373 174.378 21.3763 173.915 21.6543 173.523C21.9368 173.127 22.3197 172.822 22.8027 172.607C23.2858 172.389 23.835 172.279 24.4502 172.279C25.0381 172.279 25.5713 172.391 26.0498 172.614C26.5329 172.838 26.9225 173.152 27.2188 173.558C27.515 173.959 27.6722 174.43 27.6904 174.973V174.979L26.501 174.986V174.973C26.4691 174.626 26.3597 174.332 26.1729 174.091C25.9906 173.849 25.7513 173.665 25.4551 173.537C25.1589 173.41 24.8239 173.346 24.4502 173.346C24.0081 173.346 23.6367 173.419 23.3359 173.564C23.0352 173.706 22.8073 173.89 22.6523 174.118C22.502 174.341 22.4268 174.578 22.4268 174.829V174.843C22.4268 175.062 22.4769 175.264 22.5771 175.451C22.682 175.638 22.8506 175.804 23.083 175.95C23.3154 176.096 23.6299 176.217 24.0264 176.312L25.0449 176.559C25.9245 176.768 26.6012 177.071 27.0752 177.468C27.5492 177.864 27.7861 178.42 27.7861 179.136V179.149C27.7861 179.737 27.6312 180.234 27.3213 180.64C27.0114 181.041 26.6035 181.344 26.0977 181.549C25.5918 181.754 25.0426 181.856 24.4502 181.856ZM24.0127 182.991V171.145H24.833V182.991H24.0127ZM32.052 182V173.503H31.9427L29.4339 175.321V174.022L32.0589 172.136H33.2825V182H32.052ZM39.1548 182.232C38.4257 182.232 37.8013 182.023 37.2818 181.604C36.7668 181.184 36.3703 180.59 36.0923 179.819C35.8143 179.045 35.6754 178.129 35.6754 177.071V177.058C35.6754 176 35.8143 175.087 36.0923 174.316C36.3703 173.546 36.7668 172.951 37.2818 172.532C37.8013 172.113 38.4257 171.903 39.1548 171.903C39.884 171.903 40.5084 172.113 41.0279 172.532C41.5474 172.951 41.9462 173.546 42.2242 174.316C42.5067 175.087 42.648 176 42.648 177.058V177.071C42.648 178.129 42.5067 179.045 42.2242 179.819C41.9462 180.59 41.5474 181.184 41.0279 181.604C40.5084 182.023 39.884 182.232 39.1548 182.232ZM39.1548 181.159C39.6288 181.159 40.0321 180.993 40.3648 180.66C40.702 180.327 40.9595 179.856 41.1373 179.245C41.3196 178.634 41.4107 177.91 41.4107 177.071V177.058C41.4107 176.219 41.3196 175.497 41.1373 174.891C40.9595 174.28 40.702 173.811 40.3648 173.482C40.0321 173.15 39.6288 172.983 39.1548 172.983C38.6854 172.983 38.2821 173.15 37.9449 173.482C37.6122 173.811 37.357 174.28 37.1793 174.891C37.0015 175.497 36.9127 176.219 36.9127 177.058V177.071C36.9127 177.91 37.0015 178.634 37.1793 179.245C37.357 179.856 37.6122 180.327 37.9449 180.66C38.2821 180.993 38.6854 181.159 39.1548 181.159ZM45.6424 178.705L45.5741 176.928H45.8885L50.2088 172.136H51.7537L47.6727 176.545L47.0985 177.099L45.6424 178.705ZM44.5487 182V172.136H45.7791V182H44.5487ZM50.5233 182L46.8387 177.085L47.6864 176.23L52.1161 182H50.5233Z" fill="#666D80"/>
<line x1="87.5" y1="8.5" x2="87.5" y2="187.5" stroke="#DFE1E6" stroke-linecap="round" stroke-dasharray="5 5"/>
<line x1="139.974" y1="8.5" x2="139.974" y2="187.5" stroke="#DFE1E6" stroke-linecap="round" stroke-dasharray="5 5"/>
<line x1="192.447" y1="8.5" x2="192.447" y2="187.5" stroke="#DFE1E6" stroke-linecap="round" stroke-dasharray="5 5"/>
<line x1="244.921" y1="8.5" x2="244.921" y2="187.5" stroke="#DFE1E6" stroke-linecap="round" stroke-dasharray="5 5"/>
<line x1="297.395" y1="8.5" x2="297.395" y2="187.5" stroke="#DFE1E6" stroke-linecap="round" stroke-dasharray="5 5"/>
<line x1="349.868" y1="8.5" x2="349.868" y2="187.5" stroke="#DFE1E6" stroke-linecap="round" stroke-dasharray="5 5"/>
<line x1="402.342" y1="8.5" x2="402.342" y2="187.5" stroke="#DFE1E6" stroke-linecap="round" stroke-dasharray="5 5"/>
<line x1="454.816" y1="8.5" x2="454.816" y2="187.5" stroke="#DFE1E6" stroke-linecap="round" stroke-dasharray="5 5"/>
<line x1="507.29" y1="8.5" x2="507.29" y2="187.5" stroke="#0D0D12" stroke-linecap="round" stroke-dasharray="5 5"/>
<line x1="559.763" y1="8.5" x2="559.763" y2="187.5" stroke="#DFE1E6" stroke-linecap="round" stroke-dasharray="5 5"/>
<line x1="612.237" y1="8.5" x2="612.237" y2="187.5" stroke="#DFE1E6" stroke-linecap="round" stroke-dasharray="5 5"/>
<line x1="664.71" y1="8.5" x2="664.71" y2="187.5" stroke="#DFE1E6" stroke-linecap="round" stroke-dasharray="5 5"/>
<line x1="717.184" y1="8.5" x2="717.184" y2="187.5" stroke="#DFE1E6" stroke-linecap="round" stroke-dasharray="5 5"/>
<line x1="769.658" y1="8.5" x2="769.658" y2="187.5" stroke="#DFE1E6" stroke-linecap="round" stroke-dasharray="5 5"/>
<line x1="822.132" y1="8.5" x2="822.132" y2="187.5" stroke="#DFE1E6" stroke-linecap="round" stroke-dasharray="5 5"/>
<line x1="874.605" y1="8.5" x2="874.605" y2="187.5" stroke="#DFE1E6" stroke-linecap="round" stroke-dasharray="5 5"/>
<line x1="927.079" y1="8.5" x2="927.079" y2="187.5" stroke="#DFE1E6" stroke-linecap="round" stroke-dasharray="5 5"/>
<line x1="979.553" y1="8.5" x2="979.553" y2="187.5" stroke="#DFE1E6" stroke-linecap="round" stroke-dasharray="5 5"/>
<line x1="1032.03" y1="8.5" x2="1032.03" y2="187.5" stroke="#DFE1E6" stroke-linecap="round" stroke-dasharray="5 5"/>
<line x1="1084.5" y1="8.5" x2="1084.5" y2="187.5" stroke="#DFE1E6" stroke-linecap="round" stroke-dasharray="5 5"/>
<path d="M162.879 95.5451C153.246 95.9906 95.0727 120.299 86 119.997V187.5H1084V67.8552C1084 67.8552 1009.91 66.8334 1006.64 67.4705C998.525 69.0514 938.938 109.792 927 111C917.45 111.966 859.777 89.4493 848.5 87.9999C837.812 86.6262 804.101 91.6904 794 89.9999C784.523 88.414 702.337 59.3333 691.5 57.4999C677.984 55.2133 623.96 61.2446 612.5 60.4999C603.427 59.9104 568.462 45.2994 559.5 46.9999C548.884 48.3927 466.438 95.4999 454.5 95.4999C442.562 95.4999 407.708 74.9999 401.5 74.9999C387.652 74.9999 338.735 73.4999 322.5 73.4999C316.029 73.4999 257.87 98.1947 244.5 99.4999C231.13 100.805 172.512 95.0995 162.879 95.5451Z" fill="url(#paint0_linear_186_7604)" fill-opacity="0.12"/>
<g filter="url(#filter0_d_186_7604)">
<path d="M86 119.997C95.0727 120.299 153.246 95.9906 162.879 95.5451C172.512 95.0995 231.13 100.805 244.5 99.4999C257.87 98.1947 316.029 73.4999 322.5 73.4999C338.735 73.4999 387.652 74.9999 401.5 74.9999C407.708 74.9999 442.562 95.4999 454.5 95.4999C466.438 95.4999 548.884 48.3927 559.5 46.9999C568.462 45.2994 603.427 59.9104 612.5 60.4999C623.96 61.2446 677.984 55.2133 691.5 57.4999C702.337 59.3333 784.523 88.414 794 89.9999C804.101 91.6904 837.812 86.6262 848.5 87.9999C859.777 89.4493 917.45 111.966 927 111C938.938 109.792 998.525 69.0514 1006.64 67.4705C1009.91 66.8334 1084 67.8552 1084 67.8552" stroke="#4E57EF" stroke-width="2" stroke-linecap="round"/>
</g>
<g filter="url(#filter1_d_186_7604)">
<path d="M1084 169.999C1074.93 170.106 1016.75 161.465 1007.12 161.306C997.488 161.148 938.87 163.176 925.5 162.712C912.13 162.248 853.971 153.47 847.5 153.47C831.265 153.47 782.348 154.003 768.5 154.003C762.292 154.003 727.438 161.29 715.5 161.29C703.562 161.29 621.116 144.544 610.5 144.049C601.538 143.444 566.573 148.639 557.5 148.848C546.04 149.113 492.016 146.969 478.5 147.782C467.663 148.433 385.477 158.771 376 159.335C365.899 159.936 332.188 158.136 321.5 158.624C310.223 159.139 252.55 167.144 243 166.801C231.062 166.371 171.475 151.888 163.357 151.326C160.085 151.1 86 151.463 86 151.463" stroke="#33CFFF" stroke-width="2" stroke-linecap="round"/>
</g>
<circle cx="506" cy="71" r="4" fill="#4E57EF" stroke="white" stroke-width="2"/>
<circle cx="506" cy="147" r="4" fill="#33CFFF" stroke="white" stroke-width="2"/>
<g filter="url(#filter2_d_186_7604)">
<rect x="525" y="24" width="160" height="94" rx="10" fill="white"/>
<path d="M540.205 47V39.6816H537.545V38.5449H544.178V39.6816H541.518V47H540.205ZM546.944 47.123C546.323 47.123 545.785 46.9902 545.332 46.7246C544.883 46.459 544.537 46.0801 544.295 45.5879C544.053 45.0918 543.932 44.5039 543.932 43.8242V43.8125C543.932 43.1289 544.053 42.541 544.295 42.0488C544.541 41.5566 544.889 41.1777 545.338 40.9121C545.791 40.6465 546.326 40.5137 546.944 40.5137C547.565 40.5137 548.1 40.6465 548.549 40.9121C548.998 41.1738 549.344 41.5527 549.586 42.0488C549.832 42.541 549.955 43.1289 549.955 43.8125V43.8242C549.955 44.5039 549.832 45.0918 549.586 45.5879C549.344 46.0801 548.998 46.459 548.549 46.7246C548.104 46.9902 547.569 47.123 546.944 47.123ZM546.944 46.0566C547.307 46.0566 547.615 45.9688 547.869 45.793C548.123 45.6133 548.317 45.3574 548.449 45.0254C548.582 44.6934 548.649 44.293 548.649 43.8242V43.8125C548.649 43.3398 548.582 42.9375 548.449 42.6055C548.317 42.2734 548.123 42.0195 547.869 41.8438C547.615 41.6641 547.307 41.5742 546.944 41.5742C546.58 41.5742 546.272 41.6641 546.018 41.8438C545.764 42.0195 545.569 42.2734 545.432 42.6055C545.299 42.9375 545.233 43.3398 545.233 43.8125V43.8242C545.233 44.293 545.299 44.6934 545.432 45.0254C545.569 45.3574 545.764 45.6133 546.018 45.793C546.272 45.9688 546.58 46.0566 546.944 46.0566ZM553.629 47.041C552.934 47.041 552.43 46.9082 552.118 46.6426C551.809 46.373 551.655 45.9336 551.655 45.3242V41.6387H550.659V40.6367H551.655V39.0312H552.956V40.6367H554.321V41.6387H552.956V45.0137C552.956 45.3574 553.024 45.6055 553.161 45.7578C553.297 45.9062 553.524 45.9805 553.84 45.9805C553.934 45.9805 554.014 45.9785 554.081 45.9746C554.151 45.9707 554.231 45.9648 554.321 45.957V46.9766C554.219 46.9922 554.11 47.0059 553.993 47.0176C553.875 47.0332 553.754 47.041 553.629 47.041ZM557.315 47.1055C556.913 47.1055 556.551 47.0293 556.231 46.877C555.915 46.7207 555.665 46.5 555.481 46.2148C555.298 45.9297 555.206 45.5957 555.206 45.2129V45.2012C555.206 44.8184 555.298 44.4922 555.481 44.2227C555.669 43.9531 555.938 43.7422 556.29 43.5898C556.645 43.4336 557.075 43.3398 557.579 43.3086L559.928 43.168V44.0645L557.755 44.2051C557.317 44.2324 556.995 44.3262 556.788 44.4863C556.581 44.6426 556.477 44.8633 556.477 45.1484V45.1602C556.477 45.4492 556.589 45.6777 556.811 45.8457C557.034 46.0098 557.315 46.0918 557.655 46.0918C557.971 46.0918 558.253 46.0293 558.499 45.9043C558.749 45.7754 558.944 45.6035 559.085 45.3887C559.225 45.1699 559.296 44.9238 559.296 44.6504V42.6465C559.296 42.2949 559.186 42.0273 558.968 41.8438C558.753 41.6562 558.432 41.5625 558.007 41.5625C557.651 41.5625 557.36 41.625 557.134 41.75C556.911 41.875 556.762 42.0508 556.688 42.2773L556.676 42.2949H555.452L555.458 42.2539C555.509 41.9023 555.647 41.5977 555.874 41.3398C556.104 41.0781 556.405 40.875 556.776 40.7305C557.151 40.5859 557.579 40.5137 558.059 40.5137C558.594 40.5137 559.048 40.5996 559.419 40.7715C559.794 40.9395 560.077 41.1836 560.268 41.5039C560.464 41.8203 560.561 42.2012 560.561 42.6465V47H559.296V46.0977H559.202C559.077 46.3125 558.921 46.4961 558.733 46.6484C558.546 46.7969 558.333 46.9102 558.094 46.9883C557.856 47.0664 557.596 47.1055 557.315 47.1055ZM562.173 47V38.1406H563.444V47H562.173ZM568.273 47V38.5449H571.607C572.185 38.5449 572.685 38.6523 573.107 38.8672C573.529 39.0781 573.853 39.377 574.08 39.7637C574.31 40.1465 574.425 40.5996 574.425 41.123V41.1348C574.425 41.7051 574.281 42.207 573.992 42.6406C573.703 43.0703 573.3 43.373 572.785 43.5488L574.677 47H573.16L571.437 43.748C571.425 43.748 571.414 43.748 571.402 43.748C571.39 43.748 571.378 43.748 571.367 43.748H569.585V47H568.273ZM569.585 42.6816H571.478C571.982 42.6816 572.372 42.5508 572.65 42.2891C572.927 42.0234 573.066 41.6504 573.066 41.1699V41.1582C573.066 40.6895 572.921 40.3203 572.632 40.0508C572.347 39.7812 571.949 39.6465 571.437 39.6465H569.585V42.6816ZM578.398 47.123C577.777 47.123 577.244 46.9902 576.799 46.7246C576.353 46.4551 576.009 46.0742 575.767 45.582C575.529 45.0898 575.41 44.5078 575.41 43.8359V43.8301C575.41 43.166 575.529 42.5859 575.767 42.0898C576.009 41.5938 576.349 41.207 576.787 40.9297C577.228 40.6523 577.744 40.5137 578.334 40.5137C578.927 40.5137 579.437 40.6465 579.863 40.9121C580.293 41.1777 580.623 41.5508 580.853 42.0312C581.084 42.5078 581.199 43.0664 581.199 43.707V44.1523H576.054V43.2441H580.566L579.957 44.0879V43.5781C579.957 43.125 579.886 42.75 579.746 42.4531C579.609 42.1523 579.42 41.9277 579.177 41.7793C578.935 41.6309 578.656 41.5566 578.34 41.5566C578.023 41.5566 577.74 41.6348 577.49 41.791C577.244 41.9434 577.049 42.1699 576.904 42.4707C576.763 42.7715 576.693 43.1406 576.693 43.5781V44.0879C576.693 44.5059 576.763 44.8633 576.904 45.1602C577.045 45.457 577.244 45.6836 577.502 45.8398C577.763 45.9961 578.072 46.0742 578.427 46.0742C578.701 46.0742 578.935 46.0371 579.131 45.9629C579.33 45.8848 579.492 45.7891 579.617 45.6758C579.746 45.5625 579.834 45.4512 579.881 45.3418L579.904 45.2949H581.134L581.123 45.3477C581.068 45.5586 580.972 45.7695 580.836 45.9805C580.699 46.1875 580.517 46.377 580.291 46.5488C580.068 46.7207 579.799 46.8594 579.482 46.9648C579.17 47.0703 578.808 47.123 578.398 47.123ZM584.082 47L581.779 40.6367H583.133L584.721 45.7109H584.814L586.396 40.6367H587.738L585.441 47H584.082ZM591.207 47.123C590.586 47.123 590.053 46.9902 589.608 46.7246C589.162 46.4551 588.819 46.0742 588.576 45.582C588.338 45.0898 588.219 44.5078 588.219 43.8359V43.8301C588.219 43.166 588.338 42.5859 588.576 42.0898C588.819 41.5938 589.158 41.207 589.596 40.9297C590.037 40.6523 590.553 40.5137 591.143 40.5137C591.736 40.5137 592.246 40.6465 592.672 40.9121C593.102 41.1777 593.432 41.5508 593.662 42.0312C593.893 42.5078 594.008 43.0664 594.008 43.707V44.1523H588.863V43.2441H593.375L592.766 44.0879V43.5781C592.766 43.125 592.695 42.75 592.555 42.4531C592.418 42.1523 592.229 41.9277 591.986 41.7793C591.744 41.6309 591.465 41.5566 591.149 41.5566C590.832 41.5566 590.549 41.6348 590.299 41.791C590.053 41.9434 589.858 42.1699 589.713 42.4707C589.572 42.7715 589.502 43.1406 589.502 43.5781V44.0879C589.502 44.5059 589.572 44.8633 589.713 45.1602C589.854 45.457 590.053 45.6836 590.311 45.8398C590.572 45.9961 590.881 46.0742 591.236 46.0742C591.51 46.0742 591.744 46.0371 591.94 45.9629C592.139 45.8848 592.301 45.7891 592.426 45.6758C592.555 45.5625 592.643 45.4512 592.69 45.3418L592.713 45.2949H593.944L593.932 45.3477C593.877 45.5586 593.781 45.7695 593.645 45.9805C593.508 46.1875 593.326 46.377 593.1 46.5488C592.877 46.7207 592.608 46.8594 592.291 46.9648C591.979 47.0703 591.617 47.123 591.207 47.123ZM595.28 47V40.6367H596.551V41.5977H596.651C596.807 41.2578 597.037 40.9922 597.342 40.8008C597.647 40.6094 598.032 40.5137 598.496 40.5137C599.211 40.5137 599.758 40.7188 600.137 41.1289C600.516 41.5391 600.705 42.123 600.705 42.8809V47H599.428V43.1797C599.428 42.6484 599.317 42.2539 599.094 41.9961C598.875 41.7344 598.532 41.6035 598.063 41.6035C597.754 41.6035 597.487 41.6719 597.26 41.8086C597.034 41.9414 596.858 42.1328 596.733 42.3828C596.612 42.6289 596.551 42.9238 596.551 43.2676V47H595.28ZM604.356 47.123C603.88 47.123 603.477 47.0312 603.149 46.8477C602.825 46.6602 602.581 46.3906 602.417 46.0391C602.256 45.6836 602.176 45.2559 602.176 44.7559V40.6367H603.448V44.457C603.448 44.9805 603.551 45.373 603.758 45.6348C603.965 45.8965 604.303 46.0273 604.772 46.0273C605.022 46.0273 605.245 45.9902 605.44 45.916C605.635 45.8379 605.799 45.7266 605.932 45.582C606.065 45.4375 606.163 45.2637 606.225 45.0605C606.292 44.8574 606.325 44.627 606.325 44.3691V40.6367H607.602V47H606.325V46.0391H606.231C606.13 46.2656 605.991 46.4609 605.815 46.625C605.639 46.7852 605.428 46.9082 605.182 46.9941C604.94 47.0801 604.665 47.123 604.356 47.123ZM611.862 47.123C611.241 47.123 610.708 46.9902 610.263 46.7246C609.817 46.4551 609.474 46.0742 609.231 45.582C608.993 45.0898 608.874 44.5078 608.874 43.8359V43.8301C608.874 43.166 608.993 42.5859 609.231 42.0898C609.474 41.5938 609.813 41.207 610.251 40.9297C610.692 40.6523 611.208 40.5137 611.798 40.5137C612.391 40.5137 612.901 40.6465 613.327 40.9121C613.757 41.1777 614.087 41.5508 614.317 42.0312C614.548 42.5078 614.663 43.0664 614.663 43.707V44.1523H609.518V43.2441H614.03L613.421 44.0879V43.5781C613.421 43.125 613.35 42.75 613.21 42.4531C613.073 42.1523 612.884 41.9277 612.641 41.7793C612.399 41.6309 612.12 41.5566 611.804 41.5566C611.487 41.5566 611.204 41.6348 610.954 41.791C610.708 41.9434 610.513 42.1699 610.368 42.4707C610.227 42.7715 610.157 43.1406 610.157 43.5781V44.0879C610.157 44.5059 610.227 44.8633 610.368 45.1602C610.509 45.457 610.708 45.6836 610.966 45.8398C611.227 45.9961 611.536 46.0742 611.891 46.0742C612.165 46.0742 612.399 46.0371 612.595 45.9629C612.794 45.8848 612.956 45.7891 613.081 45.6758C613.21 45.5625 613.298 45.4512 613.345 45.3418L613.368 45.2949H614.599L614.587 45.3477C614.532 45.5586 614.436 45.7695 614.3 45.9805C614.163 46.1875 613.981 46.377 613.755 46.5488C613.532 46.7207 613.263 46.8594 612.946 46.9648C612.634 47.0703 612.272 47.123 611.862 47.123Z" fill="#0D0D12"/>
<line x1="537" y1="59.5" x2="673" y2="59.5" stroke="#DFE1E6"/>
<path d="M538.078 81V72.5449H543.211V73.4941H539.133V76.4004H542.877V77.3379H539.133V81H538.078ZM547.155 81.1113C546.553 81.1113 546.035 80.9785 545.602 80.7129C545.172 80.4473 544.84 80.0723 544.606 79.5879C544.375 79.0996 544.26 78.5254 544.26 77.8652V77.8594C544.26 77.207 544.375 76.6348 544.606 76.1426C544.84 75.6504 545.17 75.2656 545.596 74.9883C546.022 74.7109 546.52 74.5723 547.09 74.5723C547.664 74.5723 548.156 74.7051 548.567 74.9707C548.981 75.2363 549.297 75.6074 549.516 76.084C549.739 76.5566 549.85 77.1074 549.85 77.7363V78.1348H544.787V77.3203H549.328L548.824 78.0645V77.6602C548.824 77.1641 548.75 76.7559 548.602 76.4355C548.453 76.1152 548.248 75.877 547.987 75.7207C547.725 75.5605 547.424 75.4805 547.084 75.4805C546.744 75.4805 546.44 75.5645 546.17 75.7324C545.905 75.8965 545.694 76.1406 545.537 76.4648C545.381 76.7891 545.303 77.1875 545.303 77.6602V78.0645C545.303 78.5137 545.379 78.8984 545.531 79.2188C545.684 79.5352 545.901 79.7793 546.182 79.9512C546.463 80.1191 546.795 80.2031 547.178 80.2031C547.463 80.2031 547.711 80.1641 547.922 80.0859C548.133 80.0078 548.307 79.9082 548.444 79.7871C548.58 79.666 548.676 79.543 548.731 79.418L548.754 79.3652H549.774L549.762 79.4121C549.707 79.627 549.61 79.8359 549.469 80.0391C549.332 80.2383 549.155 80.4199 548.936 80.584C548.717 80.7441 548.457 80.873 548.156 80.9707C547.86 81.0645 547.526 81.1113 547.155 81.1113ZM554.333 81.1113C554.04 81.1113 553.768 81.0664 553.518 80.9766C553.268 80.8867 553.045 80.7598 552.85 80.5957C552.655 80.4277 552.493 80.2266 552.364 79.9922H552.27V81H551.25V72.1758H552.27V75.6797H552.364C552.481 75.4531 552.637 75.2578 552.833 75.0938C553.032 74.9297 553.258 74.8027 553.512 74.7129C553.77 74.6191 554.043 74.5723 554.333 74.5723C554.868 74.5723 555.333 74.707 555.727 74.9766C556.125 75.2461 556.434 75.625 556.653 76.1133C556.872 76.6016 556.981 77.1758 556.981 77.8359V77.8477C556.981 78.5039 556.872 79.0781 556.653 79.5703C556.434 80.0586 556.125 80.4375 555.727 80.707C555.333 80.9766 554.868 81.1113 554.333 81.1113ZM554.098 80.209C554.485 80.209 554.815 80.1152 555.088 79.9277C555.362 79.7363 555.571 79.4648 555.715 79.1133C555.864 78.7578 555.938 78.3359 555.938 77.8477V77.8359C555.938 77.3438 555.864 76.9219 555.715 76.5703C555.571 76.2188 555.362 75.9492 555.088 75.7617C554.815 75.5703 554.485 75.4746 554.098 75.4746C553.715 75.4746 553.385 75.5703 553.108 75.7617C552.831 75.9531 552.618 76.2246 552.469 76.5762C552.321 76.9277 552.247 77.3477 552.247 77.8359V77.8477C552.247 78.332 552.321 78.752 552.469 79.1074C552.618 79.459 552.831 79.7305 553.108 79.9219C553.385 80.1133 553.715 80.209 554.098 80.209ZM563.52 81V73.7168H563.427L561.276 75.2754V74.1621L563.526 72.5449H564.575V81H563.52ZM566.779 81V80.2734L569.638 77.1797C569.997 76.7891 570.279 76.4668 570.482 76.2129C570.685 75.9551 570.827 75.7227 570.909 75.5156C570.991 75.3086 571.032 75.082 571.032 74.8359V74.8242C571.032 74.5273 570.968 74.2617 570.839 74.0273C570.71 73.793 570.527 73.6074 570.288 73.4707C570.05 73.334 569.765 73.2656 569.433 73.2656C569.097 73.2656 568.802 73.3359 568.548 73.4766C568.294 73.6133 568.097 73.8066 567.956 74.0566C567.816 74.3027 567.745 74.5918 567.745 74.9238L567.739 74.9355L566.732 74.9297L566.72 74.9238C566.724 74.4238 566.845 73.9805 567.083 73.5938C567.321 73.2031 567.65 72.8984 568.068 72.6797C568.486 72.457 568.964 72.3457 569.503 72.3457C569.995 72.3457 570.439 72.4492 570.833 72.6562C571.228 72.8594 571.538 73.1387 571.765 73.4941C571.995 73.8496 572.111 74.2559 572.111 74.7129V74.7246C572.111 75.0449 572.054 75.3535 571.941 75.6504C571.831 75.9473 571.636 76.2773 571.355 76.6406C571.073 77 570.677 77.4434 570.165 77.9707L567.98 80.2266L568.243 79.7402V80.2266L567.986 80.0508H572.251V81H566.779ZM573.353 83.1504L573.863 79.8164H575.029L574.109 83.1504H573.353ZM580.062 81V80.2734L582.922 77.1797C583.281 76.7891 583.562 76.4668 583.766 76.2129C583.969 75.9551 584.111 75.7227 584.193 75.5156C584.275 75.3086 584.316 75.082 584.316 74.8359V74.8242C584.316 74.5273 584.252 74.2617 584.123 74.0273C583.994 73.793 583.81 73.6074 583.572 73.4707C583.334 73.334 583.049 73.2656 582.717 73.2656C582.381 73.2656 582.086 73.3359 581.832 73.4766C581.578 73.6133 581.381 73.8066 581.24 74.0566C581.1 74.3027 581.029 74.5918 581.029 74.9238L581.023 74.9355L580.016 74.9297L580.004 74.9238C580.008 74.4238 580.129 73.9805 580.367 73.5938C580.605 73.2031 580.934 72.8984 581.351 72.6797C581.769 72.457 582.248 72.3457 582.787 72.3457C583.279 72.3457 583.723 72.4492 584.117 72.6562C584.512 72.8594 584.822 73.1387 585.049 73.4941C585.279 73.8496 585.394 74.2559 585.394 74.7129V74.7246C585.394 75.0449 585.338 75.3535 585.225 75.6504C585.115 75.9473 584.92 76.2773 584.639 76.6406C584.357 77 583.961 77.4434 583.449 77.9707L581.264 80.2266L581.527 79.7402V80.2266L581.269 80.0508H585.535V81H580.062ZM589.895 81.1992C589.27 81.1992 588.735 81.0195 588.289 80.6602C587.848 80.3008 587.508 79.791 587.27 79.1309C587.031 78.4668 586.912 77.6816 586.912 76.7754V76.7637C586.912 75.8574 587.031 75.0742 587.27 74.4141C587.508 73.7539 587.848 73.2441 588.289 72.8848C588.735 72.5254 589.27 72.3457 589.895 72.3457C590.52 72.3457 591.055 72.5254 591.5 72.8848C591.945 73.2441 592.287 73.7539 592.526 74.4141C592.768 75.0742 592.889 75.8574 592.889 76.7637V76.7754C592.889 77.6816 592.768 78.4668 592.526 79.1309C592.287 79.791 591.945 80.3008 591.5 80.6602C591.055 81.0195 590.52 81.1992 589.895 81.1992ZM589.895 80.2793C590.301 80.2793 590.647 80.1367 590.932 79.8516C591.221 79.5664 591.442 79.1621 591.594 78.6387C591.75 78.1152 591.828 77.4941 591.828 76.7754V76.7637C591.828 76.0449 591.75 75.4258 591.594 74.9062C591.442 74.3828 591.221 73.9805 590.932 73.6992C590.647 73.4141 590.301 73.2715 589.895 73.2715C589.492 73.2715 589.147 73.4141 588.858 73.6992C588.572 73.9805 588.354 74.3828 588.201 74.9062C588.049 75.4258 587.973 76.0449 587.973 76.7637V76.7754C587.973 77.4941 588.049 78.1152 588.201 78.6387C588.354 79.1621 588.572 79.5664 588.858 79.8516C589.147 80.1367 589.492 80.2793 589.895 80.2793ZM594.383 81V80.2734L597.243 77.1797C597.602 76.7891 597.883 76.4668 598.086 76.2129C598.289 75.9551 598.432 75.7227 598.514 75.5156C598.596 75.3086 598.637 75.082 598.637 74.8359V74.8242C598.637 74.5273 598.573 74.2617 598.444 74.0273C598.315 73.793 598.131 73.6074 597.893 73.4707C597.655 73.334 597.37 73.2656 597.037 73.2656C596.702 73.2656 596.407 73.3359 596.153 73.4766C595.899 73.6133 595.702 73.8066 595.561 74.0566C595.42 74.3027 595.35 74.5918 595.35 74.9238L595.344 74.9355L594.336 74.9297L594.325 74.9238C594.329 74.4238 594.45 73.9805 594.688 73.5938C594.926 73.2031 595.254 72.8984 595.672 72.6797C596.09 72.457 596.569 72.3457 597.108 72.3457C597.6 72.3457 598.043 72.4492 598.438 72.6562C598.832 72.8594 599.143 73.1387 599.37 73.4941C599.6 73.8496 599.715 74.2559 599.715 74.7129V74.7246C599.715 75.0449 599.659 75.3535 599.545 75.6504C599.436 75.9473 599.241 76.2773 598.959 76.6406C598.678 77 598.282 77.4434 597.77 77.9707L595.584 80.2266L595.848 79.7402V80.2266L595.59 80.0508H599.856V81H594.383ZM605.071 81V79.248H600.952V78.2871C601.182 77.9043 601.417 77.5176 601.655 77.127C601.893 76.7324 602.133 76.3398 602.376 75.9492C602.622 75.5547 602.868 75.1641 603.114 74.7773C603.36 74.3906 603.604 74.0098 603.846 73.6348C604.092 73.2598 604.335 72.8965 604.573 72.5449H606.102V78.3047H607.303V79.248H606.102V81H605.071ZM602.03 78.3105H605.077V73.5234H605.006C604.815 73.8086 604.62 74.1055 604.421 74.4141C604.221 74.7188 604.018 75.0312 603.811 75.3516C603.608 75.6719 603.405 75.9941 603.202 76.3184C602.999 76.6426 602.798 76.9668 602.598 77.291C602.403 77.6113 602.214 77.9277 602.03 78.2402V78.3105Z" fill="#666D80"/>
<path d="M636.955 80.877C636.385 80.877 635.867 80.7852 635.402 80.6016C634.938 80.4141 634.566 80.1445 634.289 79.793C634.012 79.4375 633.863 79.0078 633.844 78.5039L633.85 78.498L635.209 78.4922L635.215 78.5039C635.25 78.7422 635.336 78.9531 635.473 79.1367C635.609 79.3164 635.801 79.457 636.047 79.5586C636.293 79.6602 636.602 79.7109 636.973 79.7109C637.355 79.7109 637.67 79.666 637.916 79.5762C638.162 79.4824 638.344 79.3535 638.461 79.1895C638.578 79.0254 638.637 78.8359 638.637 78.6211V78.6094C638.637 78.3203 638.533 78.0879 638.326 77.9121C638.123 77.7363 637.748 77.584 637.201 77.4551L636.328 77.2559C635.828 77.1387 635.404 76.9824 635.057 76.7871C634.713 76.5918 634.451 76.3496 634.271 76.0605C634.096 75.7676 634.008 75.418 634.008 75.0117V75C634.008 74.5195 634.135 74.1055 634.389 73.7578C634.646 73.4102 634.996 73.1426 635.438 72.9551C635.883 72.7637 636.387 72.668 636.949 72.668C637.523 72.668 638.031 72.7676 638.473 72.9668C638.914 73.1621 639.266 73.4395 639.527 73.7988C639.789 74.1543 639.928 74.5742 639.943 75.0586V75.0645L638.584 75.0703L638.578 75.0586C638.551 74.793 638.465 74.5703 638.32 74.3906C638.176 74.207 637.988 74.0684 637.758 73.9746C637.527 73.8809 637.264 73.834 636.967 73.834C636.627 73.834 636.342 73.8828 636.111 73.9805C635.881 74.0781 635.707 74.207 635.59 74.3672C635.473 74.5273 635.414 74.7031 635.414 74.8945V74.9062C635.414 75.0781 635.459 75.2324 635.549 75.3691C635.643 75.5059 635.787 75.627 635.982 75.7324C636.182 75.8379 636.443 75.9297 636.768 76.0078L637.641 76.207C638.422 76.3867 639.018 76.6504 639.428 76.998C639.838 77.3457 640.043 77.8359 640.043 78.4688V78.4805C640.043 78.9961 639.906 79.4336 639.633 79.793C639.359 80.1484 638.988 80.418 638.52 80.6016C638.055 80.7852 637.533 80.877 636.955 80.877ZM636.627 81.8379V71.6953H637.307V81.8379H636.627ZM643.594 81V74.0332H643.489L641.385 75.5156V74.0977L643.594 72.5449H645.1V81H643.594ZM650.368 81.1699C649.719 81.1699 649.147 81.0664 648.651 80.8594C648.155 80.6484 647.766 80.3594 647.485 79.9922C647.208 79.6211 647.069 79.1953 647.069 78.7148V78.7031C647.069 78.3398 647.149 78.0117 647.309 77.7188C647.473 77.4219 647.7 77.1719 647.989 76.9688C648.278 76.7656 648.61 76.627 648.985 76.5527V76.5176C648.5 76.3887 648.11 76.1582 647.813 75.8262C647.52 75.4902 647.374 75.0957 647.374 74.6426V74.6309C647.374 74.1973 647.5 73.8105 647.754 73.4707C648.012 73.1309 648.366 72.8633 648.815 72.668C649.268 72.4727 649.786 72.375 650.368 72.375C650.95 72.375 651.465 72.4727 651.915 72.668C652.368 72.8633 652.721 73.1309 652.975 73.4707C653.229 73.8105 653.356 74.1973 653.356 74.6309V74.6426C653.356 75.0957 653.209 75.4902 652.916 75.8262C652.624 76.1582 652.235 76.3887 651.75 76.5176V76.5527C652.125 76.627 652.458 76.7656 652.747 76.9688C653.036 77.1719 653.26 77.4219 653.42 77.7188C653.584 78.0117 653.666 78.3398 653.666 78.7031V78.7148C653.666 79.1953 653.526 79.6211 653.245 79.9922C652.967 80.3594 652.581 80.6484 652.084 80.8594C651.588 81.0664 651.016 81.1699 650.368 81.1699ZM650.368 80.0156C650.708 80.0156 651.006 79.957 651.264 79.8398C651.526 79.7188 651.731 79.5527 651.879 79.3418C652.028 79.127 652.102 78.8848 652.102 78.6152V78.6035C652.102 78.3301 652.028 78.0879 651.879 77.877C651.735 77.6621 651.532 77.4941 651.27 77.373C651.008 77.252 650.708 77.1914 650.368 77.1914C650.024 77.1914 649.721 77.252 649.459 77.373C649.202 77.4941 648.999 77.6621 648.85 77.877C648.702 78.0879 648.627 78.3301 648.627 78.6035V78.6152C648.627 78.8848 648.702 79.127 648.85 79.3418C649.002 79.5527 649.208 79.7188 649.465 79.8398C649.727 79.957 650.028 80.0156 650.368 80.0156ZM650.368 76.0371C650.665 76.0371 650.924 75.9844 651.147 75.8789C651.374 75.7695 651.549 75.6211 651.674 75.4336C651.803 75.2461 651.868 75.0273 651.868 74.7773V74.7656C651.868 74.5195 651.803 74.3027 651.674 74.1152C651.549 73.9277 651.374 73.7812 651.147 73.6758C650.92 73.5703 650.661 73.5176 650.368 73.5176C650.071 73.5176 649.809 73.5703 649.583 73.6758C649.36 73.7812 649.184 73.9277 649.055 74.1152C648.93 74.3027 648.868 74.5195 648.868 74.7656V74.7773C648.868 75.0273 648.93 75.2461 649.055 75.4336C649.184 75.6211 649.36 75.7695 649.583 75.8789C649.809 75.9844 650.071 76.0371 650.368 76.0371ZM655.7 81.1113C655.434 81.1113 655.212 81.0234 655.032 80.8477C654.856 80.668 654.768 80.4492 654.768 80.1914C654.768 79.9297 654.856 79.7109 655.032 79.5352C655.212 79.3555 655.434 79.2656 655.7 79.2656C655.969 79.2656 656.192 79.3555 656.368 79.5352C656.544 79.7109 656.632 79.9297 656.632 80.1914C656.632 80.4492 656.544 80.668 656.368 80.8477C656.192 81.0234 655.969 81.1113 655.7 81.1113ZM660.997 81.2109C660.423 81.2109 659.917 81.1035 659.479 80.8887C659.042 80.6738 658.694 80.3828 658.436 80.0156C658.179 79.6445 658.03 79.2285 657.991 78.7676L657.985 78.6914H659.374L659.386 78.7324C659.425 78.9629 659.517 79.1719 659.661 79.3594C659.806 79.5469 659.993 79.6973 660.224 79.8105C660.454 79.9199 660.714 79.9746 661.003 79.9746C661.331 79.9746 661.62 79.9023 661.87 79.7578C662.124 79.6133 662.321 79.4141 662.462 79.1602C662.603 78.9023 662.673 78.6094 662.673 78.2812V78.2695C662.673 77.9414 662.601 77.6523 662.456 77.4023C662.315 77.1484 662.12 76.9512 661.87 76.8105C661.624 76.666 661.339 76.5938 661.015 76.5938C660.776 76.5938 660.556 76.6289 660.353 76.6992C660.153 76.7695 659.976 76.875 659.819 77.0156C659.741 77.082 659.669 77.1562 659.603 77.2383C659.536 77.3164 659.478 77.4023 659.427 77.4961H658.132L658.542 72.5449H663.616V73.7812H659.72L659.479 76.3594H659.585C659.702 76.168 659.851 76.0059 660.03 75.873C660.21 75.7363 660.415 75.6328 660.645 75.5625C660.876 75.4883 661.122 75.4512 661.384 75.4512C661.915 75.4512 662.384 75.5723 662.79 75.8145C663.2 76.0527 663.522 76.3828 663.757 76.8047C663.991 77.2227 664.108 77.7012 664.108 78.2402V78.252C664.108 78.8379 663.976 79.3535 663.71 79.7988C663.448 80.2402 663.083 80.5859 662.614 80.8359C662.145 81.0859 661.606 81.2109 660.997 81.2109ZM667.027 78.416L666.968 76.4531H667.243L670.577 72.5449H672.306L669.001 76.3594L668.157 77.1035L667.027 78.416ZM665.632 81V72.5449H667.144V81H665.632ZM670.718 81L667.946 77.0918L669.013 76.084L672.564 81H670.718Z" fill="#4E57EF"/>
<path d="M539.889 103.199C539.521 103.199 539.195 103.146 538.91 103.041C538.625 102.936 538.383 102.787 538.184 102.596C537.984 102.404 537.828 102.18 537.715 101.922C537.602 101.664 537.533 101.383 537.51 101.078L537.504 100.996H538.559L538.564 101.055C538.588 101.266 538.65 101.461 538.752 101.641C538.854 101.816 538.998 101.959 539.186 102.068C539.373 102.174 539.605 102.227 539.883 102.227C540.352 102.227 540.709 102.092 540.955 101.822C541.201 101.549 541.324 101.154 541.324 100.639V94.5449H542.379V100.65C542.379 101.182 542.279 101.639 542.08 102.021C541.885 102.4 541.602 102.691 541.23 102.895C540.859 103.098 540.412 103.199 539.889 103.199ZM545.901 103.111C545.502 103.111 545.143 103.035 544.823 102.883C544.506 102.73 544.254 102.514 544.067 102.232C543.883 101.951 543.791 101.619 543.791 101.236V101.225C543.791 100.85 543.881 100.529 544.061 100.264C544.24 99.9941 544.502 99.7832 544.846 99.6309C545.19 99.4785 545.606 99.3887 546.094 99.3613L548.414 99.2207V100.035L546.217 100.176C545.737 100.203 545.385 100.303 545.162 100.475C544.944 100.646 544.834 100.889 544.834 101.201V101.213C544.834 101.533 544.955 101.783 545.198 101.963C545.44 102.139 545.744 102.227 546.112 102.227C546.459 102.227 546.768 102.158 547.037 102.021C547.307 101.881 547.518 101.691 547.67 101.453C547.826 101.215 547.905 100.945 547.905 100.645V98.6758C547.905 98.2852 547.785 97.9883 547.547 97.7852C547.313 97.5781 546.959 97.4746 546.487 97.4746C546.108 97.4746 545.797 97.543 545.555 97.6797C545.313 97.8125 545.151 98.002 545.069 98.248L545.063 98.2656H544.043L544.049 98.2305C544.104 97.8984 544.24 97.6094 544.459 97.3633C544.682 97.1133 544.969 96.9199 545.321 96.7832C545.672 96.6426 546.073 96.5723 546.522 96.5723C547.037 96.5723 547.473 96.6562 547.828 96.8242C548.188 96.9922 548.459 97.2344 548.643 97.5508C548.83 97.8633 548.924 98.2383 548.924 98.6758V103H547.905V102.068H547.811C547.678 102.291 547.516 102.48 547.324 102.637C547.137 102.793 546.924 102.912 546.686 102.994C546.448 103.072 546.186 103.111 545.901 103.111ZM550.547 103V96.6836H551.567V97.6328H551.661C551.821 97.2969 552.051 97.0371 552.352 96.8535C552.653 96.666 553.036 96.5723 553.5 96.5723C554.211 96.5723 554.756 96.7754 555.135 97.1816C555.518 97.584 555.709 98.1602 555.709 98.9102V103H554.69V99.1562C554.69 98.5859 554.569 98.1641 554.327 97.8906C554.088 97.6133 553.717 97.4746 553.213 97.4746C552.877 97.4746 552.586 97.5469 552.34 97.6914C552.094 97.8359 551.903 98.041 551.766 98.3066C551.633 98.5723 551.567 98.8906 551.567 99.2617V103H550.547ZM562.513 103V95.7168H562.419L560.269 97.2754V96.1621L562.519 94.5449H563.567V103H562.513ZM565.771 103V102.273L568.63 99.1797C568.989 98.7891 569.271 98.4668 569.474 98.2129C569.677 97.9551 569.82 97.7227 569.902 97.5156C569.984 97.3086 570.025 97.082 570.025 96.8359V96.8242C570.025 96.5273 569.96 96.2617 569.831 96.0273C569.702 95.793 569.519 95.6074 569.28 95.4707C569.042 95.334 568.757 95.2656 568.425 95.2656C568.089 95.2656 567.794 95.3359 567.54 95.4766C567.286 95.6133 567.089 95.8066 566.948 96.0566C566.808 96.3027 566.737 96.5918 566.737 96.9238L566.732 96.9355L565.724 96.9297L565.712 96.9238C565.716 96.4238 565.837 95.9805 566.075 95.5938C566.314 95.2031 566.642 94.8984 567.06 94.6797C567.478 94.457 567.956 94.3457 568.495 94.3457C568.987 94.3457 569.431 94.4492 569.825 94.6562C570.22 94.8594 570.53 95.1387 570.757 95.4941C570.987 95.8496 571.103 96.2559 571.103 96.7129V96.7246C571.103 97.0449 571.046 97.3535 570.933 97.6504C570.823 97.9473 570.628 98.2773 570.347 98.6406C570.066 99 569.669 99.4434 569.157 99.9707L566.972 102.227L567.236 101.74V102.227L566.978 102.051H571.243V103H565.771ZM572.345 105.15L572.855 101.816H574.021L573.101 105.15H572.345ZM579.055 103V102.273L581.914 99.1797C582.273 98.7891 582.555 98.4668 582.758 98.2129C582.961 97.9551 583.103 97.7227 583.185 97.5156C583.268 97.3086 583.309 97.082 583.309 96.8359V96.8242C583.309 96.5273 583.244 96.2617 583.115 96.0273C582.986 95.793 582.803 95.6074 582.564 95.4707C582.326 95.334 582.041 95.2656 581.709 95.2656C581.373 95.2656 581.078 95.3359 580.824 95.4766C580.57 95.6133 580.373 95.8066 580.232 96.0566C580.092 96.3027 580.021 96.5918 580.021 96.9238L580.016 96.9355L579.008 96.9297L578.996 96.9238C579 96.4238 579.121 95.9805 579.359 95.5938C579.598 95.2031 579.926 94.8984 580.344 94.6797C580.762 94.457 581.24 94.3457 581.779 94.3457C582.271 94.3457 582.715 94.4492 583.109 94.6562C583.504 94.8594 583.814 95.1387 584.041 95.4941C584.271 95.8496 584.387 96.2559 584.387 96.7129V96.7246C584.387 97.0449 584.33 97.3535 584.217 97.6504C584.107 97.9473 583.912 98.2773 583.631 98.6406C583.35 99 582.953 99.4434 582.441 99.9707L580.256 102.227L580.519 101.74V102.227L580.262 102.051H584.527V103H579.055ZM588.887 103.199C588.262 103.199 587.727 103.02 587.281 102.66C586.84 102.301 586.5 101.791 586.262 101.131C586.024 100.467 585.904 99.6816 585.904 98.7754V98.7637C585.904 97.8574 586.024 97.0742 586.262 96.4141C586.5 95.7539 586.84 95.2441 587.281 94.8848C587.727 94.5254 588.262 94.3457 588.887 94.3457C589.512 94.3457 590.047 94.5254 590.492 94.8848C590.938 95.2441 591.279 95.7539 591.518 96.4141C591.76 97.0742 591.881 97.8574 591.881 98.7637V98.7754C591.881 99.6816 591.76 100.467 591.518 101.131C591.279 101.791 590.938 102.301 590.492 102.66C590.047 103.02 589.512 103.199 588.887 103.199ZM588.887 102.279C589.293 102.279 589.639 102.137 589.924 101.852C590.213 101.566 590.434 101.162 590.586 100.639C590.742 100.115 590.82 99.4941 590.82 98.7754V98.7637C590.82 98.0449 590.742 97.4258 590.586 96.9062C590.434 96.3828 590.213 95.9805 589.924 95.6992C589.639 95.4141 589.293 95.2715 588.887 95.2715C588.485 95.2715 588.139 95.4141 587.85 95.6992C587.565 95.9805 587.346 96.3828 587.194 96.9062C587.041 97.4258 586.965 98.0449 586.965 98.7637V98.7754C586.965 99.4941 587.041 100.115 587.194 100.639C587.346 101.162 587.565 101.566 587.85 101.852C588.139 102.137 588.485 102.279 588.887 102.279ZM593.375 103V102.273L596.235 99.1797C596.594 98.7891 596.875 98.4668 597.079 98.2129C597.282 97.9551 597.424 97.7227 597.506 97.5156C597.588 97.3086 597.629 97.082 597.629 96.8359V96.8242C597.629 96.5273 597.565 96.2617 597.436 96.0273C597.307 95.793 597.123 95.6074 596.885 95.4707C596.647 95.334 596.362 95.2656 596.03 95.2656C595.694 95.2656 595.399 95.3359 595.145 95.4766C594.891 95.6133 594.694 95.8066 594.553 96.0566C594.412 96.3027 594.342 96.5918 594.342 96.9238L594.336 96.9355L593.329 96.9297L593.317 96.9238C593.321 96.4238 593.442 95.9805 593.68 95.5938C593.918 95.2031 594.246 94.8984 594.664 94.6797C595.082 94.457 595.561 94.3457 596.1 94.3457C596.592 94.3457 597.036 94.4492 597.43 94.6562C597.825 94.8594 598.135 95.1387 598.362 95.4941C598.592 95.8496 598.707 96.2559 598.707 96.7129V96.7246C598.707 97.0449 598.651 97.3535 598.537 97.6504C598.428 97.9473 598.233 98.2773 597.952 98.6406C597.67 99 597.274 99.4434 596.762 99.9707L594.577 102.227L594.84 101.74V102.227L594.582 102.051H598.848V103H593.375ZM604.063 103V101.248H599.944V100.287C600.174 99.9043 600.409 99.5176 600.647 99.127C600.885 98.7324 601.126 98.3398 601.368 97.9492C601.614 97.5547 601.86 97.1641 602.106 96.7773C602.352 96.3906 602.596 96.0098 602.839 95.6348C603.085 95.2598 603.327 94.8965 603.565 94.5449H605.094V100.305H606.296V101.248H605.094V103H604.063ZM601.022 100.311H604.069V95.5234H603.999C603.807 95.8086 603.612 96.1055 603.413 96.4141C603.214 96.7188 603.01 97.0312 602.803 97.3516C602.6 97.6719 602.397 97.9941 602.194 98.3184C601.991 98.6426 601.79 98.9668 601.59 99.291C601.395 99.6113 601.206 99.9277 601.022 100.24V100.311Z" fill="#666D80"/>
<path d="M636.955 102.877C636.385 102.877 635.867 102.785 635.402 102.602C634.938 102.414 634.566 102.145 634.289 101.793C634.012 101.438 633.863 101.008 633.844 100.504L633.85 100.498L635.209 100.492L635.215 100.504C635.25 100.742 635.336 100.953 635.473 101.137C635.609 101.316 635.801 101.457 636.047 101.559C636.293 101.66 636.602 101.711 636.973 101.711C637.355 101.711 637.67 101.666 637.916 101.576C638.162 101.482 638.344 101.354 638.461 101.189C638.578 101.025 638.637 100.836 638.637 100.621V100.609C638.637 100.32 638.533 100.088 638.326 99.9121C638.123 99.7363 637.748 99.584 637.201 99.4551L636.328 99.2559C635.828 99.1387 635.404 98.9824 635.057 98.7871C634.713 98.5918 634.451 98.3496 634.271 98.0605C634.096 97.7676 634.008 97.418 634.008 97.0117V97C634.008 96.5195 634.135 96.1055 634.389 95.7578C634.646 95.4102 634.996 95.1426 635.438 94.9551C635.883 94.7637 636.387 94.668 636.949 94.668C637.523 94.668 638.031 94.7676 638.473 94.9668C638.914 95.1621 639.266 95.4395 639.527 95.7988C639.789 96.1543 639.928 96.5742 639.943 97.0586V97.0645L638.584 97.0703L638.578 97.0586C638.551 96.793 638.465 96.5703 638.32 96.3906C638.176 96.207 637.988 96.0684 637.758 95.9746C637.527 95.8809 637.264 95.834 636.967 95.834C636.627 95.834 636.342 95.8828 636.111 95.9805C635.881 96.0781 635.707 96.207 635.59 96.3672C635.473 96.5273 635.414 96.7031 635.414 96.8945V96.9062C635.414 97.0781 635.459 97.2324 635.549 97.3691C635.643 97.5059 635.787 97.627 635.982 97.7324C636.182 97.8379 636.443 97.9297 636.768 98.0078L637.641 98.207C638.422 98.3867 639.018 98.6504 639.428 98.998C639.838 99.3457 640.043 99.8359 640.043 100.469V100.48C640.043 100.996 639.906 101.434 639.633 101.793C639.359 102.148 638.988 102.418 638.52 102.602C638.055 102.785 637.533 102.877 636.955 102.877ZM636.627 103.838V93.6953H637.307V103.838H636.627ZM643.594 103V96.0332H643.489L641.385 97.5156V96.0977L643.594 94.5449H645.1V103H643.594ZM647.215 103V101.98L649.987 99.1445C650.37 98.7578 650.666 98.4395 650.877 98.1895C651.092 97.9355 651.243 97.7129 651.329 97.5215C651.415 97.3262 651.458 97.1211 651.458 96.9062V96.8887C651.458 96.6309 651.401 96.4004 651.288 96.1973C651.174 95.9941 651.012 95.8359 650.801 95.7227C650.59 95.6055 650.338 95.5469 650.045 95.5469C649.749 95.5469 649.487 95.6094 649.26 95.7344C649.034 95.8555 648.858 96.0254 648.733 96.2441C648.608 96.4629 648.545 96.7188 648.545 97.0117L648.54 97.0352L647.133 97.0293L647.127 97.0117C647.127 96.4844 647.254 96.0195 647.508 95.6172C647.762 95.2148 648.114 94.9004 648.563 94.6738C649.012 94.4473 649.532 94.334 650.122 94.334C650.668 94.334 651.155 94.4375 651.581 94.6445C652.01 94.8516 652.346 95.1367 652.588 95.5C652.831 95.8633 652.952 96.2832 652.952 96.7598V96.7773C652.952 97.0938 652.891 97.4043 652.77 97.709C652.649 98.0098 652.442 98.3398 652.149 98.6992C651.86 99.0586 651.459 99.4863 650.948 99.9824L648.856 102.016L649.254 101.348V102.016L648.856 101.752H653.081V103H647.215ZM655.489 103.111C655.223 103.111 655.001 103.023 654.821 102.848C654.645 102.668 654.557 102.449 654.557 102.191C654.557 101.93 654.645 101.711 654.821 101.535C655.001 101.355 655.223 101.266 655.489 101.266C655.759 101.266 655.981 101.355 656.157 101.535C656.333 101.711 656.421 101.93 656.421 102.191C656.421 102.449 656.333 102.668 656.157 102.848C655.981 103.023 655.759 103.111 655.489 103.111ZM660.798 103.17C660.149 103.17 659.577 103.066 659.081 102.859C658.585 102.648 658.196 102.359 657.915 101.992C657.638 101.621 657.499 101.195 657.499 100.715V100.703C657.499 100.34 657.579 100.012 657.739 99.7188C657.903 99.4219 658.13 99.1719 658.419 98.9688C658.708 98.7656 659.04 98.627 659.415 98.5527V98.5176C658.931 98.3887 658.54 98.1582 658.243 97.8262C657.95 97.4902 657.804 97.0957 657.804 96.6426V96.6309C657.804 96.1973 657.931 95.8105 658.185 95.4707C658.442 95.1309 658.796 94.8633 659.245 94.668C659.698 94.4727 660.216 94.375 660.798 94.375C661.38 94.375 661.895 94.4727 662.345 94.668C662.798 94.8633 663.151 95.1309 663.405 95.4707C663.659 95.8105 663.786 96.1973 663.786 96.6309V96.6426C663.786 97.0957 663.64 97.4902 663.347 97.8262C663.054 98.1582 662.665 98.3887 662.181 98.5176V98.5527C662.556 98.627 662.888 98.7656 663.177 98.9688C663.466 99.1719 663.69 99.4219 663.851 99.7188C664.015 100.012 664.097 100.34 664.097 100.703V100.715C664.097 101.195 663.956 101.621 663.675 101.992C663.397 102.359 663.011 102.648 662.515 102.859C662.019 103.066 661.446 103.17 660.798 103.17ZM660.798 102.016C661.138 102.016 661.436 101.957 661.694 101.84C661.956 101.719 662.161 101.553 662.31 101.342C662.458 101.127 662.532 100.885 662.532 100.615V100.604C662.532 100.33 662.458 100.088 662.31 99.877C662.165 99.6621 661.962 99.4941 661.7 99.373C661.438 99.252 661.138 99.1914 660.798 99.1914C660.454 99.1914 660.151 99.252 659.89 99.373C659.632 99.4941 659.429 99.6621 659.28 99.877C659.132 100.088 659.058 100.33 659.058 100.604V100.615C659.058 100.885 659.132 101.127 659.28 101.342C659.433 101.553 659.638 101.719 659.895 101.84C660.157 101.957 660.458 102.016 660.798 102.016ZM660.798 98.0371C661.095 98.0371 661.354 97.9844 661.577 97.8789C661.804 97.7695 661.979 97.6211 662.104 97.4336C662.233 97.2461 662.298 97.0273 662.298 96.7773V96.7656C662.298 96.5195 662.233 96.3027 662.104 96.1152C661.979 95.9277 661.804 95.7812 661.577 95.6758C661.351 95.5703 661.091 95.5176 660.798 95.5176C660.501 95.5176 660.239 95.5703 660.013 95.6758C659.79 95.7812 659.614 95.9277 659.485 96.1152C659.36 96.3027 659.298 96.5195 659.298 96.7656V96.7773C659.298 97.0273 659.36 97.2461 659.485 97.4336C659.614 97.6211 659.79 97.7695 660.013 97.8789C660.239 97.9844 660.501 98.0371 660.798 98.0371ZM667.038 100.416L666.98 98.4531H667.255L670.589 94.5449H672.318L669.013 98.3594L668.169 99.1035L667.038 100.416ZM665.644 103V94.5449H667.155V103H665.644ZM670.73 103L667.958 99.0918L669.025 98.084L672.575 103H670.73Z" fill="#33CFFF"/>
</g>
<path d="M89.3701 219.232C88.9417 219.232 88.5612 219.171 88.2285 219.048C87.8958 218.925 87.6133 218.752 87.3809 218.528C87.1484 218.305 86.9661 218.043 86.834 217.742C86.7018 217.441 86.6221 217.113 86.5947 216.758L86.5879 216.662H87.8184L87.8252 216.73C87.8525 216.977 87.9255 217.204 88.0439 217.414C88.1624 217.619 88.3311 217.785 88.5498 217.913C88.7686 218.036 89.0397 218.098 89.3633 218.098C89.9102 218.098 90.3271 217.94 90.6143 217.626C90.9014 217.307 91.0449 216.847 91.0449 216.245V209.136H92.2754V216.259C92.2754 216.879 92.1592 217.412 91.9268 217.858C91.6989 218.3 91.3685 218.64 90.9355 218.877C90.5026 219.114 89.9808 219.232 89.3701 219.232ZM96.3841 219.13C95.9192 219.13 95.4999 219.041 95.1262 218.863C94.7571 218.686 94.4632 218.433 94.2444 218.104C94.0302 217.776 93.9231 217.389 93.9231 216.942V216.929C93.9231 216.491 94.0279 216.118 94.2376 215.808C94.4472 215.493 94.7526 215.247 95.1536 215.069C95.5546 214.892 96.04 214.787 96.6096 214.755L99.3167 214.591V215.541L96.7532 215.705C96.1927 215.737 95.7825 215.853 95.5227 216.054C95.2675 216.254 95.1399 216.537 95.1399 216.901V216.915C95.1399 217.289 95.2812 217.58 95.5637 217.79C95.8463 217.995 96.2018 218.098 96.6302 218.098C97.0358 218.098 97.3958 218.018 97.7102 217.858C98.0247 217.694 98.2708 217.473 98.4485 217.195C98.6308 216.917 98.722 216.603 98.722 216.252V213.955C98.722 213.499 98.583 213.153 98.305 212.916C98.0315 212.674 97.6191 212.554 97.0677 212.554C96.6256 212.554 96.2633 212.633 95.9807 212.793C95.6982 212.948 95.5091 213.169 95.4134 213.456L95.4065 213.477H94.2171L94.2239 213.436C94.2877 213.048 94.4472 212.711 94.7024 212.424C94.9622 212.132 95.2971 211.907 95.7073 211.747C96.1175 211.583 96.5846 211.501 97.1087 211.501C97.7102 211.501 98.2184 211.599 98.6331 211.795C99.0524 211.991 99.3691 212.273 99.5833 212.643C99.802 213.007 99.9114 213.445 99.9114 213.955V219H98.722V217.913H98.6126C98.4576 218.173 98.2685 218.394 98.0452 218.576C97.8264 218.758 97.5781 218.897 97.3001 218.993C97.0221 219.084 96.7167 219.13 96.3841 219.13ZM101.805 219V211.631H102.995V212.738H103.104C103.291 212.346 103.56 212.043 103.911 211.829C104.262 211.61 104.708 211.501 105.251 211.501C106.08 211.501 106.716 211.738 107.158 212.212C107.604 212.681 107.828 213.354 107.828 214.229V219H106.638V214.516C106.638 213.85 106.497 213.358 106.214 213.039C105.936 212.715 105.503 212.554 104.916 212.554C104.524 212.554 104.184 212.638 103.897 212.807C103.61 212.975 103.387 213.215 103.227 213.524C103.072 213.834 102.995 214.206 102.995 214.639V219H101.805ZM113.352 219V218.152L116.688 214.543C117.107 214.087 117.435 213.711 117.672 213.415C117.909 213.114 118.075 212.843 118.171 212.602C118.267 212.36 118.315 212.096 118.315 211.809V211.795C118.315 211.449 118.239 211.139 118.089 210.865C117.939 210.592 117.724 210.375 117.446 210.216C117.168 210.056 116.836 209.977 116.448 209.977C116.056 209.977 115.712 210.059 115.416 210.223C115.12 210.382 114.89 210.608 114.726 210.899C114.562 211.187 114.48 211.524 114.48 211.911L114.473 211.925L113.297 211.918L113.283 211.911C113.288 211.328 113.429 210.811 113.707 210.359C113.985 209.904 114.368 209.548 114.856 209.293C115.343 209.033 115.901 208.903 116.53 208.903C117.105 208.903 117.622 209.024 118.082 209.266C118.542 209.503 118.905 209.828 119.169 210.243C119.438 210.658 119.572 211.132 119.572 211.665V211.679C119.572 212.052 119.506 212.412 119.374 212.759C119.247 213.105 119.019 213.49 118.691 213.914C118.362 214.333 117.9 214.851 117.303 215.466L114.753 218.098L115.061 217.53V218.098L114.76 217.893H119.736V219H113.352ZM124.891 219.164C124.194 219.164 123.576 219.043 123.038 218.802C122.501 218.56 122.077 218.228 121.767 217.804C121.462 217.375 121.309 216.885 121.309 216.334V216.32C121.309 215.915 121.398 215.539 121.576 215.192C121.753 214.846 122.002 214.552 122.321 214.311C122.64 214.064 123.009 213.894 123.428 213.798V213.771C122.89 213.602 122.462 213.324 122.143 212.937C121.824 212.549 121.664 212.096 121.664 211.576V211.562C121.664 211.066 121.803 210.624 122.081 210.236C122.359 209.844 122.742 209.537 123.23 209.313C123.718 209.086 124.271 208.972 124.891 208.972C125.515 208.972 126.069 209.086 126.552 209.313C127.04 209.537 127.423 209.844 127.701 210.236C127.979 210.624 128.118 211.066 128.118 211.562V211.576C128.118 212.096 127.958 212.549 127.639 212.937C127.325 213.324 126.896 213.602 126.354 213.771V213.798C126.778 213.894 127.147 214.064 127.461 214.311C127.78 214.552 128.029 214.846 128.206 215.192C128.384 215.539 128.473 215.915 128.473 216.32V216.334C128.473 216.885 128.32 217.375 128.015 217.804C127.71 218.228 127.286 218.56 126.744 218.802C126.206 219.043 125.588 219.164 124.891 219.164ZM124.891 218.091C125.347 218.091 125.748 218.013 126.094 217.858C126.445 217.699 126.721 217.482 126.921 217.209C127.122 216.931 127.222 216.614 127.222 216.259V216.245C127.222 215.885 127.122 215.566 126.921 215.288C126.725 215.01 126.452 214.791 126.101 214.632C125.75 214.472 125.347 214.393 124.891 214.393C124.435 214.393 124.032 214.472 123.681 214.632C123.33 214.791 123.054 215.01 122.854 215.288C122.658 215.566 122.56 215.885 122.56 216.245V216.259C122.56 216.614 122.66 216.931 122.861 217.209C123.061 217.482 123.337 217.699 123.688 217.858C124.039 218.013 124.44 218.091 124.891 218.091ZM124.891 213.312C125.287 213.312 125.636 213.244 125.937 213.107C126.238 212.966 126.472 212.772 126.641 212.526C126.81 212.28 126.894 211.998 126.894 211.679V211.665C126.894 211.346 126.81 211.063 126.641 210.817C126.472 210.571 126.238 210.38 125.937 210.243C125.636 210.102 125.287 210.031 124.891 210.031C124.495 210.031 124.146 210.102 123.845 210.243C123.544 210.38 123.31 210.571 123.141 210.817C122.972 211.063 122.888 211.346 122.888 211.665V211.679C122.888 211.998 122.972 212.28 123.141 212.526C123.31 212.772 123.544 212.966 123.845 213.107C124.146 213.244 124.495 213.312 124.891 213.312ZM129.41 221.509L130.005 217.619H131.365L130.292 221.509H129.41ZM137.238 219V218.152L140.573 214.543C140.993 214.087 141.321 213.711 141.558 213.415C141.795 213.114 141.961 212.843 142.057 212.602C142.153 212.36 142.2 212.096 142.2 211.809V211.795C142.2 211.449 142.125 211.139 141.975 210.865C141.824 210.592 141.61 210.375 141.332 210.216C141.054 210.056 140.722 209.977 140.334 209.977C139.942 209.977 139.598 210.059 139.302 210.223C139.006 210.382 138.776 210.608 138.612 210.899C138.447 211.187 138.365 211.524 138.365 211.911L138.359 211.925L137.183 211.918L137.169 211.911C137.174 211.328 137.315 210.811 137.593 210.359C137.871 209.904 138.254 209.548 138.741 209.293C139.229 209.033 139.787 208.903 140.416 208.903C140.99 208.903 141.508 209.024 141.968 209.266C142.428 209.503 142.791 209.828 143.055 210.243C143.324 210.658 143.458 211.132 143.458 211.665V211.679C143.458 212.052 143.392 212.412 143.26 212.759C143.132 213.105 142.905 213.49 142.576 213.914C142.248 214.333 141.786 214.851 141.189 215.466L138.639 218.098L138.947 217.53V218.098L138.646 217.893H143.622V219H137.238ZM148.709 219.232C147.979 219.232 147.355 219.023 146.835 218.604C146.32 218.184 145.924 217.59 145.646 216.819C145.368 216.045 145.229 215.129 145.229 214.071V214.058C145.229 213 145.368 212.087 145.646 211.316C145.924 210.546 146.32 209.951 146.835 209.532C147.355 209.113 147.979 208.903 148.709 208.903C149.438 208.903 150.062 209.113 150.582 209.532C151.101 209.951 151.5 210.546 151.778 211.316C152.06 212.087 152.202 213 152.202 214.058V214.071C152.202 215.129 152.06 216.045 151.778 216.819C151.5 217.59 151.101 218.184 150.582 218.604C150.062 219.023 149.438 219.232 148.709 219.232ZM148.709 218.159C149.182 218.159 149.586 217.993 149.918 217.66C150.256 217.327 150.513 216.856 150.691 216.245C150.873 215.634 150.964 214.91 150.964 214.071V214.058C150.964 213.219 150.873 212.497 150.691 211.891C150.513 211.28 150.256 210.811 149.918 210.482C149.586 210.15 149.182 209.983 148.709 209.983C148.239 209.983 147.836 210.15 147.499 210.482C147.166 210.811 146.911 211.28 146.733 211.891C146.555 212.497 146.466 213.219 146.466 214.058V214.071C146.466 214.91 146.555 215.634 146.733 216.245C146.911 216.856 147.166 217.327 147.499 217.66C147.836 217.993 148.239 218.159 148.709 218.159ZM153.945 219V218.152L157.281 214.543C157.7 214.087 158.028 213.711 158.265 213.415C158.502 213.114 158.669 212.843 158.764 212.602C158.86 212.36 158.908 212.096 158.908 211.809V211.795C158.908 211.449 158.833 211.139 158.682 210.865C158.532 210.592 158.318 210.375 158.04 210.216C157.762 210.056 157.429 209.977 157.042 209.977C156.65 209.977 156.306 210.059 156.01 210.223C155.713 210.382 155.483 210.608 155.319 210.899C155.155 211.187 155.073 211.524 155.073 211.911L155.066 211.925L153.89 211.918L153.877 211.911C153.881 211.328 154.023 210.811 154.301 210.359C154.579 209.904 154.961 209.548 155.449 209.293C155.937 209.033 156.495 208.903 157.124 208.903C157.698 208.903 158.215 209.024 158.676 209.266C159.136 209.503 159.498 209.828 159.762 210.243C160.031 210.658 160.166 211.132 160.166 211.665V211.679C160.166 212.052 160.1 212.412 159.968 212.759C159.84 213.105 159.612 213.49 159.284 213.914C158.956 214.333 158.493 214.851 157.896 215.466L155.346 218.098L155.654 217.53V218.098L155.353 217.893H160.33V219H153.945ZM165.355 219.232C164.744 219.232 164.199 219.112 163.721 218.87C163.242 218.629 162.857 218.3 162.566 217.886C162.278 217.466 162.11 216.995 162.06 216.471L162.053 216.396H163.235L163.242 216.45C163.283 216.765 163.397 217.052 163.584 217.312C163.775 217.567 164.024 217.77 164.329 217.92C164.639 218.07 164.985 218.146 165.368 218.146C165.806 218.146 166.191 218.05 166.524 217.858C166.856 217.662 167.116 217.394 167.303 217.052C167.49 216.71 167.583 216.318 167.583 215.876V215.862C167.583 215.425 167.487 215.037 167.296 214.7C167.109 214.358 166.852 214.092 166.524 213.9C166.195 213.709 165.817 213.613 165.389 213.613C165.061 213.613 164.758 213.663 164.48 213.764C164.206 213.864 163.962 214.014 163.748 214.215C163.662 214.297 163.58 214.386 163.502 214.481C163.429 214.577 163.361 214.684 163.297 214.803H162.231L162.75 209.136H168.239V210.236H163.721L163.386 213.572H163.495C163.641 213.349 163.821 213.162 164.035 213.012C164.249 212.861 164.489 212.747 164.753 212.67C165.022 212.588 165.304 212.547 165.601 212.547C166.22 212.547 166.77 212.69 167.248 212.978C167.727 213.26 168.103 213.65 168.376 214.146C168.649 214.639 168.786 215.204 168.786 215.842V215.855C168.786 216.516 168.638 217.102 168.342 217.612C168.05 218.118 167.647 218.515 167.132 218.802C166.617 219.089 166.024 219.232 165.355 219.232Z" fill="#666D80"/>
<path d="M1000.26 219V209.136H1006.25V210.243H1001.49V213.634H1005.86V214.728H1001.49V219H1000.26ZM1010.85 219.13C1010.15 219.13 1009.54 218.975 1009.04 218.665C1008.53 218.355 1008.15 217.918 1007.87 217.353C1007.6 216.783 1007.47 216.113 1007.47 215.343V215.336C1007.47 214.575 1007.6 213.907 1007.87 213.333C1008.15 212.759 1008.53 212.31 1009.03 211.986C1009.53 211.663 1010.11 211.501 1010.77 211.501C1011.44 211.501 1012.02 211.656 1012.49 211.966C1012.98 212.276 1013.35 212.709 1013.6 213.265C1013.86 213.816 1013.99 214.459 1013.99 215.192V215.657H1008.09V214.707H1013.38L1012.8 215.575V215.104C1012.8 214.525 1012.71 214.049 1012.54 213.675C1012.36 213.301 1012.12 213.023 1011.82 212.841C1011.51 212.654 1011.16 212.561 1010.76 212.561C1010.37 212.561 1010.01 212.659 1009.7 212.854C1009.39 213.046 1009.14 213.331 1008.96 213.709C1008.78 214.087 1008.69 214.552 1008.69 215.104V215.575C1008.69 216.099 1008.78 216.548 1008.95 216.922C1009.13 217.291 1009.38 217.576 1009.71 217.776C1010.04 217.972 1010.43 218.07 1010.87 218.07C1011.21 218.07 1011.5 218.025 1011.74 217.934C1011.99 217.842 1012.19 217.726 1012.35 217.585C1012.51 217.444 1012.62 217.3 1012.69 217.154L1012.71 217.093H1013.9L1013.89 217.147C1013.83 217.398 1013.71 217.642 1013.55 217.879C1013.39 218.111 1013.18 218.323 1012.93 218.515C1012.67 218.701 1012.37 218.852 1012.02 218.966C1011.67 219.075 1011.28 219.13 1010.85 219.13ZM1019.22 219.13C1018.88 219.13 1018.56 219.077 1018.27 218.973C1017.98 218.868 1017.72 218.72 1017.49 218.528C1017.26 218.332 1017.07 218.098 1016.92 217.824H1016.81V219H1015.63V208.705H1016.81V212.793H1016.92C1017.06 212.529 1017.24 212.301 1017.47 212.109C1017.7 211.918 1017.97 211.77 1018.26 211.665C1018.56 211.556 1018.88 211.501 1019.22 211.501C1019.85 211.501 1020.39 211.658 1020.85 211.973C1021.31 212.287 1021.67 212.729 1021.93 213.299C1022.18 213.868 1022.31 214.538 1022.31 215.309V215.322C1022.31 216.088 1022.18 216.758 1021.93 217.332C1021.67 217.902 1021.31 218.344 1020.85 218.658C1020.39 218.973 1019.85 219.13 1019.22 219.13ZM1018.95 218.077C1019.4 218.077 1019.78 217.968 1020.1 217.749C1020.42 217.526 1020.67 217.209 1020.83 216.799C1021.01 216.384 1021.09 215.892 1021.09 215.322V215.309C1021.09 214.734 1021.01 214.242 1020.83 213.832C1020.67 213.422 1020.42 213.107 1020.1 212.889C1019.78 212.665 1019.4 212.554 1018.95 212.554C1018.5 212.554 1018.12 212.665 1017.79 212.889C1017.47 213.112 1017.22 213.429 1017.05 213.839C1016.87 214.249 1016.79 214.739 1016.79 215.309V215.322C1016.79 215.887 1016.87 216.377 1017.05 216.792C1017.22 217.202 1017.47 217.519 1017.79 217.742C1018.12 217.965 1018.5 218.077 1018.95 218.077ZM1027.53 219V218.152L1030.86 214.543C1031.28 214.087 1031.61 213.711 1031.85 213.415C1032.08 213.114 1032.25 212.843 1032.35 212.602C1032.44 212.36 1032.49 212.096 1032.49 211.809V211.795C1032.49 211.449 1032.42 211.139 1032.26 210.865C1032.11 210.592 1031.9 210.375 1031.62 210.216C1031.34 210.056 1031.01 209.977 1030.62 209.977C1030.23 209.977 1029.89 210.059 1029.59 210.223C1029.3 210.382 1029.07 210.608 1028.9 210.899C1028.74 211.187 1028.66 211.524 1028.66 211.911L1028.65 211.925L1027.47 211.918L1027.46 211.911C1027.46 211.328 1027.6 210.811 1027.88 210.359C1028.16 209.904 1028.54 209.548 1029.03 209.293C1029.52 209.033 1030.08 208.903 1030.71 208.903C1031.28 208.903 1031.8 209.024 1032.26 209.266C1032.72 209.503 1033.08 209.828 1033.34 210.243C1033.61 210.658 1033.75 211.132 1033.75 211.665V211.679C1033.75 212.052 1033.68 212.412 1033.55 212.759C1033.42 213.105 1033.19 213.49 1032.87 213.914C1032.54 214.333 1032.08 214.851 1031.48 215.466L1028.93 218.098L1029.24 217.53V218.098L1028.94 217.893H1033.91V219H1027.53ZM1039.07 219.164C1038.37 219.164 1037.75 219.043 1037.21 218.802C1036.68 218.56 1036.25 218.228 1035.94 217.804C1035.64 217.375 1035.48 216.885 1035.48 216.334V216.32C1035.48 215.915 1035.57 215.539 1035.75 215.192C1035.93 214.846 1036.18 214.552 1036.5 214.311C1036.82 214.064 1037.18 213.894 1037.6 213.798V213.771C1037.07 213.602 1036.64 213.324 1036.32 212.937C1036 212.549 1035.84 212.096 1035.84 211.576V211.562C1035.84 211.066 1035.98 210.624 1036.26 210.236C1036.54 209.844 1036.92 209.537 1037.41 209.313C1037.89 209.086 1038.45 208.972 1039.07 208.972C1039.69 208.972 1040.24 209.086 1040.73 209.313C1041.22 209.537 1041.6 209.844 1041.88 210.236C1042.15 210.624 1042.29 211.066 1042.29 211.562V211.576C1042.29 212.096 1042.13 212.549 1041.81 212.937C1041.5 213.324 1041.07 213.602 1040.53 213.771V213.798C1040.95 213.894 1041.32 214.064 1041.64 214.311C1041.96 214.552 1042.2 214.846 1042.38 215.192C1042.56 215.539 1042.65 215.915 1042.65 216.32V216.334C1042.65 216.885 1042.5 217.375 1042.19 217.804C1041.89 218.228 1041.46 218.56 1040.92 218.802C1040.38 219.043 1039.76 219.164 1039.07 219.164ZM1039.07 218.091C1039.52 218.091 1039.92 218.013 1040.27 217.858C1040.62 217.699 1040.9 217.482 1041.1 217.209C1041.3 216.931 1041.4 216.614 1041.4 216.259V216.245C1041.4 215.885 1041.3 215.566 1041.1 215.288C1040.9 215.01 1040.63 214.791 1040.28 214.632C1039.93 214.472 1039.52 214.393 1039.07 214.393C1038.61 214.393 1038.21 214.472 1037.86 214.632C1037.51 214.791 1037.23 215.01 1037.03 215.288C1036.83 215.566 1036.74 215.885 1036.74 216.245V216.259C1036.74 216.614 1036.84 216.931 1037.04 217.209C1037.24 217.482 1037.51 217.699 1037.86 217.858C1038.21 218.013 1038.62 218.091 1039.07 218.091ZM1039.07 213.312C1039.46 213.312 1039.81 213.244 1040.11 213.107C1040.41 212.966 1040.65 212.772 1040.82 212.526C1040.99 212.28 1041.07 211.998 1041.07 211.679V211.665C1041.07 211.346 1040.99 211.063 1040.82 210.817C1040.65 210.571 1040.41 210.38 1040.11 210.243C1039.81 210.102 1039.46 210.031 1039.07 210.031C1038.67 210.031 1038.32 210.102 1038.02 210.243C1037.72 210.38 1037.49 210.571 1037.32 210.817C1037.15 211.063 1037.06 211.346 1037.06 211.665V211.679C1037.06 211.998 1037.15 212.28 1037.32 212.526C1037.49 212.772 1037.72 212.966 1038.02 213.107C1038.32 213.244 1038.67 213.312 1039.07 213.312ZM1043.59 221.509L1044.18 217.619H1045.54L1044.47 221.509H1043.59ZM1051.41 219V218.152L1054.75 214.543C1055.17 214.087 1055.5 213.711 1055.73 213.415C1055.97 213.114 1056.14 212.843 1056.23 212.602C1056.33 212.36 1056.38 212.096 1056.38 211.809V211.795C1056.38 211.449 1056.3 211.139 1056.15 210.865C1056 210.592 1055.79 210.375 1055.51 210.216C1055.23 210.056 1054.9 209.977 1054.51 209.977C1054.12 209.977 1053.77 210.059 1053.48 210.223C1053.18 210.382 1052.95 210.608 1052.79 210.899C1052.62 211.187 1052.54 211.524 1052.54 211.911L1052.53 211.925L1051.36 211.918L1051.34 211.911C1051.35 211.328 1051.49 210.811 1051.77 210.359C1052.05 209.904 1052.43 209.548 1052.92 209.293C1053.4 209.033 1053.96 208.903 1054.59 208.903C1055.17 208.903 1055.68 209.024 1056.14 209.266C1056.6 209.503 1056.97 209.828 1057.23 210.243C1057.5 210.658 1057.63 211.132 1057.63 211.665V211.679C1057.63 212.052 1057.57 212.412 1057.44 212.759C1057.31 213.105 1057.08 213.49 1056.75 213.914C1056.42 214.333 1055.96 214.851 1055.36 215.466L1052.81 218.098L1053.12 217.53V218.098L1052.82 217.893H1057.8V219H1051.41ZM1062.88 219.232C1062.16 219.232 1061.53 219.023 1061.01 218.604C1060.5 218.184 1060.1 217.59 1059.82 216.819C1059.54 216.045 1059.4 215.129 1059.4 214.071V214.058C1059.4 213 1059.54 212.087 1059.82 211.316C1060.1 210.546 1060.5 209.951 1061.01 209.532C1061.53 209.113 1062.16 208.903 1062.88 208.903C1063.61 208.903 1064.24 209.113 1064.76 209.532C1065.28 209.951 1065.68 210.546 1065.95 211.316C1066.24 212.087 1066.38 213 1066.38 214.058V214.071C1066.38 215.129 1066.24 216.045 1065.95 216.819C1065.68 217.59 1065.28 218.184 1064.76 218.604C1064.24 219.023 1063.61 219.232 1062.88 219.232ZM1062.88 218.159C1063.36 218.159 1063.76 217.993 1064.09 217.66C1064.43 217.327 1064.69 216.856 1064.87 216.245C1065.05 215.634 1065.14 214.91 1065.14 214.071V214.058C1065.14 213.219 1065.05 212.497 1064.87 211.891C1064.69 211.28 1064.43 210.811 1064.09 210.482C1063.76 210.15 1063.36 209.983 1062.88 209.983C1062.41 209.983 1062.01 210.15 1061.67 210.482C1061.34 210.811 1061.09 211.28 1060.91 211.891C1060.73 212.497 1060.64 213.219 1060.64 214.058V214.071C1060.64 214.91 1060.73 215.634 1060.91 216.245C1061.09 216.856 1061.34 217.327 1061.67 217.66C1062.01 217.993 1062.41 218.159 1062.88 218.159ZM1068.12 219V218.152L1071.46 214.543C1071.88 214.087 1072.2 213.711 1072.44 213.415C1072.68 213.114 1072.84 212.843 1072.94 212.602C1073.04 212.36 1073.08 212.096 1073.08 211.809V211.795C1073.08 211.449 1073.01 211.139 1072.86 210.865C1072.71 210.592 1072.49 210.375 1072.22 210.216C1071.94 210.056 1071.6 209.977 1071.22 209.977C1070.83 209.977 1070.48 210.059 1070.19 210.223C1069.89 210.382 1069.66 210.608 1069.49 210.899C1069.33 211.187 1069.25 211.524 1069.25 211.911L1069.24 211.925L1068.07 211.918L1068.05 211.911C1068.06 211.328 1068.2 210.811 1068.48 210.359C1068.75 209.904 1069.14 209.548 1069.62 209.293C1070.11 209.033 1070.67 208.903 1071.3 208.903C1071.87 208.903 1072.39 209.024 1072.85 209.266C1073.31 209.503 1073.67 209.828 1073.94 210.243C1074.21 210.658 1074.34 211.132 1074.34 211.665V211.679C1074.34 212.052 1074.28 212.412 1074.14 212.759C1074.02 213.105 1073.79 213.49 1073.46 213.914C1073.13 214.333 1072.67 214.851 1072.07 215.466L1069.52 218.098L1069.83 217.53V218.098L1069.53 217.893H1074.51V219H1068.12ZM1079.53 219.232C1078.92 219.232 1078.38 219.112 1077.9 218.87C1077.42 218.629 1077.03 218.3 1076.74 217.886C1076.45 217.466 1076.29 216.995 1076.24 216.471L1076.23 216.396H1077.41L1077.42 216.45C1077.46 216.765 1077.57 217.052 1077.76 217.312C1077.95 217.567 1078.2 217.77 1078.5 217.92C1078.81 218.07 1079.16 218.146 1079.54 218.146C1079.98 218.146 1080.37 218.05 1080.7 217.858C1081.03 217.662 1081.29 217.394 1081.48 217.052C1081.67 216.71 1081.76 216.318 1081.76 215.876V215.862C1081.76 215.425 1081.66 215.037 1081.47 214.7C1081.28 214.358 1081.03 214.092 1080.7 213.9C1080.37 213.709 1079.99 213.613 1079.56 213.613C1079.24 213.613 1078.93 213.663 1078.66 213.764C1078.38 213.864 1078.14 214.014 1077.92 214.215C1077.84 214.297 1077.76 214.386 1077.68 214.481C1077.6 214.577 1077.54 214.684 1077.47 214.803H1076.41L1076.93 209.136H1082.42V210.236H1077.9L1077.56 213.572H1077.67C1077.82 213.349 1078 213.162 1078.21 213.012C1078.43 212.861 1078.66 212.747 1078.93 212.67C1079.2 212.588 1079.48 212.547 1079.78 212.547C1080.4 212.547 1080.95 212.69 1081.42 212.978C1081.9 213.26 1082.28 213.65 1082.55 214.146C1082.83 214.639 1082.96 215.204 1082.96 215.842V215.855C1082.96 216.516 1082.81 217.102 1082.52 217.612C1082.23 218.118 1081.82 218.515 1081.31 218.802C1080.79 219.089 1080.2 219.232 1079.53 219.232Z" fill="#666D80"/>
<defs>
<filter id="filter0_d_186_7604" x="83" y="45.8623" width="1004" height="79.1377" filterUnits="userSpaceOnUse" color-interpolation-filters="sRGB">
<feFlood flood-opacity="0" result="BackgroundImageFix"/>
<feColorMatrix in="SourceAlpha" type="matrix" values="0 0 0 0 0 0 0 0 0 0 0 0 0 0 0 0 0 0 127 0" result="hardAlpha"/>
<feOffset dy="2"/>
<feGaussianBlur stdDeviation="1"/>
<feComposite in2="hardAlpha" operator="out"/>
<feColorMatrix type="matrix" values="0 0 0 0 0.0588235 0 0 0 0 0.2 0 0 0 0 0.211765 0 0 0 0.08 0"/>
<feBlend mode="normal" in2="BackgroundImageFix" result="effect1_dropShadow_186_7604"/>
<feBlend mode="normal" in="SourceGraphic" in2="effect1_dropShadow_186_7604" result="shape"/>
</filter>
<filter id="filter1_d_186_7604" x="83" y="143" width="1004" height="32" filterUnits="userSpaceOnUse" color-interpolation-filters="sRGB">
<feFlood flood-opacity="0" result="BackgroundImageFix"/>
<feColorMatrix in="SourceAlpha" type="matrix" values="0 0 0 0 0 0 0 0 0 0 0 0 0 0 0 0 0 0 127 0" result="hardAlpha"/>
<feOffset dy="2"/>
<feGaussianBlur stdDeviation="1"/>
<feComposite in2="hardAlpha" operator="out"/>
<feColorMatrix type="matrix" values="0 0 0 0 0.48 0 0 0 0 0.209412 0 0 0 0 0.117647 0 0 0 0.08 0"/>
<feBlend mode="normal" in2="BackgroundImageFix" result="effect1_dropShadow_186_7604"/>
<feBlend mode="normal" in="SourceGraphic" in2="effect1_dropShadow_186_7604" result="shape"/>
</filter>
<filter id="filter2_d_186_7604" x="505" y="20" width="200" height="134" filterUnits="userSpaceOnUse" color-interpolation-filters="sRGB">
<feFlood flood-opacity="0" result="BackgroundImageFix"/>
<feColorMatrix in="SourceAlpha" type="matrix" values="0 0 0 0 0 0 0 0 0 0 0 0 0 0 0 0 0 0 127 0" result="hardAlpha"/>
<feMorphology radius="12" operator="erode" in="SourceAlpha" result="effect1_dropShadow_186_7604"/>
<feOffset dy="16"/>
<feGaussianBlur stdDeviation="16"/>
<feComposite in2="hardAlpha" operator="out"/>
<feColorMatrix type="matrix" values="0 0 0 0 0.0509804 0 0 0 0 0.0509804 0 0 0 0 0.0705882 0 0 0 0.1 0"/>
<feBlend mode="normal" in2="BackgroundImageFix" result="effect1_dropShadow_186_7604"/>
<feBlend mode="normal" in="SourceGraphic" in2="effect1_dropShadow_186_7604" result="shape"/>
</filter>
<linearGradient id="paint0_linear_186_7604" x1="585" y1="46.9999" x2="585" y2="188" gradientUnits="userSpaceOnUse">
<stop stop-color="#4E57EF"/>
<stop offset="1" stop-color="#4E57EF" stop-opacity="0"/>
</linearGradient>
</defs>
</svg>
