<svg width="343" height="239" viewBox="0 0 343 239" fill="none" xmlns="http://www.w3.org/2000/svg">
<path d="M15.1787 18.8975C14.7458 18.8975 14.3438 18.8193 13.9727 18.6631C13.6016 18.5068 13.3005 18.2822 13.0693 17.9893C12.8415 17.6963 12.7194 17.3447 12.7031 16.9346V16.9297L13.5527 16.9248V16.9346C13.5853 17.1592 13.6618 17.3626 13.7822 17.5449C13.9027 17.7272 14.0768 17.8721 14.3047 17.9795C14.5358 18.0837 14.8304 18.1357 15.1885 18.1357C15.5563 18.1357 15.8509 18.0869 16.0723 17.9893C16.2969 17.8883 16.4596 17.7549 16.5605 17.5889C16.6615 17.4196 16.7119 17.234 16.7119 17.0322V17.0225C16.7119 16.7555 16.6273 16.5342 16.458 16.3584C16.292 16.1794 15.9665 16.0312 15.4814 15.9141L14.7539 15.7383C14.3503 15.6406 14.0085 15.5137 13.7285 15.3574C13.4518 15.1979 13.2419 15.0026 13.0986 14.7715C12.9554 14.5404 12.8838 14.2653 12.8838 13.9463V13.9365C12.8838 13.5557 12.9831 13.2253 13.1816 12.9453C13.3835 12.6621 13.6569 12.444 14.002 12.291C14.347 12.1348 14.7393 12.0566 15.1787 12.0566C15.5986 12.0566 15.9795 12.1364 16.3213 12.2959C16.6663 12.4554 16.9447 12.68 17.1562 12.9697C17.3678 13.2562 17.4801 13.5931 17.4932 13.9805V13.9854L16.6436 13.9902V13.9805C16.6208 13.7331 16.5426 13.5231 16.4092 13.3506C16.279 13.1781 16.1081 13.0462 15.8965 12.9551C15.6849 12.8639 15.4456 12.8184 15.1787 12.8184C14.863 12.8184 14.5977 12.8704 14.3828 12.9746C14.168 13.0755 14.0052 13.2074 13.8945 13.3701C13.7871 13.5296 13.7334 13.6989 13.7334 13.8779V13.8877C13.7334 14.0439 13.7692 14.1888 13.8408 14.3223C13.9157 14.4557 14.0361 14.5745 14.2021 14.6787C14.3682 14.7829 14.5928 14.8691 14.876 14.9375L15.6035 15.1133C16.2318 15.263 16.7152 15.4795 17.0537 15.7627C17.3923 16.0459 17.5615 16.443 17.5615 16.9541V16.9639C17.5615 17.3838 17.4508 17.7386 17.2295 18.0283C17.0081 18.3148 16.7168 18.5312 16.3555 18.6777C15.9941 18.8242 15.6019 18.8975 15.1787 18.8975ZM14.8662 19.708V11.2461H15.4521V19.708H14.8662ZM18.885 19V18.3945L21.2678 15.8164C21.5673 15.4909 21.8016 15.2223 21.9709 15.0107C22.1402 14.7959 22.259 14.6022 22.3273 14.4297C22.3957 14.2572 22.4299 14.0684 22.4299 13.8633V13.8535C22.4299 13.6061 22.3762 13.3848 22.2688 13.1895C22.1613 12.9941 22.0083 12.8395 21.8098 12.7256C21.6112 12.6117 21.3736 12.5547 21.0969 12.5547C20.8169 12.5547 20.5712 12.6133 20.3596 12.7305C20.148 12.8444 19.9836 13.0055 19.8664 13.2139C19.7492 13.4189 19.6906 13.6598 19.6906 13.9365L19.6857 13.9463L18.8459 13.9414L18.8361 13.9365C18.8394 13.5199 18.9403 13.1504 19.1389 12.8281C19.3374 12.5026 19.6109 12.2487 19.9592 12.0664C20.3075 11.8809 20.7063 11.7881 21.1555 11.7881C21.5656 11.7881 21.9351 11.8743 22.2639 12.0469C22.5926 12.2161 22.8514 12.4489 23.0402 12.7451C23.2323 13.0413 23.3283 13.3799 23.3283 13.7607V13.7705C23.3283 14.0374 23.2811 14.2946 23.1867 14.542C23.0956 14.7894 22.9328 15.0645 22.6984 15.3672C22.4641 15.6667 22.1337 16.0361 21.7072 16.4756L19.8859 18.3555L20.1057 17.9502V18.3555L19.8908 18.209H23.4455V19H18.885ZM27.0346 19.166C26.5984 19.166 26.2094 19.0798 25.8676 18.9072C25.5258 18.7347 25.2507 18.5003 25.0424 18.2041C24.8373 17.9046 24.7169 17.5677 24.6811 17.1934L24.6762 17.1396H25.5209L25.5258 17.1787C25.5551 17.4033 25.6365 17.6084 25.7699 17.7939C25.9066 17.9762 26.084 18.1211 26.3021 18.2285C26.5235 18.3359 26.7709 18.3896 27.0443 18.3896C27.3568 18.3896 27.6319 18.3213 27.8695 18.1846C28.1072 18.0446 28.2927 17.8525 28.4262 17.6084C28.5596 17.3643 28.6264 17.0843 28.6264 16.7686V16.7588C28.6264 16.4463 28.558 16.1696 28.4213 15.9287C28.2878 15.6846 28.1039 15.4941 27.8695 15.3574C27.6352 15.2207 27.365 15.1523 27.059 15.1523C26.8246 15.1523 26.6081 15.1882 26.4096 15.2598C26.2143 15.3314 26.0401 15.4388 25.8871 15.582C25.8253 15.6406 25.7667 15.7041 25.7113 15.7725C25.6592 15.8408 25.6104 15.9173 25.5648 16.002H24.8031L25.1742 11.9541H29.0951V12.7402H25.8676L25.6283 15.123H25.7064C25.8106 14.9635 25.9392 14.8301 26.0922 14.7227C26.2452 14.6152 26.4161 14.5339 26.6049 14.4785C26.7969 14.4199 26.9988 14.3906 27.2104 14.3906C27.6531 14.3906 28.0453 14.4932 28.3871 14.6982C28.7289 14.9001 28.9975 15.1784 29.1928 15.5332C29.3881 15.8848 29.4857 16.2884 29.4857 16.7441V16.7539C29.4857 17.2259 29.3799 17.6442 29.1684 18.0088C28.96 18.3701 28.6719 18.6533 28.3041 18.8584C27.9363 19.0635 27.5131 19.166 27.0346 19.166ZM31.5953 16.6465L31.5465 15.377H31.7711L34.857 11.9541H35.9605L33.0455 15.1035L32.6354 15.499L31.5953 16.6465ZM30.8141 19V11.9541H31.693V19H30.8141ZM35.0816 19L32.4498 15.4893L33.0553 14.8789L36.2193 19H35.0816Z" fill="#666D80"/>
<path d="M15.1787 73.8975C14.7458 73.8975 14.3438 73.8193 13.9727 73.6631C13.6016 73.5068 13.3005 73.2822 13.0693 72.9893C12.8415 72.6963 12.7194 72.3447 12.7031 71.9346V71.9297L13.5527 71.9248V71.9346C13.5853 72.1592 13.6618 72.3626 13.7822 72.5449C13.9027 72.7272 14.0768 72.8721 14.3047 72.9795C14.5358 73.0837 14.8304 73.1357 15.1885 73.1357C15.5563 73.1357 15.8509 73.0869 16.0723 72.9893C16.2969 72.8883 16.4596 72.7549 16.5605 72.5889C16.6615 72.4196 16.7119 72.234 16.7119 72.0322V72.0225C16.7119 71.7555 16.6273 71.5342 16.458 71.3584C16.292 71.1794 15.9665 71.0312 15.4814 70.9141L14.7539 70.7383C14.3503 70.6406 14.0085 70.5137 13.7285 70.3574C13.4518 70.1979 13.2419 70.0026 13.0986 69.7715C12.9554 69.5404 12.8838 69.2653 12.8838 68.9463V68.9365C12.8838 68.5557 12.9831 68.2253 13.1816 67.9453C13.3835 67.6621 13.6569 67.444 14.002 67.291C14.347 67.1348 14.7393 67.0566 15.1787 67.0566C15.5986 67.0566 15.9795 67.1364 16.3213 67.2959C16.6663 67.4554 16.9447 67.68 17.1562 67.9697C17.3678 68.2562 17.4801 68.5931 17.4932 68.9805V68.9854L16.6436 68.9902V68.9805C16.6208 68.7331 16.5426 68.5231 16.4092 68.3506C16.279 68.1781 16.1081 68.0462 15.8965 67.9551C15.6849 67.8639 15.4456 67.8184 15.1787 67.8184C14.863 67.8184 14.5977 67.8704 14.3828 67.9746C14.168 68.0755 14.0052 68.2074 13.8945 68.3701C13.7871 68.5296 13.7334 68.6989 13.7334 68.8779V68.8877C13.7334 69.0439 13.7692 69.1888 13.8408 69.3223C13.9157 69.4557 14.0361 69.5745 14.2021 69.6787C14.3682 69.7829 14.5928 69.8691 14.876 69.9375L15.6035 70.1133C16.2318 70.263 16.7152 70.4795 17.0537 70.7627C17.3923 71.0459 17.5615 71.443 17.5615 71.9541V71.9639C17.5615 72.3838 17.4508 72.7386 17.2295 73.0283C17.0081 73.3148 16.7168 73.5312 16.3555 73.6777C15.9941 73.8242 15.6019 73.8975 15.1787 73.8975ZM14.8662 74.708V66.2461H15.4521V74.708H14.8662ZM18.885 74V73.3945L21.2678 70.8164C21.5673 70.4909 21.8016 70.2223 21.9709 70.0107C22.1402 69.7959 22.259 69.6022 22.3273 69.4297C22.3957 69.2572 22.4299 69.0684 22.4299 68.8633V68.8535C22.4299 68.6061 22.3762 68.3848 22.2688 68.1895C22.1613 67.9941 22.0083 67.8395 21.8098 67.7256C21.6112 67.6117 21.3736 67.5547 21.0969 67.5547C20.8169 67.5547 20.5712 67.6133 20.3596 67.7305C20.148 67.8444 19.9836 68.0055 19.8664 68.2139C19.7492 68.4189 19.6906 68.6598 19.6906 68.9365L19.6857 68.9463L18.8459 68.9414L18.8361 68.9365C18.8394 68.5199 18.9403 68.1504 19.1389 67.8281C19.3374 67.5026 19.6109 67.2487 19.9592 67.0664C20.3075 66.8809 20.7063 66.7881 21.1555 66.7881C21.5656 66.7881 21.9351 66.8743 22.2639 67.0469C22.5926 67.2161 22.8514 67.4489 23.0402 67.7451C23.2323 68.0413 23.3283 68.3799 23.3283 68.7607V68.7705C23.3283 69.0374 23.2811 69.2946 23.1867 69.542C23.0956 69.7894 22.9328 70.0645 22.6984 70.3672C22.4641 70.6667 22.1337 71.0361 21.7072 71.4756L19.8859 73.3555L20.1057 72.9502V73.3555L19.8908 73.209H23.4455V74H18.885ZM27.0785 74.166C26.5577 74.166 26.1117 74.0163 25.7406 73.7168C25.3728 73.4173 25.0896 72.9925 24.891 72.4424C24.6924 71.889 24.5932 71.2347 24.5932 70.4795V70.4697C24.5932 69.7145 24.6924 69.0618 24.891 68.5117C25.0896 67.9616 25.3728 67.5368 25.7406 67.2373C26.1117 66.9378 26.5577 66.7881 27.0785 66.7881C27.5993 66.7881 28.0453 66.9378 28.4164 67.2373C28.7875 67.5368 29.0723 67.9616 29.2709 68.5117C29.4727 69.0618 29.5736 69.7145 29.5736 70.4697V70.4795C29.5736 71.2347 29.4727 71.889 29.2709 72.4424C29.0723 72.9925 28.7875 73.4173 28.4164 73.7168C28.0453 74.0163 27.5993 74.166 27.0785 74.166ZM27.0785 73.3994C27.4171 73.3994 27.7051 73.2806 27.9428 73.043C28.1837 72.8053 28.3676 72.4684 28.4945 72.0322C28.6247 71.596 28.6898 71.0785 28.6898 70.4795V70.4697C28.6898 69.8708 28.6247 69.3548 28.4945 68.9219C28.3676 68.4857 28.1837 68.1504 27.9428 67.916C27.7051 67.6784 27.4171 67.5596 27.0785 67.5596C26.7432 67.5596 26.4551 67.6784 26.2143 67.916C25.9766 68.1504 25.7943 68.4857 25.6674 68.9219C25.5404 69.3548 25.477 69.8708 25.477 70.4697V70.4795C25.477 71.0785 25.5404 71.596 25.6674 72.0322C25.7943 72.4684 25.9766 72.8053 26.2143 73.043C26.4551 73.2806 26.7432 73.3994 27.0785 73.3994ZM31.7125 71.6465L31.6637 70.377H31.8883L34.9742 66.9541H36.0777L33.1627 70.1035L32.7525 70.499L31.7125 71.6465ZM30.9312 74V66.9541H31.8102V74H30.9312ZM35.1988 74L32.567 70.4893L33.1725 69.8789L36.3365 74H35.1988Z" fill="#666D80"/>
<path d="M15.1787 128.897C14.7458 128.897 14.3438 128.819 13.9727 128.663C13.6016 128.507 13.3005 128.282 13.0693 127.989C12.8415 127.696 12.7194 127.345 12.7031 126.935V126.93L13.5527 126.925V126.935C13.5853 127.159 13.6618 127.363 13.7822 127.545C13.9027 127.727 14.0768 127.872 14.3047 127.979C14.5358 128.084 14.8304 128.136 15.1885 128.136C15.5563 128.136 15.8509 128.087 16.0723 127.989C16.2969 127.888 16.4596 127.755 16.5605 127.589C16.6615 127.42 16.7119 127.234 16.7119 127.032V127.022C16.7119 126.756 16.6273 126.534 16.458 126.358C16.292 126.179 15.9665 126.031 15.4814 125.914L14.7539 125.738C14.3503 125.641 14.0085 125.514 13.7285 125.357C13.4518 125.198 13.2419 125.003 13.0986 124.771C12.9554 124.54 12.8838 124.265 12.8838 123.946V123.937C12.8838 123.556 12.9831 123.225 13.1816 122.945C13.3835 122.662 13.6569 122.444 14.002 122.291C14.347 122.135 14.7393 122.057 15.1787 122.057C15.5986 122.057 15.9795 122.136 16.3213 122.296C16.6663 122.455 16.9447 122.68 17.1562 122.97C17.3678 123.256 17.4801 123.593 17.4932 123.98V123.985L16.6436 123.99V123.98C16.6208 123.733 16.5426 123.523 16.4092 123.351C16.279 123.178 16.1081 123.046 15.8965 122.955C15.6849 122.864 15.4456 122.818 15.1787 122.818C14.863 122.818 14.5977 122.87 14.3828 122.975C14.168 123.076 14.0052 123.207 13.8945 123.37C13.7871 123.53 13.7334 123.699 13.7334 123.878V123.888C13.7334 124.044 13.7692 124.189 13.8408 124.322C13.9157 124.456 14.0361 124.575 14.2021 124.679C14.3682 124.783 14.5928 124.869 14.876 124.938L15.6035 125.113C16.2318 125.263 16.7152 125.479 17.0537 125.763C17.3923 126.046 17.5615 126.443 17.5615 126.954V126.964C17.5615 127.384 17.4508 127.739 17.2295 128.028C17.0081 128.315 16.7168 128.531 16.3555 128.678C15.9941 128.824 15.6019 128.897 15.1787 128.897ZM14.8662 129.708V121.246H15.4521V129.708H14.8662ZM20.6086 129V122.931H20.5305L18.7385 124.229V123.302L20.6135 121.954H21.4875V129H20.6086ZM25.6381 129.166C25.2019 129.166 24.8129 129.08 24.4711 128.907C24.1293 128.735 23.8542 128.5 23.6459 128.204C23.4408 127.905 23.3204 127.568 23.2846 127.193L23.2797 127.14H24.1244L24.1293 127.179C24.1586 127.403 24.24 127.608 24.3734 127.794C24.5102 127.976 24.6876 128.121 24.9057 128.229C25.127 128.336 25.3744 128.39 25.6479 128.39C25.9604 128.39 26.2354 128.321 26.473 128.185C26.7107 128.045 26.8962 127.853 27.0297 127.608C27.1632 127.364 27.2299 127.084 27.2299 126.769V126.759C27.2299 126.446 27.1615 126.17 27.0248 125.929C26.8913 125.685 26.7074 125.494 26.473 125.357C26.2387 125.221 25.9685 125.152 25.6625 125.152C25.4281 125.152 25.2117 125.188 25.0131 125.26C24.8178 125.331 24.6436 125.439 24.4906 125.582C24.4288 125.641 24.3702 125.704 24.3148 125.772C24.2628 125.841 24.2139 125.917 24.1684 126.002H23.4066L23.7777 121.954H27.6986V122.74H24.4711L24.2318 125.123H24.31C24.4141 124.964 24.5427 124.83 24.6957 124.723C24.8487 124.615 25.0196 124.534 25.2084 124.479C25.4005 124.42 25.6023 124.391 25.8139 124.391C26.2566 124.391 26.6488 124.493 26.9906 124.698C27.3324 124.9 27.601 125.178 27.7963 125.533C27.9916 125.885 28.0893 126.288 28.0893 126.744V126.754C28.0893 127.226 27.9835 127.644 27.7719 128.009C27.5635 128.37 27.2755 128.653 26.9076 128.858C26.5398 129.063 26.1166 129.166 25.6381 129.166ZM30.1988 126.646L30.15 125.377H30.3746L33.4605 121.954H34.5641L31.649 125.104L31.2389 125.499L30.1988 126.646ZM29.4176 129V121.954H30.2965V129H29.4176ZM33.6852 129L31.0533 125.489L31.6588 124.879L34.8229 129H33.6852Z" fill="#666D80"/>
<path d="M15.1787 183.897C14.7458 183.897 14.3438 183.819 13.9727 183.663C13.6016 183.507 13.3005 183.282 13.0693 182.989C12.8415 182.696 12.7194 182.345 12.7031 181.935V181.93L13.5527 181.925V181.935C13.5853 182.159 13.6618 182.363 13.7822 182.545C13.9027 182.727 14.0768 182.872 14.3047 182.979C14.5358 183.084 14.8304 183.136 15.1885 183.136C15.5563 183.136 15.8509 183.087 16.0723 182.989C16.2969 182.888 16.4596 182.755 16.5605 182.589C16.6615 182.42 16.7119 182.234 16.7119 182.032V182.022C16.7119 181.756 16.6273 181.534 16.458 181.358C16.292 181.179 15.9665 181.031 15.4814 180.914L14.7539 180.738C14.3503 180.641 14.0085 180.514 13.7285 180.357C13.4518 180.198 13.2419 180.003 13.0986 179.771C12.9554 179.54 12.8838 179.265 12.8838 178.946V178.937C12.8838 178.556 12.9831 178.225 13.1816 177.945C13.3835 177.662 13.6569 177.444 14.002 177.291C14.347 177.135 14.7393 177.057 15.1787 177.057C15.5986 177.057 15.9795 177.136 16.3213 177.296C16.6663 177.455 16.9447 177.68 17.1562 177.97C17.3678 178.256 17.4801 178.593 17.4932 178.98V178.985L16.6436 178.99V178.98C16.6208 178.733 16.5426 178.523 16.4092 178.351C16.279 178.178 16.1081 178.046 15.8965 177.955C15.6849 177.864 15.4456 177.818 15.1787 177.818C14.863 177.818 14.5977 177.87 14.3828 177.975C14.168 178.076 14.0052 178.207 13.8945 178.37C13.7871 178.53 13.7334 178.699 13.7334 178.878V178.888C13.7334 179.044 13.7692 179.189 13.8408 179.322C13.9157 179.456 14.0361 179.575 14.2021 179.679C14.3682 179.783 14.5928 179.869 14.876 179.938L15.6035 180.113C16.2318 180.263 16.7152 180.479 17.0537 180.763C17.3923 181.046 17.5615 181.443 17.5615 181.954V181.964C17.5615 182.384 17.4508 182.739 17.2295 183.028C17.0081 183.315 16.7168 183.531 16.3555 183.678C15.9941 183.824 15.6019 183.897 15.1787 183.897ZM14.8662 184.708V176.246H15.4521V184.708H14.8662ZM20.6086 184V177.931H20.5305L18.7385 179.229V178.302L20.6135 176.954H21.4875V184H20.6086ZM25.682 184.166C25.1612 184.166 24.7152 184.016 24.3441 183.717C23.9763 183.417 23.6931 182.993 23.4945 182.442C23.296 181.889 23.1967 181.235 23.1967 180.479V180.47C23.1967 179.715 23.296 179.062 23.4945 178.512C23.6931 177.962 23.9763 177.537 24.3441 177.237C24.7152 176.938 25.1612 176.788 25.682 176.788C26.2029 176.788 26.6488 176.938 27.0199 177.237C27.391 177.537 27.6758 177.962 27.8744 178.512C28.0762 179.062 28.1771 179.715 28.1771 180.47V180.479C28.1771 181.235 28.0762 181.889 27.8744 182.442C27.6758 182.993 27.391 183.417 27.0199 183.717C26.6488 184.016 26.2029 184.166 25.682 184.166ZM25.682 183.399C26.0206 183.399 26.3087 183.281 26.5463 183.043C26.7872 182.805 26.9711 182.468 27.098 182.032C27.2283 181.596 27.2934 181.078 27.2934 180.479V180.47C27.2934 179.871 27.2283 179.355 27.098 178.922C26.9711 178.486 26.7872 178.15 26.5463 177.916C26.3087 177.678 26.0206 177.56 25.682 177.56C25.3467 177.56 25.0587 177.678 24.8178 177.916C24.5801 178.15 24.3979 178.486 24.2709 178.922C24.1439 179.355 24.0805 179.871 24.0805 180.47V180.479C24.0805 181.078 24.1439 181.596 24.2709 182.032C24.3979 182.468 24.5801 182.805 24.8178 183.043C25.0587 183.281 25.3467 183.399 25.682 183.399ZM30.316 181.646L30.2672 180.377H30.4918L33.5777 176.954H34.6812L31.7662 180.104L31.3561 180.499L30.316 181.646ZM29.5348 184V176.954H30.4137V184H29.5348ZM33.8023 184L31.1705 180.489L31.776 179.879L34.94 184H33.8023Z" fill="#666D80"/>
<line x1="69.5" y1="8.5" x2="69.5" y2="187.5" stroke="#DFE1E6" stroke-linecap="round" stroke-dasharray="5 5"/>
<line x1="83.1843" y1="8.5" x2="83.1843" y2="187.5" stroke="#DFE1E6" stroke-linecap="round" stroke-dasharray="5 5"/>
<line x1="96.8684" y1="8.5" x2="96.8684" y2="187.5" stroke="#DFE1E6" stroke-linecap="round" stroke-dasharray="5 5"/>
<line x1="110.553" y1="8.5" x2="110.553" y2="187.5" stroke="#DFE1E6" stroke-linecap="round" stroke-dasharray="5 5"/>
<line x1="124.237" y1="8.5" x2="124.237" y2="187.5" stroke="#DFE1E6" stroke-linecap="round" stroke-dasharray="5 5"/>
<line x1="137.921" y1="8.5" x2="137.921" y2="187.5" stroke="#DFE1E6" stroke-linecap="round" stroke-dasharray="5 5"/>
<line x1="151.605" y1="8.5" x2="151.605" y2="187.5" stroke="#DFE1E6" stroke-linecap="round" stroke-dasharray="5 5"/>
<line x1="165.29" y1="8.5" x2="165.29" y2="187.5" stroke="#DFE1E6" stroke-linecap="round" stroke-dasharray="5 5"/>
<line x1="178.974" y1="8.5" x2="178.974" y2="187.5" stroke="#0D0D12" stroke-linecap="round" stroke-dasharray="5 5"/>
<line x1="192.658" y1="8.5" x2="192.658" y2="187.5" stroke="#DFE1E6" stroke-linecap="round" stroke-dasharray="5 5"/>
<line x1="206.342" y1="8.5" x2="206.342" y2="187.5" stroke="#DFE1E6" stroke-linecap="round" stroke-dasharray="5 5"/>
<line x1="220.026" y1="8.5" x2="220.026" y2="187.5" stroke="#DFE1E6" stroke-linecap="round" stroke-dasharray="5 5"/>
<line x1="233.71" y1="8.5" x2="233.71" y2="187.5" stroke="#DFE1E6" stroke-linecap="round" stroke-dasharray="5 5"/>
<line x1="247.395" y1="8.5" x2="247.395" y2="187.5" stroke="#DFE1E6" stroke-linecap="round" stroke-dasharray="5 5"/>
<line x1="261.079" y1="8.5" x2="261.079" y2="187.5" stroke="#DFE1E6" stroke-linecap="round" stroke-dasharray="5 5"/>
<line x1="274.763" y1="8.5" x2="274.763" y2="187.5" stroke="#DFE1E6" stroke-linecap="round" stroke-dasharray="5 5"/>
<line x1="288.447" y1="8.5" x2="288.447" y2="187.5" stroke="#DFE1E6" stroke-linecap="round" stroke-dasharray="5 5"/>
<line x1="302.132" y1="8.5" x2="302.132" y2="187.5" stroke="#DFE1E6" stroke-linecap="round" stroke-dasharray="5 5"/>
<line x1="315.816" y1="8.5" x2="315.816" y2="187.5" stroke="#DFE1E6" stroke-linecap="round" stroke-dasharray="5 5"/>
<line x1="329.5" y1="8.5" x2="329.5" y2="187.5" stroke="#DFE1E6" stroke-linecap="round" stroke-dasharray="5 5"/>
<path d="M53.1864 95.5451C50.2968 95.9906 32.8465 120.299 30.125 119.997V187.5H329.493V67.8552C329.493 67.8552 307.27 66.8334 306.289 67.4705C303.854 69.0514 285.979 109.792 282.398 111C279.534 111.966 262.234 89.4493 258.851 87.9999C255.645 86.6262 245.533 91.6904 242.503 89.9999C239.66 88.414 215.007 59.3333 211.756 57.4999C207.701 55.2133 191.496 61.2446 188.058 60.4999C185.337 59.9104 174.848 45.2994 172.16 46.9999C168.975 48.3927 144.244 95.4999 140.663 95.4999C137.082 95.4999 126.627 74.9999 124.765 74.9999C120.611 74.9999 105.938 73.4999 101.067 73.4999C99.1265 73.4999 81.6806 98.1947 77.67 99.4999C73.6593 100.805 56.076 95.0995 53.1864 95.5451Z" fill="url(#paint0_linear_186_10402)" fill-opacity="0.12"/>
<g filter="url(#filter0_d_186_10402)">
<path d="M30.125 119.997C32.8465 120.299 50.2968 95.9906 53.1864 95.5451C56.076 95.0995 73.6593 100.805 77.67 99.4999C81.6806 98.1947 99.1265 73.4999 101.067 73.4999C105.938 73.4999 120.611 74.9999 124.765 74.9999C126.627 74.9999 137.082 95.4999 140.663 95.4999C144.244 95.4999 168.975 48.3927 172.16 46.9999C174.848 45.2994 185.337 59.9104 188.058 60.4999C191.496 61.2446 207.701 55.2133 211.756 57.4999C215.007 59.3333 239.66 88.414 242.503 89.9999C245.533 91.6904 255.645 86.6262 258.851 87.9999C262.234 89.4493 279.534 111.966 282.398 111C285.979 109.792 303.854 69.0514 306.289 67.4705C307.27 66.8334 329.493 67.8552 329.493 67.8552" stroke="#4E57EF" stroke-width="2" stroke-linecap="round"/>
</g>
<g filter="url(#filter1_d_186_10402)">
<path d="M329.494 169.999C326.773 170.106 309.322 161.465 306.433 161.306C303.543 161.148 285.96 163.176 281.949 162.712C277.938 162.248 260.493 153.47 258.552 153.47C253.682 153.47 239.008 154.003 234.854 154.003C232.992 154.003 222.537 161.29 218.956 161.29C215.375 161.29 190.644 144.544 187.459 144.049C184.771 143.444 174.282 148.639 171.561 148.848C168.123 149.113 151.918 146.969 147.863 147.782C144.613 148.433 119.959 158.771 117.117 159.335C114.087 159.936 103.975 158.136 100.768 158.624C97.3856 159.139 80.0856 167.144 77.2208 166.801C73.6399 166.371 55.7655 151.888 53.3305 151.326C52.3491 151.1 30.1258 151.463 30.1258 151.463" stroke="#33CFFF" stroke-width="2" stroke-linecap="round"/>
</g>
<g filter="url(#filter2_d_186_10402)">
<rect x="184" y="50" width="106.987" height="79" rx="10" fill="white"/>
<path d="M198.671 71V64.9014H196.454V63.9541H201.981V64.9014H199.765V71H198.671ZM204.286 71.1025C203.769 71.1025 203.321 70.9919 202.944 70.7705C202.569 70.5492 202.281 70.2334 202.079 69.8232C201.877 69.4098 201.777 68.9199 201.777 68.3535V68.3438C201.777 67.7741 201.877 67.2842 202.079 66.874C202.284 66.4639 202.574 66.1481 202.948 65.9268C203.326 65.7054 203.772 65.5947 204.286 65.5947C204.804 65.5947 205.25 65.7054 205.624 65.9268C205.999 66.1449 206.287 66.4606 206.488 66.874C206.694 67.2842 206.796 67.7741 206.796 68.3438V68.3535C206.796 68.9199 206.694 69.4098 206.488 69.8232C206.287 70.2334 205.999 70.5492 205.624 70.7705C205.253 70.9919 204.807 71.1025 204.286 71.1025ZM204.286 70.2139C204.589 70.2139 204.846 70.1406 205.058 69.9941C205.269 69.8444 205.431 69.6312 205.541 69.3545C205.652 69.0778 205.707 68.7441 205.707 68.3535V68.3438C205.707 67.9499 205.652 67.6146 205.541 67.3379C205.431 67.0612 205.269 66.8496 205.058 66.7031C204.846 66.5534 204.589 66.4785 204.286 66.4785C203.984 66.4785 203.726 66.5534 203.515 66.7031C203.303 66.8496 203.14 67.0612 203.027 67.3379C202.916 67.6146 202.861 67.9499 202.861 68.3438V68.3535C202.861 68.7441 202.916 69.0778 203.027 69.3545C203.14 69.6312 203.303 69.8444 203.515 69.9941C203.726 70.1406 203.984 70.2139 204.286 70.2139ZM209.858 71.0342C209.278 71.0342 208.858 70.9235 208.598 70.7021C208.341 70.4775 208.212 70.1113 208.212 69.6035V66.5322H207.382V65.6973H208.212V64.3594H209.296V65.6973H210.434V66.5322H209.296V69.3447C209.296 69.6312 209.353 69.8379 209.467 69.9648C209.581 70.0885 209.77 70.1504 210.034 70.1504C210.112 70.1504 210.178 70.1488 210.234 70.1455C210.292 70.1423 210.359 70.1374 210.434 70.1309V70.9805C210.349 70.9935 210.258 71.0049 210.161 71.0146C210.063 71.0277 209.962 71.0342 209.858 71.0342ZM212.929 71.0879C212.594 71.0879 212.293 71.0244 212.026 70.8975C211.762 70.7673 211.554 70.5833 211.401 70.3457C211.248 70.1081 211.171 69.8298 211.171 69.5107V69.501C211.171 69.182 211.248 68.9102 211.401 68.6855C211.557 68.4609 211.782 68.2852 212.075 68.1582C212.371 68.028 212.729 67.9499 213.149 67.9238L215.107 67.8066V68.5537L213.296 68.6709C212.931 68.6937 212.662 68.7718 212.49 68.9053C212.317 69.0355 212.231 69.2194 212.231 69.457V69.4668C212.231 69.7077 212.324 69.8981 212.509 70.0381C212.695 70.1748 212.929 70.2432 213.212 70.2432C213.476 70.2432 213.711 70.1911 213.916 70.0869C214.124 69.9795 214.287 69.8363 214.404 69.6572C214.521 69.4749 214.58 69.2699 214.58 69.042V67.3721C214.58 67.0791 214.489 66.8561 214.306 66.7031C214.127 66.5469 213.86 66.4688 213.505 66.4688C213.209 66.4688 212.967 66.5208 212.778 66.625C212.592 66.7292 212.469 66.8757 212.407 67.0645L212.397 67.0791H211.377L211.381 67.0449C211.424 66.752 211.539 66.498 211.728 66.2832C211.92 66.0651 212.171 65.8958 212.48 65.7754C212.793 65.6549 213.149 65.5947 213.549 65.5947C213.995 65.5947 214.373 65.6663 214.682 65.8096C214.995 65.9495 215.231 66.153 215.39 66.4199C215.553 66.6836 215.634 67.001 215.634 67.3721V71H214.58V70.248H214.502C214.397 70.4271 214.267 70.5801 214.111 70.707C213.955 70.8307 213.777 70.9251 213.579 70.9902C213.38 71.0553 213.164 71.0879 212.929 71.0879ZM216.977 71V63.6172H218.037V71H216.977ZM222.061 71V63.9541H224.839C225.321 63.9541 225.737 64.0436 226.089 64.2227C226.441 64.3984 226.711 64.6475 226.9 64.9697C227.092 65.2887 227.188 65.6663 227.188 66.1025V66.1123C227.188 66.5876 227.067 67.0059 226.826 67.3672C226.585 67.7253 226.25 67.9775 225.821 68.124L227.398 71H226.133L224.697 68.29C224.688 68.29 224.678 68.29 224.668 68.29C224.658 68.29 224.649 68.29 224.639 68.29H223.154V71H222.061ZM223.154 67.4014H224.732C225.152 67.4014 225.477 67.2923 225.708 67.0742C225.939 66.8529 226.055 66.542 226.055 66.1416V66.1318C226.055 65.7412 225.934 65.4336 225.694 65.209C225.456 64.9844 225.124 64.8721 224.697 64.8721H223.154V67.4014ZM230.498 71.1025C229.981 71.1025 229.537 70.9919 229.165 70.7705C228.794 70.5459 228.508 70.2285 228.306 69.8184C228.107 69.4082 228.008 68.9232 228.008 68.3633V68.3584C228.008 67.805 228.107 67.3216 228.306 66.9082C228.508 66.4948 228.791 66.1725 229.156 65.9414C229.524 65.7103 229.953 65.5947 230.445 65.5947C230.94 65.5947 231.364 65.7054 231.719 65.9268C232.077 66.1481 232.352 66.459 232.544 66.8594C232.736 67.2565 232.832 67.722 232.832 68.2559V68.627H228.545V67.8701H232.305L231.797 68.5732V68.1484C231.797 67.7708 231.739 67.4583 231.621 67.2109C231.508 66.9603 231.35 66.7731 231.148 66.6494C230.946 66.5257 230.713 66.4639 230.45 66.4639C230.186 66.4639 229.95 66.529 229.742 66.6592C229.537 66.7861 229.374 66.9749 229.253 67.2256C229.136 67.4762 229.078 67.7839 229.078 68.1484V68.5732C229.078 68.9215 229.136 69.2194 229.253 69.4668C229.371 69.7142 229.537 69.903 229.751 70.0332C229.969 70.1634 230.227 70.2285 230.523 70.2285C230.751 70.2285 230.946 70.1976 231.109 70.1357C231.275 70.0706 231.41 69.9909 231.514 69.8965C231.621 69.8021 231.695 69.7093 231.734 69.6182L231.753 69.5791H232.779L232.769 69.623C232.723 69.7988 232.644 69.9746 232.53 70.1504C232.416 70.3229 232.264 70.4808 232.076 70.624C231.89 70.7673 231.665 70.8828 231.402 70.9707C231.141 71.0586 230.84 71.1025 230.498 71.1025ZM235.235 71L233.316 65.6973H234.444L235.767 69.9258H235.845L237.164 65.6973H238.282L236.368 71H235.235ZM241.173 71.1025C240.655 71.1025 240.211 70.9919 239.84 70.7705C239.469 70.5459 239.182 70.2285 238.98 69.8184C238.782 69.4082 238.682 68.9232 238.682 68.3633V68.3584C238.682 67.805 238.782 67.3216 238.98 66.9082C239.182 66.4948 239.465 66.1725 239.83 65.9414C240.198 65.7103 240.627 65.5947 241.119 65.5947C241.614 65.5947 242.039 65.7054 242.393 65.9268C242.751 66.1481 243.026 66.459 243.219 66.8594C243.411 67.2565 243.507 67.722 243.507 68.2559V68.627H239.22V67.8701H242.979L242.471 68.5732V68.1484C242.471 67.7708 242.413 67.4583 242.296 67.2109C242.182 66.9603 242.024 66.7731 241.822 66.6494C241.62 66.5257 241.388 66.4639 241.124 66.4639C240.86 66.4639 240.624 66.529 240.416 66.6592C240.211 66.7861 240.048 66.9749 239.928 67.2256C239.81 67.4762 239.752 67.7839 239.752 68.1484V68.5732C239.752 68.9215 239.81 69.2194 239.928 69.4668C240.045 69.7142 240.211 69.903 240.426 70.0332C240.644 70.1634 240.901 70.2285 241.197 70.2285C241.425 70.2285 241.62 70.1976 241.783 70.1357C241.949 70.0706 242.084 69.9909 242.188 69.8965C242.296 69.8021 242.369 69.7093 242.408 69.6182L242.428 69.5791H243.453L243.443 69.623C243.398 69.7988 243.318 69.9746 243.204 70.1504C243.09 70.3229 242.939 70.4808 242.75 70.624C242.564 70.7673 242.34 70.8828 242.076 70.9707C241.816 71.0586 241.514 71.1025 241.173 71.1025ZM244.566 71V65.6973H245.626V66.498H245.709C245.839 66.2148 246.031 65.9935 246.285 65.834C246.539 65.6745 246.86 65.5947 247.247 65.5947C247.843 65.5947 248.299 65.7656 248.614 66.1074C248.93 66.4492 249.088 66.9359 249.088 67.5674V71H248.023V67.8164C248.023 67.3737 247.931 67.0449 247.745 66.8301C247.563 66.612 247.276 66.5029 246.886 66.5029C246.629 66.5029 246.406 66.5599 246.217 66.6738C246.028 66.7845 245.882 66.944 245.777 67.1523C245.676 67.3574 245.626 67.6032 245.626 67.8896V71H244.566ZM252.13 71.1025C251.733 71.1025 251.398 71.026 251.124 70.873C250.854 70.7168 250.651 70.4922 250.514 70.1992C250.38 69.903 250.314 69.5465 250.314 69.1299V65.6973H251.373V68.8809C251.373 69.3171 251.46 69.6442 251.632 69.8623C251.805 70.0804 252.086 70.1895 252.477 70.1895C252.685 70.1895 252.871 70.1585 253.033 70.0967C253.196 70.0316 253.333 69.9388 253.444 69.8184C253.554 69.6979 253.636 69.5531 253.688 69.3838C253.743 69.2145 253.771 69.0225 253.771 68.8076V65.6973H254.835V71H253.771V70.1992H253.693C253.608 70.388 253.492 70.5508 253.346 70.6875C253.199 70.821 253.024 70.9235 252.819 70.9951C252.617 71.0667 252.387 71.1025 252.13 71.1025ZM258.385 71.1025C257.868 71.1025 257.423 70.9919 257.052 70.7705C256.681 70.5459 256.395 70.2285 256.193 69.8184C255.994 69.4082 255.895 68.9232 255.895 68.3633V68.3584C255.895 67.805 255.994 67.3216 256.193 66.9082C256.395 66.4948 256.678 66.1725 257.042 65.9414C257.41 65.7103 257.84 65.5947 258.331 65.5947C258.826 65.5947 259.251 65.7054 259.606 65.9268C259.964 66.1481 260.239 66.459 260.431 66.8594C260.623 67.2565 260.719 67.722 260.719 68.2559V68.627H256.432V67.8701H260.192L259.684 68.5732V68.1484C259.684 67.7708 259.625 67.4583 259.508 67.2109C259.394 66.9603 259.236 66.7731 259.035 66.6494C258.833 66.5257 258.6 66.4639 258.336 66.4639C258.073 66.4639 257.837 66.529 257.628 66.6592C257.423 66.7861 257.26 66.9749 257.14 67.2256C257.023 67.4762 256.964 67.7839 256.964 68.1484V68.5732C256.964 68.9215 257.023 69.2194 257.14 69.4668C257.257 69.7142 257.423 69.903 257.638 70.0332C257.856 70.1634 258.113 70.2285 258.41 70.2285C258.637 70.2285 258.833 70.1976 258.996 70.1357C259.162 70.0706 259.297 69.9909 259.401 69.8965C259.508 69.8021 259.581 69.7093 259.621 69.6182L259.64 69.5791H260.665L260.656 69.623C260.61 69.7988 260.53 69.9746 260.416 70.1504C260.302 70.3229 260.151 70.4808 259.962 70.624C259.777 70.7673 259.552 70.8828 259.288 70.9707C259.028 71.0586 258.727 71.1025 258.385 71.1025Z" fill="#0D0D12"/>
<line x1="196" y1="82.5" x2="278.987" y2="82.5" stroke="#DFE1E6"/>
<path d="M196.719 100V94.3633H200.141V94.9961H197.422V96.9336H199.918V97.5586H197.422V100H196.719ZM202.77 100.074C202.369 100.074 202.024 99.9857 201.735 99.8086C201.448 99.6315 201.227 99.3815 201.07 99.0586C200.917 98.7331 200.84 98.3503 200.84 97.9102V97.9062C200.84 97.4714 200.917 97.0898 201.07 96.7617C201.227 96.4336 201.447 96.1771 201.731 95.9922C202.014 95.8073 202.347 95.7148 202.727 95.7148C203.11 95.7148 203.438 95.8034 203.711 95.9805C203.987 96.1576 204.198 96.4049 204.344 96.7227C204.492 97.0378 204.567 97.4049 204.567 97.8242V98.0898H201.192V97.5469H204.219L203.883 98.043V97.7734C203.883 97.4427 203.833 97.1706 203.735 96.957C203.636 96.7435 203.499 96.5846 203.324 96.4805C203.15 96.3737 202.949 96.3203 202.723 96.3203C202.496 96.3203 202.293 96.3763 202.113 96.4883C201.936 96.5977 201.796 96.7604 201.692 96.9766C201.587 97.1927 201.535 97.4583 201.535 97.7734V98.043C201.535 98.3424 201.586 98.599 201.688 98.8125C201.789 99.0234 201.934 99.1862 202.121 99.3008C202.309 99.4128 202.53 99.4688 202.785 99.4688C202.975 99.4688 203.141 99.4427 203.281 99.3906C203.422 99.3385 203.538 99.2721 203.629 99.1914C203.72 99.1107 203.784 99.0286 203.82 98.9453L203.836 98.9102H204.516L204.508 98.9414C204.472 99.0846 204.406 99.224 204.313 99.3594C204.222 99.4922 204.103 99.6133 203.957 99.7227C203.811 99.8294 203.638 99.9154 203.438 99.9805C203.24 100.043 203.017 100.074 202.77 100.074ZM207.555 100.074C207.36 100.074 207.179 100.044 207.012 99.9844C206.845 99.9245 206.697 99.8398 206.567 99.7305C206.437 99.6185 206.328 99.4844 206.243 99.3281H206.18V100H205.5V94.1172H206.18V96.4531H206.243C206.321 96.3021 206.425 96.1719 206.555 96.0625C206.688 95.9531 206.839 95.8685 207.008 95.8086C207.18 95.7461 207.362 95.7148 207.555 95.7148C207.912 95.7148 208.222 95.8047 208.485 95.9844C208.75 96.1641 208.956 96.4167 209.102 96.7422C209.248 97.0677 209.321 97.4505 209.321 97.8906V97.8984C209.321 98.3359 209.248 98.7188 209.102 99.0469C208.956 99.3724 208.75 99.625 208.485 99.8047C208.222 99.9844 207.912 100.074 207.555 100.074ZM207.399 99.4727C207.657 99.4727 207.877 99.4102 208.059 99.2852C208.241 99.1576 208.381 98.9766 208.477 98.7422C208.576 98.5052 208.625 98.224 208.625 97.8984V97.8906C208.625 97.5625 208.576 97.2812 208.477 97.0469C208.381 96.8125 208.241 96.6328 208.059 96.5078C207.877 96.3802 207.657 96.3164 207.399 96.3164C207.144 96.3164 206.923 96.3802 206.739 96.5078C206.554 96.6354 206.412 96.8164 206.313 97.0508C206.214 97.2852 206.164 97.5651 206.164 97.8906V97.8984C206.164 98.2214 206.214 98.5013 206.313 98.7383C206.412 98.9727 206.554 99.1536 206.739 99.2812C206.923 99.4089 207.144 99.4727 207.399 99.4727ZM213.68 100V95.1445H213.618L212.184 96.1836V95.4414L213.684 94.3633H214.383V100H213.68ZM215.852 100V99.5156L217.759 97.4531C217.998 97.1927 218.186 96.9779 218.321 96.8086C218.457 96.6367 218.552 96.4818 218.606 96.3438C218.661 96.2057 218.688 96.0547 218.688 95.8906V95.8828C218.688 95.6849 218.645 95.5078 218.559 95.3516C218.473 95.1953 218.351 95.0716 218.192 94.9805C218.033 94.8893 217.843 94.8438 217.622 94.8438C217.398 94.8438 217.201 94.8906 217.032 94.9844C216.863 95.0755 216.731 95.2044 216.638 95.3711C216.544 95.5352 216.497 95.7279 216.497 95.9492L216.493 95.957L215.821 95.9531L215.813 95.9492C215.816 95.6159 215.897 95.3203 216.055 95.0625C216.214 94.8021 216.433 94.599 216.712 94.4531C216.99 94.3047 217.309 94.2305 217.669 94.2305C217.997 94.2305 218.292 94.2995 218.555 94.4375C218.818 94.5729 219.026 94.7591 219.177 94.9961C219.33 95.2331 219.407 95.5039 219.407 95.8086V95.8164C219.407 96.0299 219.369 96.2357 219.294 96.4336C219.221 96.6315 219.091 96.8516 218.903 97.0938C218.716 97.3333 218.451 97.6289 218.11 97.9805L216.653 99.4844L216.829 99.1602V99.4844L216.657 99.3672H219.501V100H215.852ZM220.235 101.434L220.575 99.2109H221.353L220.739 101.434H220.235ZM224.708 100V99.5156L226.615 97.4531C226.854 97.1927 227.042 96.9779 227.177 96.8086C227.312 96.6367 227.407 96.4818 227.462 96.3438C227.517 96.2057 227.544 96.0547 227.544 95.8906V95.8828C227.544 95.6849 227.501 95.5078 227.415 95.3516C227.329 95.1953 227.207 95.0716 227.048 94.9805C226.889 94.8893 226.699 94.8438 226.478 94.8438C226.254 94.8438 226.057 94.8906 225.888 94.9844C225.719 95.0755 225.587 95.2044 225.493 95.3711C225.4 95.5352 225.353 95.7279 225.353 95.9492L225.349 95.957L224.677 95.9531L224.669 95.9492C224.672 95.6159 224.753 95.3203 224.911 95.0625C225.07 94.8021 225.289 94.599 225.568 94.4531C225.846 94.3047 226.165 94.2305 226.525 94.2305C226.853 94.2305 227.148 94.2995 227.411 94.4375C227.674 94.5729 227.881 94.7591 228.032 94.9961C228.186 95.2331 228.263 95.5039 228.263 95.8086V95.8164C228.263 96.0299 228.225 96.2357 228.15 96.4336C228.077 96.6315 227.947 96.8516 227.759 97.0938C227.572 97.3333 227.307 97.6289 226.966 97.9805L225.509 99.4844L225.685 99.1602V99.4844L225.513 99.3672H228.357V100H224.708ZM231.263 100.133C230.846 100.133 230.49 100.013 230.193 99.7734C229.899 99.5339 229.672 99.194 229.513 98.7539C229.354 98.3112 229.275 97.7878 229.275 97.1836V97.1758C229.275 96.5716 229.354 96.0495 229.513 95.6094C229.672 95.1693 229.899 94.8294 230.193 94.5898C230.49 94.3503 230.846 94.2305 231.263 94.2305C231.68 94.2305 232.037 94.3503 232.333 94.5898C232.63 94.8294 232.858 95.1693 233.017 95.6094C233.178 96.0495 233.259 96.5716 233.259 97.1758V97.1836C233.259 97.7878 233.178 98.3112 233.017 98.7539C232.858 99.194 232.63 99.5339 232.333 99.7734C232.037 100.013 231.68 100.133 231.263 100.133ZM231.263 99.5195C231.534 99.5195 231.764 99.4245 231.955 99.2344C232.147 99.0443 232.294 98.7747 232.396 98.4258C232.5 98.0768 232.552 97.6628 232.552 97.1836V97.1758C232.552 96.6966 232.5 96.2839 232.396 95.9375C232.294 95.5885 232.147 95.3203 231.955 95.1328C231.764 94.9427 231.534 94.8477 231.263 94.8477C230.995 94.8477 230.764 94.9427 230.572 95.1328C230.382 95.3203 230.236 95.5885 230.134 95.9375C230.033 96.2839 229.982 96.6966 229.982 97.1758V97.1836C229.982 97.6628 230.033 98.0768 230.134 98.4258C230.236 98.7747 230.382 99.0443 230.572 99.2344C230.764 99.4245 230.995 99.5195 231.263 99.5195ZM234.255 100V99.5156L236.162 97.4531C236.401 97.1927 236.589 96.9779 236.724 96.8086C236.86 96.6367 236.955 96.4818 237.009 96.3438C237.064 96.2057 237.091 96.0547 237.091 95.8906V95.8828C237.091 95.6849 237.048 95.5078 236.963 95.3516C236.877 95.1953 236.754 95.0716 236.595 94.9805C236.436 94.8893 236.246 94.8438 236.025 94.8438C235.801 94.8438 235.604 94.8906 235.435 94.9844C235.266 95.0755 235.134 95.2044 235.041 95.3711C234.947 95.5352 234.9 95.7279 234.9 95.9492L234.896 95.957L234.224 95.9531L234.216 95.9492C234.219 95.6159 234.3 95.3203 234.459 95.0625C234.617 94.8021 234.836 94.599 235.115 94.4531C235.393 94.3047 235.713 94.2305 236.072 94.2305C236.4 94.2305 236.696 94.2995 236.959 94.4375C237.222 94.5729 237.429 94.7591 237.58 94.9961C237.733 95.2331 237.81 95.5039 237.81 95.8086V95.8164C237.81 96.0299 237.772 96.2357 237.697 96.4336C237.624 96.6315 237.494 96.8516 237.306 97.0938C237.119 97.3333 236.854 97.6289 236.513 97.9805L235.056 99.4844L235.232 99.1602V99.4844L235.06 99.3672H237.904V100H234.255ZM241.381 100V98.832H238.635V98.1914C238.788 97.9362 238.944 97.6784 239.103 97.418C239.262 97.1549 239.422 96.8932 239.584 96.6328C239.748 96.3698 239.912 96.1094 240.076 95.8516C240.24 95.5938 240.403 95.3398 240.564 95.0898C240.728 94.8398 240.89 94.5977 241.049 94.3633H242.068V98.2031H242.869V98.832H242.068V100H241.381ZM239.353 98.207H241.385V95.0156H241.338C241.21 95.2057 241.08 95.4036 240.947 95.6094C240.814 95.8125 240.679 96.0208 240.541 96.2344C240.405 96.4479 240.27 96.6628 240.135 96.8789C239.999 97.0951 239.865 97.3112 239.732 97.5273C239.602 97.7409 239.476 97.9518 239.353 98.1602V98.207Z" fill="#666D80"/>
<path d="M254.624 99.918C254.244 99.918 253.899 99.8568 253.589 99.7344C253.279 99.6094 253.032 99.4297 252.847 99.1953C252.662 98.9583 252.563 98.6719 252.55 98.3359L252.554 98.332L253.46 98.3281L253.464 98.3359C253.487 98.4948 253.545 98.6354 253.636 98.7578C253.727 98.8776 253.854 98.9714 254.019 99.0391C254.183 99.1068 254.388 99.1406 254.636 99.1406C254.891 99.1406 255.101 99.1107 255.265 99.0508C255.429 98.9883 255.55 98.9023 255.628 98.793C255.706 98.6836 255.745 98.5573 255.745 98.4141V98.4062C255.745 98.2135 255.676 98.0586 255.538 97.9414C255.403 97.8242 255.153 97.7227 254.788 97.6367L254.206 97.5039C253.873 97.4258 253.59 97.3216 253.358 97.1914C253.129 97.0612 252.955 96.8997 252.835 96.707C252.718 96.5117 252.659 96.2786 252.659 96.0078V96C252.659 95.6797 252.744 95.4036 252.913 95.1719C253.085 94.9401 253.318 94.7617 253.612 94.6367C253.909 94.5091 254.245 94.4453 254.62 94.4453C255.003 94.4453 255.341 94.5117 255.636 94.6445C255.93 94.7747 256.164 94.9596 256.339 95.1992C256.513 95.4362 256.606 95.7161 256.616 96.0391V96.043L255.71 96.0469L255.706 96.0391C255.688 95.862 255.631 95.7135 255.534 95.5938C255.438 95.4714 255.313 95.3789 255.159 95.3164C255.006 95.2539 254.83 95.2227 254.632 95.2227C254.405 95.2227 254.215 95.2552 254.062 95.3203C253.908 95.3854 253.792 95.4714 253.714 95.5781C253.636 95.6849 253.597 95.8021 253.597 95.9297V95.9375C253.597 96.0521 253.627 96.1549 253.687 96.2461C253.749 96.3372 253.845 96.418 253.976 96.4883C254.108 96.5586 254.283 96.6198 254.499 96.6719L255.081 96.8047C255.602 96.9245 255.999 97.1003 256.272 97.332C256.546 97.5638 256.683 97.8906 256.683 98.3125V98.3203C256.683 98.6641 256.591 98.9557 256.409 99.1953C256.227 99.4323 255.979 99.612 255.667 99.7344C255.357 99.8568 255.009 99.918 254.624 99.918ZM254.405 100.559V93.7969H254.858V100.559H254.405ZM259.05 100V95.3555H258.98L257.577 96.3438V95.3984L259.05 94.3633H260.054V100H259.05ZM263.566 100.113C263.133 100.113 262.752 100.044 262.421 99.9062C262.09 99.7656 261.831 99.5729 261.644 99.3281C261.459 99.0807 261.367 98.7969 261.367 98.4766V98.4688C261.367 98.2266 261.42 98.0078 261.527 97.8125C261.636 97.6146 261.787 97.4479 261.98 97.3125C262.173 97.1771 262.394 97.0846 262.644 97.0352V97.0117C262.321 96.9258 262.061 96.7721 261.863 96.5508C261.667 96.3268 261.57 96.0638 261.57 95.7617V95.7539C261.57 95.4648 261.654 95.207 261.824 94.9805C261.995 94.7539 262.231 94.5755 262.531 94.4453C262.833 94.3151 263.178 94.25 263.566 94.25C263.954 94.25 264.298 94.3151 264.597 94.4453C264.899 94.5755 265.135 94.7539 265.304 94.9805C265.473 95.207 265.558 95.4648 265.558 95.7539V95.7617C265.558 96.0638 265.46 96.3268 265.265 96.5508C265.07 96.7721 264.811 96.9258 264.488 97.0117V97.0352C264.738 97.0846 264.959 97.1771 265.152 97.3125C265.344 97.4479 265.494 97.6146 265.601 97.8125C265.71 98.0078 265.765 98.2266 265.765 98.4688V98.4766C265.765 98.7969 265.671 99.0807 265.484 99.3281C265.299 99.5729 265.041 99.7656 264.71 99.9062C264.38 100.044 263.998 100.113 263.566 100.113ZM263.566 99.3438C263.792 99.3438 263.992 99.3047 264.163 99.2266C264.338 99.1458 264.475 99.0352 264.574 98.8945C264.673 98.7513 264.722 98.5898 264.722 98.4102V98.4023C264.722 98.2201 264.673 98.0586 264.574 97.918C264.477 97.7747 264.342 97.6628 264.167 97.582C263.993 97.5013 263.792 97.4609 263.566 97.4609C263.337 97.4609 263.135 97.5013 262.96 97.582C262.788 97.6628 262.653 97.7747 262.554 97.918C262.455 98.0586 262.406 98.2201 262.406 98.4023V98.4102C262.406 98.5898 262.455 98.7513 262.554 98.8945C262.656 99.0352 262.792 99.1458 262.964 99.2266C263.139 99.3047 263.339 99.3438 263.566 99.3438ZM263.566 96.6914C263.764 96.6914 263.937 96.6562 264.085 96.5859C264.236 96.513 264.354 96.4141 264.437 96.2891C264.523 96.1641 264.566 96.0182 264.566 95.8516V95.8438C264.566 95.6797 264.523 95.5352 264.437 95.4102C264.354 95.2852 264.236 95.1875 264.085 95.1172C263.934 95.0469 263.761 95.0117 263.566 95.0117C263.368 95.0117 263.193 95.0469 263.042 95.1172C262.894 95.1875 262.777 95.2852 262.691 95.4102C262.607 95.5352 262.566 95.6797 262.566 95.8438V95.8516C262.566 96.0182 262.607 96.1641 262.691 96.2891C262.777 96.4141 262.894 96.513 263.042 96.5859C263.193 96.6562 263.368 96.6914 263.566 96.6914ZM267.121 100.074C266.944 100.074 266.795 100.016 266.675 99.8984C266.558 99.7786 266.499 99.6328 266.499 99.4609C266.499 99.2865 266.558 99.1406 266.675 99.0234C266.795 98.9036 266.944 98.8438 267.121 98.8438C267.3 98.8438 267.449 98.9036 267.566 99.0234C267.683 99.1406 267.742 99.2865 267.742 99.4609C267.742 99.6328 267.683 99.7786 267.566 99.8984C267.449 100.016 267.3 100.074 267.121 100.074ZM270.652 100.141C270.269 100.141 269.932 100.069 269.64 99.9258C269.349 99.7826 269.117 99.5885 268.945 99.3438C268.773 99.0964 268.674 98.819 268.648 98.5117L268.644 98.4609H269.57L269.578 98.4883C269.604 98.6419 269.665 98.7812 269.761 98.9062C269.858 99.0312 269.983 99.1315 270.136 99.207C270.29 99.2799 270.463 99.3164 270.656 99.3164C270.875 99.3164 271.067 99.2682 271.234 99.1719C271.403 99.0755 271.535 98.9427 271.629 98.7734C271.722 98.6016 271.769 98.4062 271.769 98.1875V98.1797C271.769 97.9609 271.721 97.7682 271.625 97.6016C271.531 97.4323 271.401 97.3008 271.234 97.207C271.07 97.1107 270.88 97.0625 270.664 97.0625C270.505 97.0625 270.358 97.0859 270.222 97.1328C270.089 97.1797 269.971 97.25 269.867 97.3438C269.815 97.388 269.767 97.4375 269.722 97.4922C269.678 97.5443 269.639 97.6016 269.605 97.6641H268.742L269.015 94.3633H272.398V95.1875H269.8L269.64 96.9062H269.711C269.789 96.7786 269.888 96.6706 270.007 96.582C270.127 96.4909 270.264 96.4219 270.418 96.375C270.571 96.3255 270.735 96.3008 270.91 96.3008C271.264 96.3008 271.576 96.3815 271.847 96.543C272.121 96.7018 272.336 96.9219 272.492 97.2031C272.648 97.4818 272.726 97.8008 272.726 98.1602V98.168C272.726 98.5586 272.638 98.9023 272.461 99.1992C272.286 99.4935 272.043 99.724 271.73 99.8906C271.418 100.057 271.058 100.141 270.652 100.141ZM274.672 98.2773L274.633 96.9688H274.816L277.039 94.3633H278.191L275.988 96.9062L275.426 97.4023L274.672 98.2773ZM273.742 100V94.3633H274.75V100H273.742ZM277.133 100L275.285 97.3945L275.996 96.7227L278.363 100H277.133Z" fill="#4E57EF"/>
<path d="M197.926 116.133C197.681 116.133 197.464 116.098 197.273 116.027C197.083 115.957 196.922 115.858 196.789 115.73C196.656 115.603 196.552 115.453 196.477 115.281C196.401 115.109 196.355 114.922 196.34 114.719L196.336 114.664H197.039L197.043 114.703C197.059 114.844 197.1 114.974 197.168 115.094C197.236 115.211 197.332 115.306 197.457 115.379C197.582 115.449 197.737 115.484 197.922 115.484C198.234 115.484 198.473 115.395 198.637 115.215C198.801 115.033 198.883 114.77 198.883 114.426V110.363H199.586V114.434C199.586 114.788 199.52 115.092 199.387 115.348C199.257 115.6 199.068 115.794 198.82 115.93C198.573 116.065 198.275 116.133 197.926 116.133ZM201.934 116.074C201.668 116.074 201.429 116.023 201.215 115.922C201.004 115.82 200.836 115.676 200.711 115.488C200.589 115.301 200.528 115.079 200.528 114.824V114.816C200.528 114.566 200.587 114.353 200.707 114.176C200.827 113.996 201.001 113.855 201.231 113.754C201.46 113.652 201.737 113.592 202.063 113.574L203.61 113.48V114.023L202.145 114.117C201.824 114.135 201.59 114.202 201.442 114.316C201.296 114.431 201.223 114.592 201.223 114.801V114.809C201.223 115.022 201.304 115.189 201.465 115.309C201.626 115.426 201.83 115.484 202.074 115.484C202.306 115.484 202.512 115.439 202.692 115.348C202.871 115.254 203.012 115.128 203.113 114.969C203.218 114.81 203.27 114.63 203.27 114.43V113.117C203.27 112.857 203.19 112.659 203.031 112.523C202.875 112.385 202.639 112.316 202.324 112.316C202.072 112.316 201.865 112.362 201.703 112.453C201.542 112.542 201.434 112.668 201.379 112.832L201.375 112.844H200.695L200.699 112.82C200.736 112.599 200.827 112.406 200.973 112.242C201.121 112.076 201.313 111.947 201.547 111.855C201.781 111.762 202.048 111.715 202.348 111.715C202.692 111.715 202.982 111.771 203.219 111.883C203.458 111.995 203.639 112.156 203.762 112.367C203.887 112.576 203.949 112.826 203.949 113.117V116H203.27V115.379H203.207C203.119 115.527 203.011 115.654 202.883 115.758C202.758 115.862 202.616 115.941 202.457 115.996C202.298 116.048 202.124 116.074 201.934 116.074ZM205.032 116V111.789H205.711V112.422H205.774C205.881 112.198 206.034 112.025 206.235 111.902C206.435 111.777 206.69 111.715 207 111.715C207.474 111.715 207.838 111.85 208.09 112.121C208.345 112.389 208.473 112.773 208.473 113.273V116H207.793V113.438C207.793 113.057 207.713 112.776 207.551 112.594C207.392 112.409 207.145 112.316 206.809 112.316C206.585 112.316 206.391 112.365 206.227 112.461C206.063 112.557 205.935 112.694 205.844 112.871C205.756 113.048 205.711 113.26 205.711 113.508V116H205.032ZM213.008 116V111.145H212.946L211.512 112.184V111.441L213.012 110.363H213.712V116H213.008ZM215.18 116V115.516L217.087 113.453C217.326 113.193 217.514 112.978 217.649 112.809C217.785 112.637 217.88 112.482 217.934 112.344C217.989 112.206 218.016 112.055 218.016 111.891V111.883C218.016 111.685 217.973 111.508 217.888 111.352C217.802 111.195 217.679 111.072 217.52 110.98C217.361 110.889 217.171 110.844 216.95 110.844C216.726 110.844 216.529 110.891 216.36 110.984C216.191 111.076 216.059 111.204 215.966 111.371C215.872 111.535 215.825 111.728 215.825 111.949L215.821 111.957L215.149 111.953L215.141 111.949C215.144 111.616 215.225 111.32 215.384 111.062C215.542 110.802 215.761 110.599 216.04 110.453C216.318 110.305 216.638 110.23 216.997 110.23C217.325 110.23 217.621 110.299 217.884 110.438C218.147 110.573 218.354 110.759 218.505 110.996C218.658 111.233 218.735 111.504 218.735 111.809V111.816C218.735 112.03 218.697 112.236 218.622 112.434C218.549 112.632 218.419 112.852 218.231 113.094C218.044 113.333 217.779 113.629 217.438 113.98L215.981 115.484L216.157 115.16V115.484L215.985 115.367H218.829V116H215.18ZM219.563 117.434L219.903 115.211H220.681L220.067 117.434H219.563ZM224.036 116V115.516L225.943 113.453C226.182 113.193 226.37 112.978 226.505 112.809C226.641 112.637 226.736 112.482 226.79 112.344C226.845 112.206 226.872 112.055 226.872 111.891V111.883C226.872 111.685 226.829 111.508 226.743 111.352C226.657 111.195 226.535 111.072 226.376 110.98C226.217 110.889 226.027 110.844 225.806 110.844C225.582 110.844 225.385 110.891 225.216 110.984C225.047 111.076 224.915 111.204 224.822 111.371C224.728 111.535 224.681 111.728 224.681 111.949L224.677 111.957L224.005 111.953L223.997 111.949C224 111.616 224.081 111.32 224.24 111.062C224.398 110.802 224.617 110.599 224.896 110.453C225.174 110.305 225.493 110.23 225.853 110.23C226.181 110.23 226.477 110.299 226.74 110.438C227.003 110.573 227.21 110.759 227.361 110.996C227.514 111.233 227.591 111.504 227.591 111.809V111.816C227.591 112.03 227.553 112.236 227.478 112.434C227.405 112.632 227.275 112.852 227.087 113.094C226.9 113.333 226.635 113.629 226.294 113.98L224.837 115.484L225.013 115.16V115.484L224.841 115.367H227.685V116H224.036ZM230.591 116.133C230.175 116.133 229.818 116.013 229.521 115.773C229.227 115.534 229 115.194 228.841 114.754C228.682 114.311 228.603 113.788 228.603 113.184V113.176C228.603 112.572 228.682 112.049 228.841 111.609C229 111.169 229.227 110.829 229.521 110.59C229.818 110.35 230.175 110.23 230.591 110.23C231.008 110.23 231.365 110.35 231.662 110.59C231.958 110.829 232.186 111.169 232.345 111.609C232.507 112.049 232.587 112.572 232.587 113.176V113.184C232.587 113.788 232.507 114.311 232.345 114.754C232.186 115.194 231.958 115.534 231.662 115.773C231.365 116.013 231.008 116.133 230.591 116.133ZM230.591 115.52C230.862 115.52 231.093 115.424 231.283 115.234C231.475 115.044 231.623 114.775 231.724 114.426C231.828 114.077 231.88 113.663 231.88 113.184V113.176C231.88 112.697 231.828 112.284 231.724 111.938C231.623 111.589 231.475 111.32 231.283 111.133C231.093 110.943 230.862 110.848 230.591 110.848C230.323 110.848 230.093 110.943 229.9 111.133C229.71 111.32 229.564 111.589 229.462 111.938C229.361 112.284 229.31 112.697 229.31 113.176V113.184C229.31 113.663 229.361 114.077 229.462 114.426C229.564 114.775 229.71 115.044 229.9 115.234C230.093 115.424 230.323 115.52 230.591 115.52ZM233.584 116V115.516L235.49 113.453C235.729 113.193 235.917 112.978 236.052 112.809C236.188 112.637 236.283 112.482 236.338 112.344C236.392 112.206 236.42 112.055 236.42 111.891V111.883C236.42 111.685 236.377 111.508 236.291 111.352C236.205 111.195 236.082 111.072 235.923 110.98C235.765 110.889 235.574 110.844 235.353 110.844C235.129 110.844 234.933 110.891 234.763 110.984C234.594 111.076 234.463 111.204 234.369 111.371C234.275 111.535 234.228 111.728 234.228 111.949L234.224 111.957L233.552 111.953L233.545 111.949C233.547 111.616 233.628 111.32 233.787 111.062C233.946 110.802 234.164 110.599 234.443 110.453C234.722 110.305 235.041 110.23 235.4 110.23C235.728 110.23 236.024 110.299 236.287 110.438C236.55 110.573 236.757 110.759 236.908 110.996C237.061 111.233 237.138 111.504 237.138 111.809V111.816C237.138 112.03 237.101 112.236 237.025 112.434C236.952 112.632 236.822 112.852 236.634 113.094C236.447 113.333 236.183 113.629 235.841 113.98L234.384 115.484L234.56 115.16V115.484L234.388 115.367H237.232V116H233.584ZM240.709 116V114.832H237.963V114.191C238.116 113.936 238.273 113.678 238.431 113.418C238.59 113.155 238.75 112.893 238.912 112.633C239.076 112.37 239.24 112.109 239.404 111.852C239.568 111.594 239.731 111.34 239.892 111.09C240.056 110.84 240.218 110.598 240.377 110.363H241.396V114.203H242.197V114.832H241.396V116H240.709ZM238.681 114.207H240.713V111.016H240.666C240.538 111.206 240.408 111.404 240.275 111.609C240.142 111.812 240.007 112.021 239.869 112.234C239.733 112.448 239.598 112.663 239.463 112.879C239.327 113.095 239.193 113.311 239.06 113.527C238.93 113.741 238.804 113.952 238.681 114.16V114.207Z" fill="#666D80"/>
<path d="M254.624 115.918C254.244 115.918 253.899 115.857 253.589 115.734C253.279 115.609 253.032 115.43 252.847 115.195C252.662 114.958 252.563 114.672 252.55 114.336L252.554 114.332L253.46 114.328L253.464 114.336C253.487 114.495 253.545 114.635 253.636 114.758C253.727 114.878 253.854 114.971 254.019 115.039C254.183 115.107 254.388 115.141 254.636 115.141C254.891 115.141 255.101 115.111 255.265 115.051C255.429 114.988 255.55 114.902 255.628 114.793C255.706 114.684 255.745 114.557 255.745 114.414V114.406C255.745 114.214 255.676 114.059 255.538 113.941C255.403 113.824 255.153 113.723 254.788 113.637L254.206 113.504C253.873 113.426 253.59 113.322 253.358 113.191C253.129 113.061 252.955 112.9 252.835 112.707C252.718 112.512 252.659 112.279 252.659 112.008V112C252.659 111.68 252.744 111.404 252.913 111.172C253.085 110.94 253.318 110.762 253.612 110.637C253.909 110.509 254.245 110.445 254.62 110.445C255.003 110.445 255.341 110.512 255.636 110.645C255.93 110.775 256.164 110.96 256.339 111.199C256.513 111.436 256.606 111.716 256.616 112.039V112.043L255.71 112.047L255.706 112.039C255.688 111.862 255.631 111.714 255.534 111.594C255.438 111.471 255.313 111.379 255.159 111.316C255.006 111.254 254.83 111.223 254.632 111.223C254.405 111.223 254.215 111.255 254.062 111.32C253.908 111.385 253.792 111.471 253.714 111.578C253.636 111.685 253.597 111.802 253.597 111.93V111.938C253.597 112.052 253.627 112.155 253.687 112.246C253.749 112.337 253.845 112.418 253.976 112.488C254.108 112.559 254.283 112.62 254.499 112.672L255.081 112.805C255.602 112.924 255.999 113.1 256.272 113.332C256.546 113.564 256.683 113.891 256.683 114.312V114.32C256.683 114.664 256.591 114.956 256.409 115.195C256.227 115.432 255.979 115.612 255.667 115.734C255.357 115.857 255.009 115.918 254.624 115.918ZM254.405 116.559V109.797H254.858V116.559H254.405ZM259.05 116V111.355H258.98L257.577 112.344V111.398L259.05 110.363H260.054V116H259.05ZM261.464 116V115.32L263.312 113.43C263.567 113.172 263.765 112.96 263.906 112.793C264.049 112.624 264.149 112.475 264.206 112.348C264.264 112.217 264.292 112.081 264.292 111.938V111.926C264.292 111.754 264.255 111.6 264.179 111.465C264.104 111.329 263.995 111.224 263.855 111.148C263.714 111.07 263.546 111.031 263.351 111.031C263.153 111.031 262.979 111.073 262.827 111.156C262.676 111.237 262.559 111.35 262.476 111.496C262.393 111.642 262.351 111.812 262.351 112.008L262.347 112.023L261.409 112.02L261.406 112.008C261.406 111.656 261.49 111.346 261.659 111.078C261.829 110.81 262.063 110.6 262.363 110.449C262.662 110.298 263.008 110.223 263.402 110.223C263.766 110.223 264.09 110.292 264.374 110.43C264.661 110.568 264.885 110.758 265.046 111C265.208 111.242 265.288 111.522 265.288 111.84V111.852C265.288 112.062 265.248 112.27 265.167 112.473C265.087 112.673 264.949 112.893 264.753 113.133C264.561 113.372 264.294 113.658 263.952 113.988L262.558 115.344L262.824 114.898V115.344L262.558 115.168H265.374V116H261.464ZM266.98 116.074C266.803 116.074 266.654 116.016 266.535 115.898C266.417 115.779 266.359 115.633 266.359 115.461C266.359 115.286 266.417 115.141 266.535 115.023C266.654 114.904 266.803 114.844 266.98 114.844C267.16 114.844 267.308 114.904 267.425 115.023C267.542 115.141 267.601 115.286 267.601 115.461C267.601 115.633 267.542 115.779 267.425 115.898C267.308 116.016 267.16 116.074 266.98 116.074ZM270.519 116.113C270.087 116.113 269.705 116.044 269.375 115.906C269.044 115.766 268.785 115.573 268.597 115.328C268.412 115.081 268.32 114.797 268.32 114.477V114.469C268.32 114.227 268.373 114.008 268.48 113.812C268.589 113.615 268.741 113.448 268.933 113.312C269.126 113.177 269.347 113.085 269.597 113.035V113.012C269.274 112.926 269.014 112.772 268.816 112.551C268.621 112.327 268.523 112.064 268.523 111.762V111.754C268.523 111.465 268.608 111.207 268.777 110.98C268.949 110.754 269.185 110.576 269.484 110.445C269.786 110.315 270.131 110.25 270.519 110.25C270.907 110.25 271.251 110.315 271.55 110.445C271.853 110.576 272.088 110.754 272.257 110.98C272.427 111.207 272.511 111.465 272.511 111.754V111.762C272.511 112.064 272.414 112.327 272.218 112.551C272.023 112.772 271.764 112.926 271.441 113.012V113.035C271.691 113.085 271.912 113.177 272.105 113.312C272.298 113.448 272.448 113.615 272.554 113.812C272.664 114.008 272.718 114.227 272.718 114.469V114.477C272.718 114.797 272.625 115.081 272.437 115.328C272.252 115.573 271.994 115.766 271.664 115.906C271.333 116.044 270.951 116.113 270.519 116.113ZM270.519 115.344C270.746 115.344 270.945 115.305 271.117 115.227C271.291 115.146 271.428 115.035 271.527 114.895C271.626 114.751 271.675 114.59 271.675 114.41V114.402C271.675 114.22 271.626 114.059 271.527 113.918C271.431 113.775 271.295 113.663 271.121 113.582C270.946 113.501 270.746 113.461 270.519 113.461C270.29 113.461 270.088 113.501 269.914 113.582C269.742 113.663 269.606 113.775 269.507 113.918C269.409 114.059 269.359 114.22 269.359 114.402V114.41C269.359 114.59 269.409 114.751 269.507 114.895C269.609 115.035 269.746 115.146 269.918 115.227C270.092 115.305 270.293 115.344 270.519 115.344ZM270.519 112.691C270.717 112.691 270.89 112.656 271.039 112.586C271.19 112.513 271.307 112.414 271.39 112.289C271.476 112.164 271.519 112.018 271.519 111.852V111.844C271.519 111.68 271.476 111.535 271.39 111.41C271.307 111.285 271.19 111.188 271.039 111.117C270.888 111.047 270.714 111.012 270.519 111.012C270.321 111.012 270.147 111.047 269.996 111.117C269.847 111.188 269.73 111.285 269.644 111.41C269.561 111.535 269.519 111.68 269.519 111.844V111.852C269.519 112.018 269.561 112.164 269.644 112.289C269.73 112.414 269.847 112.513 269.996 112.586C270.147 112.656 270.321 112.691 270.519 112.691ZM274.679 114.277L274.64 112.969H274.824L277.047 110.363H278.199L275.996 112.906L275.433 113.402L274.679 114.277ZM273.75 116V110.363H274.758V116H273.75ZM277.14 116L275.293 113.395L276.004 112.723L278.371 116H277.14Z" fill="#33CFFF"/>
</g>
<path d="M80.4072 215.166C80.1012 215.166 79.8294 215.122 79.5918 215.034C79.3542 214.946 79.1523 214.823 78.9863 214.663C78.8203 214.504 78.6901 214.316 78.5957 214.102C78.5013 213.887 78.4443 213.652 78.4248 213.398L78.4199 213.33H79.2988L79.3037 213.379C79.3232 213.555 79.3753 213.717 79.46 213.867C79.5446 214.014 79.665 214.132 79.8213 214.224C79.9775 214.312 80.1712 214.355 80.4023 214.355C80.793 214.355 81.0908 214.243 81.2959 214.019C81.501 213.791 81.6035 213.462 81.6035 213.032V207.954H82.4824V213.042C82.4824 213.485 82.3994 213.866 82.2334 214.185C82.0706 214.5 81.8346 214.743 81.5254 214.912C81.2161 215.081 80.8434 215.166 80.4072 215.166ZM85.4172 215.093C85.0852 215.093 84.7857 215.029 84.5188 214.902C84.2551 214.775 84.0451 214.595 83.8889 214.36C83.7359 214.126 83.6594 213.849 83.6594 213.53V213.521C83.6594 213.208 83.7342 212.941 83.884 212.72C84.0337 212.495 84.2518 212.319 84.5383 212.192C84.8247 212.065 85.1714 211.991 85.5783 211.968L87.5119 211.851V212.529L85.6809 212.646C85.2805 212.669 84.9875 212.752 84.802 212.896C84.6197 213.039 84.5285 213.241 84.5285 213.501V213.511C84.5285 213.778 84.6294 213.986 84.8313 214.136C85.0331 214.282 85.287 214.355 85.593 214.355C85.8827 214.355 86.1398 214.299 86.3645 214.185C86.5891 214.067 86.7648 213.91 86.8918 213.711C87.022 213.512 87.0871 213.288 87.0871 213.037V211.396C87.0871 211.071 86.9878 210.824 86.7893 210.654C86.5939 210.482 86.2993 210.396 85.9055 210.396C85.5897 210.396 85.3309 210.452 85.1291 210.566C84.9273 210.677 84.7922 210.835 84.7238 211.04L84.7189 211.055H83.8693L83.8742 211.025C83.9198 210.749 84.0337 210.508 84.216 210.303C84.4016 210.094 84.6408 209.933 84.9338 209.819C85.2268 209.702 85.5604 209.644 85.9348 209.644C86.3645 209.644 86.7274 209.714 87.0236 209.854C87.3231 209.993 87.5493 210.195 87.7023 210.459C87.8586 210.719 87.9367 211.032 87.9367 211.396V215H87.0871V214.224H87.009C86.8983 214.409 86.7632 214.567 86.6037 214.697C86.4475 214.827 86.2701 214.927 86.0715 214.995C85.8729 215.06 85.6548 215.093 85.4172 215.093ZM89.2895 215V209.736H90.1391V210.527H90.2172C90.3507 210.247 90.5427 210.031 90.7934 209.878C91.044 209.722 91.363 209.644 91.7504 209.644C92.3428 209.644 92.7969 209.813 93.1127 210.151C93.4317 210.487 93.5912 210.967 93.5912 211.592V215H92.7416V211.797C92.7416 211.322 92.6407 210.97 92.4389 210.742C92.2403 210.511 91.9311 210.396 91.5111 210.396C91.2312 210.396 90.9887 210.456 90.7836 210.576C90.5785 210.697 90.419 210.868 90.3051 211.089C90.1944 211.31 90.1391 211.576 90.1391 211.885V215H89.2895ZM97.5369 215V214.395L99.9197 211.816C100.219 211.491 100.454 211.222 100.623 211.011C100.792 210.796 100.911 210.602 100.979 210.43C101.048 210.257 101.082 210.068 101.082 209.863V209.854C101.082 209.606 101.028 209.385 100.921 209.189C100.813 208.994 100.66 208.84 100.462 208.726C100.263 208.612 100.026 208.555 99.7488 208.555C99.4689 208.555 99.2231 208.613 99.0115 208.73C98.7999 208.844 98.6355 209.006 98.5184 209.214C98.4012 209.419 98.3426 209.66 98.3426 209.937L98.3377 209.946L97.4979 209.941L97.4881 209.937C97.4913 209.52 97.5923 209.15 97.7908 208.828C97.9894 208.503 98.2628 208.249 98.6111 208.066C98.9594 207.881 99.3582 207.788 99.8074 207.788C100.218 207.788 100.587 207.874 100.916 208.047C101.245 208.216 101.503 208.449 101.692 208.745C101.884 209.041 101.98 209.38 101.98 209.761V209.771C101.98 210.037 101.933 210.295 101.839 210.542C101.748 210.789 101.585 211.064 101.35 211.367C101.116 211.667 100.786 212.036 100.359 212.476L98.5379 214.355L98.7576 213.95V214.355L98.5428 214.209H102.097V215H97.5369ZM105.779 215.117C105.281 215.117 104.84 215.031 104.456 214.858C104.072 214.686 103.769 214.448 103.548 214.146C103.33 213.84 103.221 213.49 103.221 213.096V213.086C103.221 212.796 103.284 212.528 103.411 212.28C103.538 212.033 103.715 211.823 103.943 211.65C104.171 211.475 104.435 211.353 104.734 211.284V211.265C104.35 211.144 104.044 210.946 103.816 210.669C103.589 210.392 103.475 210.068 103.475 209.697V209.688C103.475 209.333 103.574 209.017 103.772 208.74C103.971 208.46 104.244 208.241 104.593 208.081C104.941 207.918 105.337 207.837 105.779 207.837C106.225 207.837 106.621 207.918 106.966 208.081C107.314 208.241 107.588 208.46 107.786 208.74C107.985 209.017 108.084 209.333 108.084 209.688V209.697C108.084 210.068 107.97 210.392 107.742 210.669C107.518 210.946 107.212 211.144 106.824 211.265V211.284C107.127 211.353 107.391 211.475 107.615 211.65C107.843 211.823 108.021 212.033 108.147 212.28C108.274 212.528 108.338 212.796 108.338 213.086V213.096C108.338 213.49 108.229 213.84 108.011 214.146C107.793 214.448 107.49 214.686 107.103 214.858C106.718 215.031 106.277 215.117 105.779 215.117ZM105.779 214.351C106.105 214.351 106.391 214.295 106.639 214.185C106.889 214.071 107.086 213.916 107.229 213.721C107.373 213.522 107.444 213.296 107.444 213.042V213.032C107.444 212.775 107.373 212.547 107.229 212.349C107.09 212.15 106.894 211.994 106.644 211.88C106.393 211.766 106.105 211.709 105.779 211.709C105.454 211.709 105.166 211.766 104.915 211.88C104.664 211.994 104.467 212.15 104.324 212.349C104.184 212.547 104.114 212.775 104.114 213.032V213.042C104.114 213.296 104.186 213.522 104.329 213.721C104.472 213.916 104.669 214.071 104.92 214.185C105.171 214.295 105.457 214.351 105.779 214.351ZM105.779 210.938C106.062 210.938 106.312 210.889 106.526 210.791C106.741 210.69 106.909 210.552 107.029 210.376C107.15 210.2 107.21 209.998 107.21 209.771V209.761C107.21 209.533 107.15 209.331 107.029 209.155C106.909 208.979 106.741 208.843 106.526 208.745C106.312 208.644 106.062 208.594 105.779 208.594C105.496 208.594 105.247 208.644 105.032 208.745C104.817 208.843 104.65 208.979 104.529 209.155C104.409 209.331 104.349 209.533 104.349 209.761V209.771C104.349 209.998 104.409 210.2 104.529 210.376C104.65 210.552 104.817 210.69 105.032 210.791C105.247 210.889 105.496 210.938 105.779 210.938ZM109.007 216.792L109.432 214.014H110.404L109.637 216.792H109.007ZM114.598 215V214.395L116.981 211.816C117.281 211.491 117.515 211.222 117.684 211.011C117.853 210.796 117.972 210.602 118.041 210.43C118.109 210.257 118.143 210.068 118.143 209.863V209.854C118.143 209.606 118.089 209.385 117.982 209.189C117.875 208.994 117.722 208.84 117.523 208.726C117.324 208.612 117.087 208.555 116.81 208.555C116.53 208.555 116.284 208.613 116.073 208.73C115.861 208.844 115.697 209.006 115.58 209.214C115.463 209.419 115.404 209.66 115.404 209.937L115.399 209.946L114.559 209.941L114.549 209.937C114.553 209.52 114.654 209.15 114.852 208.828C115.051 208.503 115.324 208.249 115.672 208.066C116.021 207.881 116.42 207.788 116.869 207.788C117.279 207.788 117.648 207.874 117.977 208.047C118.306 208.216 118.565 208.449 118.754 208.745C118.946 209.041 119.042 209.38 119.042 209.761V209.771C119.042 210.037 118.994 210.295 118.9 210.542C118.809 210.789 118.646 211.064 118.412 211.367C118.177 211.667 117.847 212.036 117.421 212.476L115.599 214.355L115.819 213.95V214.355L115.604 214.209H119.159V215H114.598ZM122.792 215.166C122.271 215.166 121.825 215.016 121.454 214.717C121.086 214.417 120.803 213.993 120.604 213.442C120.406 212.889 120.306 212.235 120.306 211.479V211.47C120.306 210.715 120.406 210.062 120.604 209.512C120.803 208.962 121.086 208.537 121.454 208.237C121.825 207.938 122.271 207.788 122.792 207.788C123.313 207.788 123.759 207.938 124.13 208.237C124.501 208.537 124.786 208.962 124.984 209.512C125.186 210.062 125.287 210.715 125.287 211.47V211.479C125.287 212.235 125.186 212.889 124.984 213.442C124.786 213.993 124.501 214.417 124.13 214.717C123.759 215.016 123.313 215.166 122.792 215.166ZM122.792 214.399C123.13 214.399 123.418 214.281 123.656 214.043C123.897 213.805 124.081 213.468 124.208 213.032C124.338 212.596 124.403 212.078 124.403 211.479V211.47C124.403 210.871 124.338 210.355 124.208 209.922C124.081 209.486 123.897 209.15 123.656 208.916C123.418 208.678 123.13 208.56 122.792 208.56C122.457 208.56 122.168 208.678 121.928 208.916C121.69 209.15 121.508 209.486 121.381 209.922C121.254 210.355 121.19 210.871 121.19 211.47V211.479C121.19 212.078 121.254 212.596 121.381 213.032C121.508 213.468 121.69 213.805 121.928 214.043C122.168 214.281 122.457 214.399 122.792 214.399ZM126.532 215V214.395L128.915 211.816C129.215 211.491 129.449 211.222 129.618 211.011C129.787 210.796 129.906 210.602 129.975 210.43C130.043 210.257 130.077 210.068 130.077 209.863V209.854C130.077 209.606 130.023 209.385 129.916 209.189C129.809 208.994 129.656 208.84 129.457 208.726C129.258 208.612 129.021 208.555 128.744 208.555C128.464 208.555 128.218 208.613 128.007 208.73C127.795 208.844 127.631 209.006 127.514 209.214C127.396 209.419 127.338 209.66 127.338 209.937L127.333 209.946L126.493 209.941L126.483 209.937C126.487 209.52 126.588 209.15 126.786 208.828C126.985 208.503 127.258 208.249 127.606 208.066C127.955 207.881 128.354 207.788 128.803 207.788C129.213 207.788 129.582 207.874 129.911 208.047C130.24 208.216 130.499 208.449 130.688 208.745C130.88 209.041 130.976 209.38 130.976 209.761V209.771C130.976 210.037 130.928 210.295 130.834 210.542C130.743 210.789 130.58 211.064 130.346 211.367C130.111 211.667 129.781 212.036 129.354 212.476L127.533 214.355L127.753 213.95V214.355L127.538 214.209H131.093V215H126.532ZM134.682 215.166C134.246 215.166 133.857 215.08 133.515 214.907C133.173 214.735 132.898 214.5 132.69 214.204C132.485 213.905 132.364 213.568 132.328 213.193L132.323 213.14H133.168L133.173 213.179C133.202 213.403 133.284 213.608 133.417 213.794C133.554 213.976 133.731 214.121 133.949 214.229C134.171 214.336 134.418 214.39 134.692 214.39C135.004 214.39 135.279 214.321 135.517 214.185C135.754 214.045 135.94 213.853 136.073 213.608C136.207 213.364 136.274 213.084 136.274 212.769V212.759C136.274 212.446 136.205 212.17 136.069 211.929C135.935 211.685 135.751 211.494 135.517 211.357C135.282 211.221 135.012 211.152 134.706 211.152C134.472 211.152 134.255 211.188 134.057 211.26C133.862 211.331 133.687 211.439 133.534 211.582C133.473 211.641 133.414 211.704 133.359 211.772C133.307 211.841 133.258 211.917 133.212 212.002H132.45L132.821 207.954H136.742V208.74H133.515L133.276 211.123H133.354C133.458 210.964 133.586 210.83 133.739 210.723C133.892 210.615 134.063 210.534 134.252 210.479C134.444 210.42 134.646 210.391 134.858 210.391C135.3 210.391 135.693 210.493 136.034 210.698C136.376 210.9 136.645 211.178 136.84 211.533C137.035 211.885 137.133 212.288 137.133 212.744V212.754C137.133 213.226 137.027 213.644 136.816 214.009C136.607 214.37 136.319 214.653 135.951 214.858C135.584 215.063 135.16 215.166 134.682 215.166Z" fill="#666D80"/>
<path d="M258.898 215V207.954H263.176V208.745H259.777V211.167H262.897V211.948H259.777V215H258.898ZM266.462 215.093C265.961 215.093 265.529 214.982 265.168 214.761C264.81 214.539 264.533 214.227 264.338 213.823C264.146 213.416 264.05 212.938 264.05 212.388V212.383C264.05 211.839 264.146 211.362 264.338 210.952C264.533 210.542 264.808 210.221 265.163 209.99C265.518 209.759 265.933 209.644 266.408 209.644C266.887 209.644 267.297 209.754 267.639 209.976C267.984 210.197 268.248 210.506 268.43 210.903C268.615 211.297 268.708 211.756 268.708 212.28V212.612H264.489V211.934H268.274L267.854 212.554V212.217C267.854 211.803 267.792 211.463 267.668 211.196C267.544 210.929 267.374 210.731 267.155 210.601C266.937 210.467 266.687 210.4 266.404 210.4C266.12 210.4 265.866 210.47 265.642 210.61C265.42 210.747 265.245 210.951 265.114 211.221C264.984 211.491 264.919 211.823 264.919 212.217V212.554C264.919 212.928 264.983 213.249 265.11 213.516C265.237 213.779 265.417 213.983 265.652 214.126C265.886 214.266 266.163 214.336 266.482 214.336C266.719 214.336 266.926 214.303 267.102 214.238C267.278 214.173 267.422 214.09 267.536 213.989C267.65 213.888 267.73 213.786 267.776 213.682L267.795 213.638H268.645L268.635 213.677C268.589 213.856 268.508 214.03 268.391 214.199C268.277 214.365 268.129 214.517 267.946 214.653C267.764 214.787 267.548 214.894 267.297 214.976C267.05 215.054 266.771 215.093 266.462 215.093ZM272.444 215.093C272.2 215.093 271.973 215.055 271.765 214.98C271.557 214.906 271.371 214.8 271.208 214.663C271.046 214.523 270.911 214.355 270.803 214.16H270.725V215H269.875V207.646H270.725V210.566H270.803C270.901 210.378 271.031 210.215 271.194 210.078C271.36 209.941 271.549 209.836 271.76 209.761C271.975 209.683 272.203 209.644 272.444 209.644C272.89 209.644 273.277 209.756 273.606 209.98C273.938 210.205 274.195 210.521 274.377 210.928C274.56 211.335 274.651 211.813 274.651 212.363V212.373C274.651 212.92 274.56 213.398 274.377 213.809C274.195 214.215 273.938 214.531 273.606 214.756C273.277 214.98 272.89 215.093 272.444 215.093ZM272.248 214.341C272.571 214.341 272.846 214.263 273.074 214.106C273.301 213.947 273.476 213.721 273.596 213.428C273.72 213.132 273.782 212.78 273.782 212.373V212.363C273.782 211.953 273.72 211.602 273.596 211.309C273.476 211.016 273.301 210.791 273.074 210.635C272.846 210.475 272.571 210.396 272.248 210.396C271.929 210.396 271.654 210.475 271.423 210.635C271.192 210.794 271.015 211.021 270.891 211.313C270.767 211.606 270.705 211.956 270.705 212.363V212.373C270.705 212.777 270.767 213.127 270.891 213.423C271.015 213.716 271.192 213.942 271.423 214.102C271.654 214.261 271.929 214.341 272.248 214.341ZM278.377 215V214.395L280.76 211.816C281.059 211.491 281.293 211.222 281.463 211.011C281.632 210.796 281.751 210.602 281.819 210.43C281.888 210.257 281.922 210.068 281.922 209.863V209.854C281.922 209.606 281.868 209.385 281.761 209.189C281.653 208.994 281.5 208.84 281.302 208.726C281.103 208.612 280.865 208.555 280.589 208.555C280.309 208.555 280.063 208.613 279.851 208.73C279.64 208.844 279.475 209.006 279.358 209.214C279.241 209.419 279.182 209.66 279.182 209.937L279.178 209.946L278.338 209.941L278.328 209.937C278.331 209.52 278.432 209.15 278.631 208.828C278.829 208.503 279.103 208.249 279.451 208.066C279.799 207.881 280.198 207.788 280.647 207.788C281.057 207.788 281.427 207.874 281.756 208.047C282.084 208.216 282.343 208.449 282.532 208.745C282.724 209.041 282.82 209.38 282.82 209.761V209.771C282.82 210.037 282.773 210.295 282.679 210.542C282.587 210.789 282.425 211.064 282.19 211.367C281.956 211.667 281.625 212.036 281.199 212.476L279.378 214.355L279.597 213.95V214.355L279.383 214.209H282.937V215H278.377ZM286.619 215.117C286.121 215.117 285.68 215.031 285.296 214.858C284.912 214.686 284.609 214.448 284.388 214.146C284.17 213.84 284.061 213.49 284.061 213.096V213.086C284.061 212.796 284.124 212.528 284.251 212.28C284.378 212.033 284.555 211.823 284.783 211.65C285.011 211.475 285.275 211.353 285.574 211.284V211.265C285.19 211.144 284.884 210.946 284.656 210.669C284.428 210.392 284.314 210.068 284.314 209.697V209.688C284.314 209.333 284.414 209.017 284.612 208.74C284.811 208.46 285.084 208.241 285.433 208.081C285.781 207.918 286.176 207.837 286.619 207.837C287.065 207.837 287.461 207.918 287.806 208.081C288.154 208.241 288.427 208.46 288.626 208.74C288.825 209.017 288.924 209.333 288.924 209.688V209.697C288.924 210.068 288.81 210.392 288.582 210.669C288.357 210.946 288.051 211.144 287.664 211.265V211.284C287.967 211.353 288.23 211.475 288.455 211.65C288.683 211.823 288.86 212.033 288.987 212.28C289.114 212.528 289.178 212.796 289.178 213.086V213.096C289.178 213.49 289.069 213.84 288.851 214.146C288.632 214.448 288.33 214.686 287.942 214.858C287.558 215.031 287.117 215.117 286.619 215.117ZM286.619 214.351C286.945 214.351 287.231 214.295 287.479 214.185C287.729 214.071 287.926 213.916 288.069 213.721C288.213 213.522 288.284 213.296 288.284 213.042V213.032C288.284 212.775 288.213 212.547 288.069 212.349C287.929 212.15 287.734 211.994 287.483 211.88C287.233 211.766 286.945 211.709 286.619 211.709C286.294 211.709 286.006 211.766 285.755 211.88C285.504 211.994 285.307 212.15 285.164 212.349C285.024 212.547 284.954 212.775 284.954 213.032V213.042C284.954 213.296 285.026 213.522 285.169 213.721C285.312 213.916 285.509 214.071 285.76 214.185C286.01 214.295 286.297 214.351 286.619 214.351ZM286.619 210.938C286.902 210.938 287.151 210.889 287.366 210.791C287.581 210.69 287.749 210.552 287.869 210.376C287.99 210.2 288.05 209.998 288.05 209.771V209.761C288.05 209.533 287.99 209.331 287.869 209.155C287.749 208.979 287.581 208.843 287.366 208.745C287.151 208.644 286.902 208.594 286.619 208.594C286.336 208.594 286.087 208.644 285.872 208.745C285.657 208.843 285.49 208.979 285.369 209.155C285.249 209.331 285.188 209.533 285.188 209.761V209.771C285.188 209.998 285.249 210.2 285.369 210.376C285.49 210.552 285.657 210.69 285.872 210.791C286.087 210.889 286.336 210.938 286.619 210.938ZM289.847 216.792L290.272 214.014H291.243L290.477 216.792H289.847ZM295.438 215V214.395L297.821 211.816C298.12 211.491 298.355 211.222 298.524 211.011C298.693 210.796 298.812 210.602 298.88 210.43C298.949 210.257 298.983 210.068 298.983 209.863V209.854C298.983 209.606 298.929 209.385 298.822 209.189C298.714 208.994 298.561 208.84 298.363 208.726C298.164 208.612 297.927 208.555 297.65 208.555C297.37 208.555 297.124 208.613 296.913 208.73C296.701 208.844 296.537 209.006 296.42 209.214C296.302 209.419 296.244 209.66 296.244 209.937L296.239 209.946L295.399 209.941L295.389 209.937C295.393 209.52 295.493 209.15 295.692 208.828C295.891 208.503 296.164 208.249 296.512 208.066C296.861 207.881 297.259 207.788 297.709 207.788C298.119 207.788 298.488 207.874 298.817 208.047C299.146 208.216 299.405 208.449 299.593 208.745C299.785 209.041 299.881 209.38 299.881 209.761V209.771C299.881 210.037 299.834 210.295 299.74 210.542C299.649 210.789 299.486 211.064 299.252 211.367C299.017 211.667 298.687 212.036 298.26 212.476L296.439 214.355L296.659 213.95V214.355L296.444 214.209H299.999V215H295.438ZM303.632 215.166C303.111 215.166 302.665 215.016 302.294 214.717C301.926 214.417 301.643 213.993 301.444 213.442C301.246 212.889 301.146 212.235 301.146 211.479V211.47C301.146 210.715 301.246 210.062 301.444 209.512C301.643 208.962 301.926 208.537 302.294 208.237C302.665 207.938 303.111 207.788 303.632 207.788C304.152 207.788 304.598 207.938 304.97 208.237C305.341 208.537 305.625 208.962 305.824 209.512C306.026 210.062 306.127 210.715 306.127 211.47V211.479C306.127 212.235 306.026 212.889 305.824 213.442C305.625 213.993 305.341 214.417 304.97 214.717C304.598 215.016 304.152 215.166 303.632 215.166ZM303.632 214.399C303.97 214.399 304.258 214.281 304.496 214.043C304.737 213.805 304.921 213.468 305.048 213.032C305.178 212.596 305.243 212.078 305.243 211.479V211.47C305.243 210.871 305.178 210.355 305.048 209.922C304.921 209.486 304.737 209.15 304.496 208.916C304.258 208.678 303.97 208.56 303.632 208.56C303.296 208.56 303.008 208.678 302.767 208.916C302.53 209.15 302.347 209.486 302.221 209.922C302.094 210.355 302.03 210.871 302.03 211.47V211.479C302.03 212.078 302.094 212.596 302.221 213.032C302.347 213.468 302.53 213.805 302.767 214.043C303.008 214.281 303.296 214.399 303.632 214.399ZM307.372 215V214.395L309.755 211.816C310.054 211.491 310.289 211.222 310.458 211.011C310.627 210.796 310.746 210.602 310.814 210.43C310.883 210.257 310.917 210.068 310.917 209.863V209.854C310.917 209.606 310.863 209.385 310.756 209.189C310.648 208.994 310.495 208.84 310.297 208.726C310.098 208.612 309.861 208.555 309.584 208.555C309.304 208.555 309.058 208.613 308.847 208.73C308.635 208.844 308.471 209.006 308.354 209.214C308.236 209.419 308.178 209.66 308.178 209.937L308.173 209.946L307.333 209.941L307.323 209.937C307.326 209.52 307.427 209.15 307.626 208.828C307.825 208.503 308.098 208.249 308.446 208.066C308.795 207.881 309.193 207.788 309.643 207.788C310.053 207.788 310.422 207.874 310.751 208.047C311.08 208.216 311.339 208.449 311.527 208.745C311.719 209.041 311.815 209.38 311.815 209.761V209.771C311.815 210.037 311.768 210.295 311.674 210.542C311.583 210.789 311.42 211.064 311.186 211.367C310.951 211.667 310.621 212.036 310.194 212.476L308.373 214.355L308.593 213.95V214.355L308.378 214.209H311.933V215H307.372ZM315.522 215.166C315.085 215.166 314.696 215.08 314.355 214.907C314.013 214.735 313.738 214.5 313.529 214.204C313.324 213.905 313.204 213.568 313.168 213.193L313.163 213.14H314.008L314.013 213.179C314.042 213.403 314.124 213.608 314.257 213.794C314.394 213.976 314.571 214.121 314.789 214.229C315.011 214.336 315.258 214.39 315.531 214.39C315.844 214.39 316.119 214.321 316.357 214.185C316.594 214.045 316.78 213.853 316.913 213.608C317.047 213.364 317.113 213.084 317.113 212.769V212.759C317.113 212.446 317.045 212.17 316.908 211.929C316.775 211.685 316.591 211.494 316.357 211.357C316.122 211.221 315.852 211.152 315.546 211.152C315.312 211.152 315.095 211.188 314.897 211.26C314.701 211.331 314.527 211.439 314.374 211.582C314.312 211.641 314.254 211.704 314.198 211.772C314.146 211.841 314.098 211.917 314.052 212.002H313.29L313.661 207.954H317.582V208.74H314.355L314.115 211.123H314.194C314.298 210.964 314.426 210.83 314.579 210.723C314.732 210.615 314.903 210.534 315.092 210.479C315.284 210.42 315.486 210.391 315.697 210.391C316.14 210.391 316.532 210.493 316.874 210.698C317.216 210.9 317.485 211.178 317.68 211.533C317.875 211.885 317.973 212.288 317.973 212.744V212.754C317.973 213.226 317.867 213.644 317.655 214.009C317.447 214.37 317.159 214.653 316.791 214.858C316.423 215.063 316 215.166 315.522 215.166Z" fill="#666D80"/>
<defs>
<filter id="filter0_d_186_10402" x="27.125" y="45.8623" width="305.368" height="79.1377" filterUnits="userSpaceOnUse" color-interpolation-filters="sRGB">
<feFlood flood-opacity="0" result="BackgroundImageFix"/>
<feColorMatrix in="SourceAlpha" type="matrix" values="0 0 0 0 0 0 0 0 0 0 0 0 0 0 0 0 0 0 127 0" result="hardAlpha"/>
<feOffset dy="2"/>
<feGaussianBlur stdDeviation="1"/>
<feComposite in2="hardAlpha" operator="out"/>
<feColorMatrix type="matrix" values="0 0 0 0 0.0588235 0 0 0 0 0.2 0 0 0 0 0.211765 0 0 0 0.08 0"/>
<feBlend mode="normal" in2="BackgroundImageFix" result="effect1_dropShadow_186_10402"/>
<feBlend mode="normal" in="SourceGraphic" in2="effect1_dropShadow_186_10402" result="shape"/>
</filter>
<filter id="filter1_d_186_10402" x="27.1257" y="143" width="305.368" height="32" filterUnits="userSpaceOnUse" color-interpolation-filters="sRGB">
<feFlood flood-opacity="0" result="BackgroundImageFix"/>
<feColorMatrix in="SourceAlpha" type="matrix" values="0 0 0 0 0 0 0 0 0 0 0 0 0 0 0 0 0 0 127 0" result="hardAlpha"/>
<feOffset dy="2"/>
<feGaussianBlur stdDeviation="1"/>
<feComposite in2="hardAlpha" operator="out"/>
<feColorMatrix type="matrix" values="0 0 0 0 0.48 0 0 0 0 0.209412 0 0 0 0 0.117647 0 0 0 0.08 0"/>
<feBlend mode="normal" in2="BackgroundImageFix" result="effect1_dropShadow_186_10402"/>
<feBlend mode="normal" in="SourceGraphic" in2="effect1_dropShadow_186_10402" result="shape"/>
</filter>
<filter id="filter2_d_186_10402" x="164" y="46" width="146.987" height="119" filterUnits="userSpaceOnUse" color-interpolation-filters="sRGB">
<feFlood flood-opacity="0" result="BackgroundImageFix"/>
<feColorMatrix in="SourceAlpha" type="matrix" values="0 0 0 0 0 0 0 0 0 0 0 0 0 0 0 0 0 0 127 0" result="hardAlpha"/>
<feMorphology radius="12" operator="erode" in="SourceAlpha" result="effect1_dropShadow_186_10402"/>
<feOffset dy="16"/>
<feGaussianBlur stdDeviation="16"/>
<feComposite in2="hardAlpha" operator="out"/>
<feColorMatrix type="matrix" values="0 0 0 0 0.0509804 0 0 0 0 0.0509804 0 0 0 0 0.0705882 0 0 0 0.1 0"/>
<feBlend mode="normal" in2="BackgroundImageFix" result="effect1_dropShadow_186_10402"/>
<feBlend mode="normal" in="SourceGraphic" in2="effect1_dropShadow_186_10402" result="shape"/>
</filter>
<linearGradient id="paint0_linear_186_10402" x1="179.809" y1="46.9999" x2="179.809" y2="188" gradientUnits="userSpaceOnUse">
<stop stop-color="#4E57EF"/>
<stop offset="1" stop-color="#4E57EF" stop-opacity="0"/>
</linearGradient>
</defs>
</svg>
