<svg width="16" height="16" viewBox="0 0 16 16" fill="none" xmlns="http://www.w3.org/2000/svg">
<path d="M5.59005 10.0181L5.08333 13.8332L7.7599 12.2272C7.8472 12.1749 7.89085 12.1487 7.93744 12.1384C7.97866 12.1294 8.02134 12.1294 8.06256 12.1384C8.10915 12.1487 8.1528 12.1749 8.2401 12.2272L10.9167 13.8332L10.4103 10.0165M10.5818 3.47835C10.6719 3.69624 10.8448 3.86943 11.0625 3.95985L11.826 4.27612C12.0439 4.36638 12.2171 4.5395 12.3073 4.7574C12.3976 4.97531 12.3976 5.22014 12.3073 5.43804L11.9913 6.20104C11.901 6.41904 11.9009 6.66412 11.9916 6.88202L12.307 7.64479C12.3518 7.75271 12.3748 7.8684 12.3748 7.98523C12.3749 8.10206 12.3519 8.21775 12.3072 8.32569C12.2624 8.43363 12.1969 8.5317 12.1143 8.6143C12.0317 8.6969 11.9336 8.76241 11.8256 8.80709L11.0627 9.12313C10.8448 9.21322 10.6716 9.38615 10.5812 9.60391L10.2649 10.3675C10.1747 10.5854 10.0015 10.7585 9.78365 10.8487C9.56575 10.939 9.32093 10.939 9.10303 10.8487L8.34006 10.5327C8.12216 10.4427 7.87742 10.4428 7.65966 10.5332L6.89614 10.849C6.67837 10.9391 6.43375 10.939 6.21604 10.8488C5.99832 10.7586 5.8253 10.5857 5.73498 10.368L5.41863 9.60426C5.32854 9.38638 5.15561 9.21318 4.93787 9.12276L4.17435 8.80649C3.95655 8.71627 3.78349 8.54326 3.6932 8.32548C3.60291 8.1077 3.60279 7.86299 3.69286 7.64512L4.00889 6.88212C4.09892 6.66421 4.09874 6.41946 4.00838 6.20169L3.6928 5.4376C3.64806 5.32967 3.62502 5.21399 3.625 5.09716C3.62498 4.98032 3.64798 4.86463 3.69269 4.75669C3.7374 4.64875 3.80294 4.55068 3.88556 4.46808C3.96818 4.38548 4.06627 4.31997 4.17422 4.2753L4.93719 3.95925C5.15488 3.86924 5.32796 3.69653 5.41845 3.47903L5.7347 2.71548C5.82496 2.49758 5.99808 2.32446 6.21597 2.2342C6.43387 2.14394 6.67869 2.14394 6.89659 2.2342L7.65956 2.55024C7.87746 2.64028 8.1222 2.64009 8.33996 2.54973L9.1038 2.23469C9.32167 2.14448 9.56644 2.1445 9.78429 2.23474C10.0021 2.32498 10.1752 2.49805 10.2655 2.7159L10.5819 3.47967L10.5818 3.47835Z" stroke="#6366F1" stroke-linecap="round" stroke-linejoin="round"/>
</svg>
