<svg width="20" height="20" viewBox="0 0 20 20" fill="none" xmlns="http://www.w3.org/2000/svg">
<path d="M6.00007 3.83306C6.00007 3.5969 5.83485 3.39295 5.60384 3.34394C5.37341 3.29506 5.1402 3.41363 5.04387 3.62841L5.04284 3.63064C5.04151 3.6335 5.03895 3.63893 5.03517 3.64667C5.0276 3.66216 5.01521 3.68676 4.99803 3.71844C4.96351 3.7821 4.91056 3.87269 4.8396 3.97471C4.69451 4.1833 4.49025 4.41631 4.23517 4.57566C4.00096 4.72196 3.92971 5.03042 4.07601 5.26462C4.22231 5.49883 4.53077 5.57008 4.76497 5.42378C4.84803 5.3719 4.92637 5.31621 5.00007 5.25816V6.83306C5.00007 7.1092 5.22393 7.33306 5.50007 7.33306C5.77621 7.33306 6.00007 7.1092 6.00007 6.83306V3.83306Z" fill="#212121"/>
<path d="M14.9996 14H9.33292L9.25519 14.0045C8.92365 14.043 8.66626 14.3248 8.66626 14.6667C8.66626 15.0349 8.96472 15.3333 9.33292 15.3333H14.9996L15.0773 15.3289C15.4089 15.2903 15.6663 15.0085 15.6663 14.6667C15.6663 14.2985 15.3678 14 14.9996 14Z" fill="#212121"/>
<path d="M14.9996 9.66699H9.33292L9.25519 9.67146C8.92365 9.70999 8.66626 9.99179 8.66626 10.3337C8.66626 10.7019 8.96472 11.0003 9.33292 11.0003H14.9996L15.0773 10.9959C15.4089 10.9573 15.6663 10.6755 15.6663 10.3337C15.6663 9.96546 15.3678 9.66699 14.9996 9.66699Z" fill="#212121"/>
<path d="M14.9996 5.33301H9.33292L9.25519 5.33749C8.92365 5.376 8.66626 5.65778 8.66626 5.99967C8.66626 6.36786 8.96472 6.66634 9.33292 6.66634H14.9996L15.0773 6.66185C15.4089 6.62335 15.6663 6.34157 15.6663 5.99967C15.6663 5.63149 15.3678 5.33301 14.9996 5.33301Z" fill="#212121"/>
<path d="M5.43395 9.01314C5.23305 8.97767 4.98296 9.0574 4.85354 9.1868C4.65827 9.38207 4.34169 9.38207 4.14643 9.1868C3.95118 8.99147 3.95119 8.67494 4.14646 8.47966C4.51704 8.1091 5.10029 7.9388 5.60771 8.02834C5.87267 8.07509 6.14487 8.19794 6.35148 8.4321C6.56173 8.6704 6.66667 8.98167 6.66667 9.3332C6.66667 9.7462 6.48597 10.0532 6.26271 10.2802C6.07753 10.4685 5.8421 10.6205 5.65884 10.7389L5.60583 10.7733C5.47565 10.8579 5.36952 10.9312 5.28457 10.9999H6.16667C6.44281 10.9999 6.66667 11.2237 6.66667 11.4999C6.66667 11.776 6.4428 11.9999 6.16666 11.9999H4.5C4.22386 11.9999 4 11.776 4 11.4999C4 10.6241 4.6559 10.1979 5.05003 9.94187L5.09015 9.9158C5.30173 9.77834 5.44562 9.68487 5.54979 9.57894C5.63903 9.4882 5.66667 9.42027 5.66667 9.3332C5.66667 9.1848 5.62577 9.12107 5.60165 9.09374C5.57389 9.06227 5.52317 9.02887 5.43395 9.01314Z" fill="#212121"/>
<path d="M3.9797 16.1872C3.9797 16.1872 4.04159 16.2431 3.98276 16.1903L3.98633 16.1937L3.99518 16.2022C4.00183 16.2084 4.00998 16.2159 4.01962 16.2243C4.0389 16.2411 4.06427 16.2621 4.09575 16.2857C4.15865 16.3329 4.24656 16.391 4.35964 16.4475C4.58746 16.5615 4.91354 16.667 5.33325 16.667C5.75939 16.667 6.13056 16.5461 6.4008 16.3073C6.67273 16.0671 6.80767 15.7358 6.79694 15.401C6.78804 15.1234 6.68594 14.8705 6.51316 14.667C6.68594 14.4635 6.78804 14.2106 6.79694 13.933C6.80767 13.5982 6.67273 13.2669 6.4008 13.0267C6.13056 12.7879 5.75939 12.667 5.33325 12.667C4.91354 12.667 4.58746 12.7725 4.35964 12.8865C4.24656 12.943 4.15865 13.0011 4.09575 13.0483C4.06427 13.0719 4.0389 13.0929 4.01962 13.1097C4.00998 13.1181 4.00183 13.1256 3.99518 13.1318L3.98633 13.1403L3.98274 13.1437L3.98118 13.1453L3.98052 13.146L3.9797 13.1468C3.78444 13.3421 3.78444 13.6586 3.9797 13.8539C4.17232 14.0465 4.483 14.0491 4.67881 13.8617C4.68105 13.8598 4.6867 13.855 4.69575 13.8483C4.71618 13.8329 4.75328 13.8077 4.80686 13.7809C4.91238 13.7281 5.0863 13.667 5.33325 13.667C5.57378 13.667 5.69059 13.7336 5.73866 13.7761C5.78504 13.8171 5.79874 13.8608 5.79745 13.901C5.79607 13.944 5.77594 14.0021 5.7151 14.0549C5.65625 14.1059 5.53966 14.167 5.33325 14.167C5.05711 14.167 4.83325 14.3909 4.83325 14.667C4.83325 14.9431 5.05711 15.167 5.33325 15.167C5.53966 15.167 5.65625 15.2281 5.7151 15.2791C5.77594 15.3319 5.79607 15.39 5.79745 15.433C5.79874 15.4732 5.78504 15.5169 5.73866 15.5579C5.69059 15.6004 5.57378 15.667 5.33325 15.667C5.0863 15.667 4.91238 15.6059 4.80686 15.5531C4.75328 15.5263 4.71618 15.5011 4.69575 15.4857C4.6867 15.479 4.68105 15.4742 4.67881 15.4723C4.483 15.2849 4.17232 15.2875 3.9797 15.4801C3.78444 15.6754 3.78444 15.9919 3.9797 16.1872ZM3.98118 13.1453L3.98052 13.146C3.98498 13.1423 4.11446 13.0347 3.98118 13.1453Z" fill="#212121"/>
</svg>
