<svg width="36" height="36" viewBox="0 0 36 36" fill="none" xmlns="http://www.w3.org/2000/svg">
<g filter="url(#filter0_d_186_7664)">
<rect x="2" y="1" width="32" height="32" rx="16" fill="#6366F1"/>
<rect x="2.5" y="1.5" width="31" height="31" rx="15.5" stroke="#B8BCF9"/>
<g clip-path="url(#clip0_186_7664)">
<path fill-rule="evenodd" clip-rule="evenodd" d="M22.875 25.625H13.125C12.2966 25.625 11.625 24.9534 11.625 24.125V9.875C11.625 9.04662 12.2966 8.375 13.125 8.375H20.2399C20.2406 8.375 20.2417 8.375 20.2425 8.375H20.25C20.37 8.375 20.4724 8.43537 20.541 8.52312L24.2269 12.209C24.315 12.2776 24.375 12.38 24.375 12.5V12.5079C24.375 12.5086 24.375 12.509 24.375 12.5097V24.125C24.375 24.9534 23.7034 25.625 22.875 25.625ZM20.625 9.64287V12.125H23.1071L20.625 9.64287ZM23.625 12.875H20.25C20.0426 12.875 19.875 12.707 19.875 12.5V9.125H13.125C12.711 9.125 12.375 9.461 12.375 9.875V24.125C12.375 24.539 12.711 24.875 13.125 24.875H22.875C23.289 24.875 23.625 24.539 23.625 24.125V12.875ZM21.375 22.625H14.625C14.4176 22.625 14.25 22.4574 14.25 22.25C14.25 22.043 14.4176 21.875 14.625 21.875H21.375C21.5824 21.875 21.75 22.043 21.75 22.25C21.75 22.4574 21.5824 22.625 21.375 22.625ZM21.375 19.625H14.625C14.4176 19.625 14.25 19.4574 14.25 19.25C14.25 19.043 14.4176 18.875 14.625 18.875H21.375C21.5824 18.875 21.75 19.043 21.75 19.25C21.75 19.4574 21.5824 19.625 21.375 19.625ZM21.375 16.625H14.625C14.4176 16.625 14.25 16.4574 14.25 16.25C14.25 16.043 14.4176 15.875 14.625 15.875H21.375C21.5824 15.875 21.75 16.043 21.75 16.25C21.75 16.4574 21.5824 16.625 21.375 16.625Z" fill="white" stroke="white"/>
</g>
</g>
<defs>
<filter id="filter0_d_186_7664" x="0.4" y="0.2" width="35.2" height="35.2" filterUnits="userSpaceOnUse" color-interpolation-filters="sRGB">
<feFlood flood-opacity="0" result="BackgroundImageFix"/>
<feColorMatrix in="SourceAlpha" type="matrix" values="0 0 0 0 0 0 0 0 0 0 0 0 0 0 0 0 0 0 127 0" result="hardAlpha"/>
<feOffset dy="0.8"/>
<feGaussianBlur stdDeviation="0.8"/>
<feComposite in2="hardAlpha" operator="out"/>
<feColorMatrix type="matrix" values="0 0 0 0 0.0509804 0 0 0 0 0.0509804 0 0 0 0 0.0705882 0 0 0 0.06 0"/>
<feBlend mode="normal" in2="BackgroundImageFix" result="effect1_dropShadow_186_7664"/>
<feBlend mode="normal" in="SourceGraphic" in2="effect1_dropShadow_186_7664" result="shape"/>
</filter>
<clipPath id="clip0_186_7664">
<rect width="18" height="18" fill="white" transform="translate(9 8)"/>
</clipPath>
</defs>
</svg>
