<svg width="36" height="36" viewBox="0 0 36 36" fill="none" xmlns="http://www.w3.org/2000/svg">
<g filter="url(#filter0_d_186_7660)">
<rect x="2" y="1" width="32" height="32" rx="8" fill="white" shape-rendering="crispEdges"/>
<rect x="2.5" y="1.5" width="31" height="31" rx="7.5" stroke="#DFE1E6" shape-rendering="crispEdges"/>
<path d="M18.0001 11.6663C15.0546 11.6663 12.6667 14.0542 12.6667 16.9997C12.6667 18.9738 13.7393 20.6973 15.3334 21.6195M18.0001 11.6663L16.6667 10.333M18.0001 11.6663L17.0001 13.333M18.0001 22.333C20.9456 22.333 23.3334 19.9452 23.3334 16.9997C23.3334 15.0256 22.2609 13.302 20.6667 12.3798M18.0001 22.333L19.3334 23.6663M18.0001 22.333L19.0001 20.6663" stroke="#808897" stroke-width="2" stroke-linecap="round" stroke-linejoin="round"/>
</g>
<defs>
<filter id="filter0_d_186_7660" x="0" y="0" width="36" height="36" filterUnits="userSpaceOnUse" color-interpolation-filters="sRGB">
<feFlood flood-opacity="0" result="BackgroundImageFix"/>
<feColorMatrix in="SourceAlpha" type="matrix" values="0 0 0 0 0 0 0 0 0 0 0 0 0 0 0 0 0 0 127 0" result="hardAlpha"/>
<feOffset dy="1"/>
<feGaussianBlur stdDeviation="1"/>
<feComposite in2="hardAlpha" operator="out"/>
<feColorMatrix type="matrix" values="0 0 0 0 0.0509804 0 0 0 0 0.0509804 0 0 0 0 0.0705882 0 0 0 0.06 0"/>
<feBlend mode="normal" in2="BackgroundImageFix" result="effect1_dropShadow_186_7660"/>
<feBlend mode="normal" in="SourceGraphic" in2="effect1_dropShadow_186_7660" result="shape"/>
</filter>
</defs>
</svg>
