<svg width="24" height="24" viewBox="0 0 24 24" fill="none" xmlns="http://www.w3.org/2000/svg">
<path fill-rule="evenodd" clip-rule="evenodd" d="M8.75 8C8.75 6.20507 10.2051 4.75 12 4.75C13.7949 4.75 15.25 6.20507 15.25 8V11.25H8.75V8ZM16.75 8V11.25H17C18.5188 11.25 19.75 12.4812 19.75 14V18C19.75 19.5188 18.5188 20.75 17 20.75H7C5.48122 20.75 4.25 19.5188 4.25 18V14C4.25 12.4812 5.48122 11.25 7 11.25H7.25V8C7.25 5.37665 9.37665 3.25 12 3.25C14.6234 3.25 16.75 5.37665 16.75 8ZM5.75 14C5.75 13.3096 6.30964 12.75 7 12.75H8H16H17C17.6904 12.75 18.25 13.3096 18.25 14V18C18.25 18.6904 17.6904 19.25 17 19.25H7C6.30964 19.25 5.75 18.6904 5.75 18V14ZM12 17.25C12.6904 17.25 13.25 16.6904 13.25 16C13.25 15.3096 12.6904 14.75 12 14.75C11.3096 14.75 10.75 15.3096 10.75 16C10.75 16.6904 11.3096 17.25 12 17.25Z" fill="#808897"/>
</svg>
